<?xml version="1.0" standalone="no"?>
<!DOCTYPE svg PUBLIC "-//W3C//DTD SVG 20010904//EN"
 "http://www.w3.org/TR/2001/REC-SVG-20010904/DTD/svg10.dtd">
<svg version="1.0" xmlns="http://www.w3.org/2000/svg"
 width="386.000000pt" height="386.000000pt" viewBox="0 0 386.000000 386.000000"
 preserveAspectRatio="xMidYMid meet">

<g transform="translate(0.000000,386.000000) scale(0.100000,-0.100000)"
fill="#000000" stroke="none">
<path d="M2521 3411 c-25 -25 -41 -63 -40 -94 0 -15 5 -10 15 18 8 22 24 47
36 56 11 9 19 22 16 29 -3 10 -10 8 -27 -9z"/>
<path d="M1092 3394 c-27 -19 -28 -31 -2 -39 50 -16 7 -91 -86 -150 -63 -41
-81 -65 -101 -142 -18 -70 -11 -188 16 -248 36 -81 109 -125 205 -125 47 0 45
-11 -7 -34 -23 -11 -45 -22 -49 -24 -5 -2 -8 3 -8 12 0 9 -6 16 -14 16 -15 0
-26 -21 -26 -50 0 -11 -10 -19 -28 -23 -60 -12 -112 -79 -112 -145 0 -16 -11
-49 -24 -73 -13 -24 -27 -55 -30 -69 -4 -14 5 -1 19 29 47 101 129 181 185
181 54 0 50 -14 -28 -96 -47 -49 -90 -107 -110 -146 -53 -103 -75 -275 -52
-398 12 -61 6 -79 -9 -29 -5 19 -10 27 -10 18 -1 -22 42 -145 69 -196 19 -36
20 -47 11 -76 -13 -39 -55 -81 -91 -92 -24 -8 -24 -9 15 -26 51 -24 67 -23
114 1 47 23 71 76 71 153 0 51 1 52 18 31 9 -12 32 -26 51 -33 51 -17 118 -58
136 -84 8 -12 20 -22 27 -22 6 0 19 -16 30 -35 17 -32 18 -54 16 -223 l-3
-189 -30 -24 c-59 -47 -124 -44 -181 9 -26 24 -37 43 -41 74 -7 57 0 82 42
134 24 30 35 54 35 77 0 19 9 45 20 59 24 31 26 62 4 89 -15 18 -15 18 -5 -3
15 -30 14 -55 -4 -80 l-16 -22 -33 36 c-27 30 -41 37 -70 37 -71 0 -130 -77
-106 -139 l12 -30 13 33 c9 21 21 32 35 32 25 0 25 -17 -1 -100 -22 -72 -19
-120 11 -180 63 -122 220 -158 321 -73 l31 27 20 -27 c11 -15 39 -38 62 -50
38 -20 58 -22 266 -27 124 -3 231 -9 238 -14 8 -4 22 -22 32 -38 l18 -30 16
30 c9 17 22 34 28 39 7 4 105 10 218 13 199 5 206 6 250 31 25 15 53 36 63 47
18 20 19 20 62 -23 28 -28 59 -48 87 -55 99 -27 235 15 283 88 30 45 55 139
55 205 0 38 6 56 26 79 35 43 30 85 -15 115 -48 32 -62 31 -48 -6 10 -26 7
-31 -31 -68 -23 -22 -43 -36 -44 -31 -2 4 -3 -27 -3 -69 0 -95 -19 -134 -75
-163 -72 -37 -165 -18 -194 39 -24 46 -22 240 4 323 29 94 124 218 195 255 22
12 16 3 -22 -31 -29 -26 -63 -62 -74 -79 -12 -18 1 -7 28 23 43 47 173 150
173 137 0 -2 -7 -18 -16 -35 -36 -73 -10 -192 53 -242 24 -18 38 -21 89 -18
37 2 72 11 92 24 l31 19 -40 1 c-45 2 -82 24 -106 65 -15 25 -15 33 1 99 10
40 43 124 74 187 51 106 56 121 60 199 9 173 -31 306 -123 411 -30 34 -45 60
-45 79 0 36 -39 113 -67 131 -17 11 -41 14 -94 9 -80 -6 -139 2 -117 15 9 6 2
9 -19 9 -18 0 -33 5 -33 10 0 6 -5 10 -11 10 -5 0 -7 -5 -3 -11 5 -9 -1 -10
-20 -5 -16 4 -26 2 -26 -5 0 -14 35 -64 74 -108 17 -19 24 -30 16 -26 -46 24
-78 58 -99 104 -14 28 -28 51 -32 51 -9 0 2 -33 27 -83 17 -32 17 -32 -4 -14
-11 10 -29 40 -40 67 l-20 49 37 -1 c99 -1 181 33 234 100 10 12 24 28 31 35
17 18 46 146 46 207 0 31 4 49 10 45 7 -4 7 3 0 20 -16 43 -11 97 15 150 14
28 21 53 16 58 -15 15 -90 -3 -121 -29 -16 -14 -31 -39 -35 -57 -14 -71 -16
-72 -41 -11 -13 32 -32 67 -43 78 -17 17 -17 13 4 -29 19 -36 25 -64 25 -110
0 -73 -18 -123 -67 -183 -40 -49 -74 -69 -134 -78 -38 -6 -40 -8 -19 -16 14
-5 43 -3 78 6 86 21 118 2 71 -45 -11 -11 -18 -23 -15 -26 11 -11 54 16 61 37
4 12 14 20 23 18 10 -1 27 7 40 20 22 22 42 29 42 15 0 -22 -44 -76 -69 -86
-15 -5 -32 -20 -37 -31 -6 -15 -20 -22 -47 -24 -33 -3 -36 -5 -27 -23 10 -17
7 -19 -27 -19 -29 1 -56 13 -118 56 -44 30 -104 71 -134 92 -29 20 -48 38 -42
40 6 2 23 -5 38 -15 50 -34 103 -65 103 -59 0 8 -145 122 -162 129 -7 2 -10 8
-6 12 4 4 26 -6 50 -23 24 -16 54 -35 68 -42 24 -12 24 -12 -4 18 -16 17 -51
39 -79 49 -31 11 -52 26 -58 39 -4 12 -13 25 -19 29 -9 6 -9 10 1 16 10 6 10
15 2 43 -8 26 -8 36 1 39 6 3 2 8 -9 12 -11 3 -33 13 -48 22 -36 19 -42 12
-22 -26 8 -17 12 -31 8 -31 -5 0 -1 -5 7 -11 10 -7 11 -9 2 -7 -8 2 -13 7 -13
11 1 12 -113 112 -157 137 -30 17 -42 30 -42 46 l0 23 43 -18 c23 -10 60 -21
82 -25 36 -7 38 -6 20 7 -98 69 -263 67 -354 -4 l-26 -21 30 7 c49 11 99 27
110 35 6 4 25 11 43 15 27 6 32 4 32 -13 0 -13 -20 -31 -63 -56 -34 -20 -86
-60 -115 -88 -32 -31 -52 -44 -52 -35 0 9 6 22 13 29 8 7 12 19 9 26 -2 7 10
26 27 42 35 34 23 39 -39 14 -43 -17 -58 -51 -17 -38 20 6 20 5 -5 -15 -14
-11 -31 -21 -37 -21 -6 0 -11 -7 -11 -15 0 -8 -6 -15 -14 -15 -22 0 -38 -24
-24 -38 8 -8 7 -13 -5 -17 -9 -4 -13 -13 -11 -20 3 -8 11 -12 18 -9 7 3 12 -4
11 -18 0 -27 -31 -59 -107 -111 -30 -20 -65 -49 -79 -63 l-24 -27 25 13 c14 7
44 26 68 42 24 17 46 27 50 23 4 -3 -1 -11 -10 -16 -9 -5 -38 -25 -64 -45 -25
-20 -69 -50 -97 -67 -46 -28 -48 -32 -30 -40 21 -9 20 -10 -8 -64 -16 -30 -29
-63 -29 -73 0 -22 -26 -50 -46 -50 -12 0 -11 7 5 38 10 20 26 55 35 76 16 39
16 39 -3 22 -13 -11 -27 -15 -40 -11 -24 7 -27 21 -8 28 6 3 2 6 -10 6 -25 1
-30 20 -11 39 8 8 3 10 -24 6 -24 -4 -39 -1 -51 10 -11 11 -25 14 -41 10 -21
-5 -27 0 -45 35 -22 41 -28 91 -12 91 5 0 21 -14 35 -31 14 -17 26 -27 26 -23
0 4 13 -5 29 -20 20 -20 35 -26 49 -22 19 6 19 8 -6 34 -15 15 -32 26 -38 24
-6 -1 -17 4 -24 13 -10 12 -10 15 4 15 28 0 18 18 -14 25 -18 4 -37 18 -45 33
-13 23 -15 23 -10 5 5 -17 2 -23 -9 -23 -11 0 -16 9 -16 31 0 16 4 28 9 24 6
-3 8 8 5 27 -3 23 1 41 15 58 l20 25 10 -28 c6 -16 11 -40 11 -55 0 -41 33
-87 76 -106 22 -9 47 -21 56 -26 23 -13 105 -13 113 0 4 6 -8 10 -30 10 -104
0 -204 123 -205 251 0 60 17 113 53 161 l22 30 -28 24 c-33 28 -54 30 -85 8z
m796 -156 c-2 -6 -32 -34 -68 -61 -36 -27 -71 -54 -79 -61 -23 -18 20 51 49
79 24 23 78 55 93 55 4 0 6 -5 5 -12z m158 -7 c17 -10 47 -38 66 -62 69 -86
61 -83 -77 29 -27 22 -42 52 -27 52 4 0 21 -9 38 -19z m-106 -36 c0 -16 -6
-25 -15 -25 -19 0 -151 -66 -160 -80 -3 -5 -13 -10 -21 -10 -19 0 89 95 136
121 47 25 60 24 60 -6z m75 -4 c28 -16 73 -53 100 -81 l50 -52 -51 36 c-28 20
-76 47 -108 62 -40 18 -56 31 -56 45 0 25 6 24 65 -10z m-125 -71 c0 -10 -47
-36 -114 -64 l-39 -16 19 21 c24 27 115 80 126 73 4 -3 8 -9 8 -14z m232 -58
l33 -34 -65 32 c-80 40 -90 48 -83 66 7 19 69 -15 115 -64z m-182 15 c0 -20
-10 -26 -77 -47 -43 -13 -88 -25 -101 -26 -23 -1 -23 -1 -5 17 19 19 147 78
171 79 6 0 12 -10 12 -23z m87 0 c64 -30 104 -57 98 -67 -3 -5 1 -11 7 -13 8
-3 6 -6 -5 -6 -10 -1 -34 7 -55 17 -20 10 -56 24 -79 32 -35 11 -43 18 -43 37
0 29 15 29 77 0z m753 3 c18 -10 40 -59 40 -91 0 -13 -7 -19 -24 -19 -13 0
-24 6 -23 13 1 38 -4 47 -27 47 -23 0 -24 2 -15 30 12 32 20 36 49 20z m-706
-91 l69 -33 -6 -67 c-6 -65 -31 -134 -65 -171 -22 -26 -66 -22 -101 8 -18 15
-38 24 -47 20 -11 -4 -14 -1 -11 12 28 106 28 106 9 182 -11 41 -17 79 -14 84
9 17 98 -2 166 -35z m-447 -31 c-3 -8 -6 -5 -6 6 -1 11 2 17 5 13 3 -3 4 -12
1 -19z m638 3 c3 -5 1 -12 -5 -16 -5 -3 -10 1 -10 9 0 18 6 21 15 7z m-520
-160 c7 -24 -10 -29 -19 -5 -3 8 -10 12 -16 9 -6 -4 -7 1 -3 11 5 13 3 15 -7
9 -10 -6 -12 -3 -8 13 4 12 3 22 -2 22 -4 0 -10 10 -14 23 -4 16 1 28 22 44
l27 23 7 -64 c3 -36 9 -74 13 -85z m448 104 c17 -24 17 -25 -2 -44 -13 -13
-16 -21 -8 -25 7 -2 2 -8 -10 -11 -13 -4 -20 -11 -17 -16 3 -5 0 -9 -6 -9 -6
0 -9 -4 -6 -9 3 -5 -1 -14 -9 -21 -13 -11 -13 -7 0 30 8 23 15 64 15 91 0 53
11 57 43 14z m-538 -61 c11 -38 28 -83 38 -101 9 -18 17 -40 17 -51 0 -38
-115 -116 -132 -90 -4 7 -8 23 -8 35 0 29 -18 39 -27 16 -4 -10 -13 -24 -21
-32 -7 -7 -11 -20 -8 -27 3 -8 0 -14 -6 -14 -7 0 -9 -14 -5 -40 3 -22 1 -40
-4 -40 -16 0 -31 53 -25 85 5 24 4 27 -6 17 -7 -7 -13 -35 -12 -62 0 -40 -2
-47 -13 -39 -8 7 -13 34 -13 73 -1 44 -3 56 -10 44 -15 -25 -15 -92 0 -127 18
-45 7 -63 -37 -61 -77 4 -93 1 -93 -17 -1 -16 -2 -16 -11 1 -6 10 -9 39 -6 65
5 44 5 45 -6 12 -8 -25 -7 -44 2 -75 7 -22 15 -60 18 -84 l5 -43 -38 20 c-31
17 -57 21 -131 21 -91 0 -107 6 -79 29 10 8 16 9 21 1 3 -5 20 -10 37 -10 44
0 88 50 88 101 0 34 5 43 42 69 31 22 44 27 49 18 6 -9 10 -8 15 6 7 17 8 17
17 1 13 -24 27 -1 27 47 0 54 35 138 76 187 39 45 144 121 168 121 8 0 18 5
21 11 14 22 31 0 50 -67z m667 37 c25 -16 64 -46 86 -66 22 -19 42 -32 44 -28
3 4 4 3 2 -3 -1 -6 11 -37 27 -69 28 -55 42 -155 22 -155 -5 0 -15 17 -24 38
l-15 37 0 -52 c1 -29 -4 -57 -10 -63 -9 -9 -12 1 -11 39 0 29 -5 57 -12 64
-10 10 -11 7 -6 -14 7 -29 -11 -109 -25 -109 -5 0 -6 15 -4 33 3 17 1 43 -5
57 -10 25 -10 25 -10 -7 -1 -40 -18 -86 -30 -79 -5 3 -7 22 -4 42 4 28 1 39
-16 50 -12 9 -21 25 -21 37 -1 12 -7 33 -16 47 -14 25 -14 25 -9 -10 4 -25 0
-42 -14 -60 -19 -24 -20 -24 -27 -5 -5 11 -18 28 -31 38 -36 29 -45 52 -32 81
7 14 16 23 22 19 6 -3 7 -1 3 6 -11 17 23 111 37 105 7 -3 34 -32 62 -64 27
-33 51 -57 54 -55 2 3 -3 13 -12 23 -10 10 -17 23 -17 27 0 5 -15 24 -32 43
-57 60 5 18 69 -46 31 -31 53 -50 48 -42 -37 62 -72 104 -111 131 -24 18 -44
34 -44 36 0 9 20 0 62 -26z m-1115 -128 c-16 -16 -18 -16 -34 0 -16 16 -15 17
17 17 32 0 33 -1 17 -17z m1323 -33 c6 -11 8 -24 5 -29 -3 -5 -1 -11 3 -13 5
-1 24 -31 42 -66 37 -70 83 -116 88 -89 6 27 32 6 32 -24 0 -29 0 -29 -29 -15
-16 9 -40 29 -54 46 -35 41 -39 38 -15 -12 12 -24 23 -38 25 -31 5 14 70 -22
95 -53 36 -45 114 -38 137 12 16 37 14 44 -15 44 -20 0 -25 4 -22 21 2 12 11
27 21 33 34 21 201 -173 221 -256 5 -22 3 -26 -9 -22 -8 4 -29 1 -46 -6 -29
-13 -30 -13 -23 -71 7 -58 6 -59 -19 -59 -17 0 -33 11 -49 31 -13 17 -35 44
-49 59 l-25 28 53 36 54 35 14 -32 c8 -18 14 -27 15 -20 1 33 -58 126 -92 144
-29 16 -137 -43 -210 -113 -56 -54 -59 -56 -58 -30 1 15 2 57 1 94 l-1 67 -52
3 -53 3 3 50 c2 28 8 52 13 53 17 7 9 87 -15 145 -18 43 -20 57 -10 57 7 0 18
-9 24 -20z m-574 -12 c18 -21 18 -21 0 -15 -14 6 -17 4 -12 -8 4 -11 2 -14 -7
-8 -6 4 -15 8 -19 9 -5 1 -11 2 -15 3 -5 1 26 41 32 41 1 0 10 -10 21 -22z
m-706 -30 c0 -20 -50 -97 -70 -108 -32 -17 -31 -12 4 35 19 24 37 54 41 65 7
21 25 28 25 8z m40 -1 c0 -14 -50 -91 -55 -85 -2 2 6 25 18 50 22 46 37 61 37
35z m-104 -29 c-11 -15 -16 -18 -16 -7 0 16 21 42 28 34 2 -2 -3 -14 -12 -27z
m635 -23 c93 -33 246 -15 322 37 15 11 27 15 27 9 0 -5 19 -29 43 -53 23 -24
43 -52 44 -63 2 -26 -22 -64 -64 -99 -30 -25 -37 -27 -57 -16 -36 19 -60 9
-73 -30 -7 -22 -16 -33 -25 -30 -7 2 -49 5 -92 5 -81 0 -86 2 -100 48 -6 19
-51 24 -61 7 -9 -14 -57 15 -98 59 -18 19 -25 30 -17 26 10 -6 9 -2 -3 12 -14
16 -15 23 -6 29 8 4 10 3 5 -4 -4 -7 -2 -12 3 -12 6 0 11 6 11 14 0 8 3 22 7
32 5 13 3 15 -8 9 -8 -5 -3 5 11 21 14 16 28 30 33 32 4 2 4 9 0 15 -4 6 7 1
25 -11 17 -12 50 -29 73 -37z m-671 27 c0 -18 -42 -52 -65 -52 -35 0 -31 13
13 38 40 23 52 27 52 14z m1534 -8 c3 -8 2 -12 -4 -9 -6 3 -10 10 -10 16 0 14
7 11 14 -7z m66 -24 c13 -8 13 -10 -2 -10 -9 0 -20 5 -23 10 -8 13 5 13 25 0z
m-503 -165 c-50 -48 -84 -68 -132 -79 -16 -4 -33 -13 -37 -19 -12 -19 -20 0
-9 21 7 14 17 18 36 15 15 -3 25 -1 25 6 0 6 8 11 18 12 9 0 44 20 77 44 33
24 62 44 65 44 3 0 -16 -19 -43 -44z m-476 -35 c10 0 19 -7 19 -15 0 -8 -3
-15 -6 -15 -21 0 -124 76 -124 91 0 5 21 -7 46 -26 25 -19 54 -35 65 -35z
m339 16 c0 -2 -7 -7 -16 -10 -8 -3 -12 -2 -9 4 6 10 25 14 25 6z m-290 -26 c0
-5 -5 -10 -11 -10 -5 0 -7 5 -4 10 3 6 8 10 11 10 2 0 4 -4 4 -10z m38 -46
c-4 -3 -16 1 -28 9 -15 11 -18 16 -8 20 15 5 45 -19 36 -29z m192 -11 c23 -16
71 -19 114 -6 17 5 18 1 14 -41 -3 -26 -13 -55 -22 -65 -26 -29 -30 -137 -6
-159 24 -22 12 -43 -24 -45 l-27 -2 22 -17 c12 -10 33 -18 46 -18 21 0 23 -2
13 -15 -7 -8 -27 -17 -45 -21 -31 -6 -32 -6 -25 -46 8 -40 22 -58 49 -58 11 0
10 -5 -4 -20 -10 -11 -26 -20 -36 -20 -15 0 -11 -10 22 -58 22 -32 41 -68 42
-80 1 -15 8 -22 21 -22 12 0 49 -30 88 -70 71 -73 99 -85 118 -49 9 16 7 29
-9 63 -26 52 -62 76 -87 56 -14 -12 -15 -11 -12 16 2 21 9 30 25 32 21 3 20 5
-14 50 -93 121 -135 319 -87 404 25 43 98 81 139 72 77 -16 105 -53 105 -138
0 -57 16 -110 40 -131 11 -10 20 -22 20 -27 0 -15 -37 -8 -63 12 -23 18 -27
19 -35 5 -5 -9 -4 -37 2 -66 10 -51 3 -78 -22 -87 -8 -2 -12 9 -12 33 0 20
-12 66 -26 101 -25 64 -25 66 -7 86 17 21 17 21 0 15 -25 -9 -57 9 -57 33 0
15 7 20 29 20 36 0 55 22 47 55 -8 33 -48 34 -81 1 -34 -34 -40 -95 -19 -186
13 -60 31 -97 87 -185 143 -222 145 -312 6 -307 -57 2 -59 2 -59 -22 0 -13 -2
-31 -5 -38 -4 -9 5 -20 20 -28 14 -7 25 -19 25 -26 0 -13 60 14 90 41 41 37
42 -40 0 -80 -36 -34 -30 -49 17 -40 32 6 34 5 23 -14 -6 -13 -29 -25 -56 -32
-59 -15 -74 -41 -45 -80 18 -24 19 -30 7 -35 -8 -3 -25 0 -38 7 -43 24 -76 12
-56 -20 7 -12 6 -27 -5 -54 -20 -46 -32 -47 -42 -4 -10 37 -10 46 0 70 6 14 2
17 -23 17 -30 0 -42 -14 -42 -51 0 -10 -7 -19 -15 -19 -9 0 -21 -11 -27 -25
-20 -45 -42 -20 -31 37 l6 31 -53 -5 -54 -5 32 28 c18 16 40 29 48 29 14 0 14
2 3 16 -9 11 -23 14 -46 11 -38 -7 -43 5 -11 27 28 20 68 20 94 1 28 -21 42
-18 81 15 18 17 29 30 24 30 -6 0 -13 15 -16 33 -5 24 -12 33 -26 33 -10 0
-19 -6 -19 -13 0 -21 -38 -53 -62 -53 -22 0 -58 26 -58 41 0 5 9 8 21 6 12 -1
26 6 32 15 18 28 -24 64 -81 71 -26 3 -57 9 -69 12 -16 5 -24 1 -33 -15 -17
-32 11 -70 50 -70 36 0 40 -20 10 -50 -14 -14 -28 -18 -45 -14 -16 4 -25 2
-25 -5 0 -19 -51 -61 -73 -61 -15 0 -18 -5 -14 -23 6 -23 -29 -97 -49 -104 -7
-2 -12 6 -12 19 -2 55 -10 102 -20 106 -5 1 -26 -10 -44 -27 -24 -21 -41 -28
-56 -24 -13 3 -33 -2 -47 -11 -24 -16 -25 -16 -25 4 0 12 11 31 25 44 36 34
32 45 -15 36 -22 -4 -40 -4 -40 0 0 12 34 38 65 50 27 10 28 12 12 22 -11 5
-32 8 -48 4 -21 -4 -27 -2 -23 8 9 24 56 37 98 29 33 -7 45 -17 63 -51 5 -11
36 19 52 51 l19 38 -33 -7 c-18 -3 -41 -2 -51 4 -16 9 -15 10 4 21 31 17 27
28 -8 23 -63 -9 -100 21 -100 81 l0 21 16 -22 c22 -32 45 -27 89 18 26 26 51
42 74 46 20 3 59 16 86 29 28 14 69 27 92 31 60 9 71 27 29 46 -31 15 -35 15
-62 -3 -16 -10 -36 -19 -45 -19 -15 0 -15 4 2 37 24 48 11 54 -41 18 -26 -18
-48 -26 -63 -23 -20 4 -23 1 -19 -14 5 -21 -6 -23 -32 -3 -24 18 -39 10 -30
-17 5 -15 3 -19 -7 -13 -28 16 -59 49 -59 63 0 8 -6 12 -14 9 -7 -3 -19 0 -26
6 -10 10 -12 7 -7 -12 4 -16 -1 -30 -18 -47 -25 -25 -67 -35 -47 -11 12 15 19
70 9 77 -3 3 -17 -4 -29 -14 -12 -11 -33 -21 -46 -22 -13 -2 -33 -11 -44 -21
-20 -17 -20 -17 -17 2 4 17 27 37 84 70 12 7 0 10 -45 10 l-62 -1 27 23 c14
13 37 23 51 23 22 0 23 2 14 20 -6 11 -20 20 -31 20 -11 0 -17 5 -14 10 11 17
74 11 94 -9 17 -17 37 -23 118 -37 42 -8 112 36 89 55 -11 9 -20 10 -35 2 -31
-17 -40 -13 -43 21 -3 34 -38 55 -38 24 0 -22 -17 -20 -30 4 -13 25 1 56 30
65 23 7 26 25 8 43 -17 17 -45 15 -56 -5 -7 -11 -26 -18 -58 -21 l-47 -4 42
41 c34 33 39 42 26 47 -9 4 -19 4 -22 1 -3 -4 -19 5 -35 18 -16 14 -37 25 -46
25 -16 1 -16 1 0 11 9 5 43 7 75 5 52 -4 56 -3 39 10 -11 8 -25 14 -32 14 -6
0 -15 7 -18 15 -3 9 -20 22 -38 30 l-33 14 53 1 c39 0 61 -5 79 -20 33 -26 43
-17 15 13 -12 13 -22 28 -22 35 0 6 -7 15 -16 20 -26 14 -3 20 41 10 38 -8 42
-12 53 -53 7 -25 12 -54 12 -65 0 -11 4 -20 9 -20 5 0 23 -12 40 -26 l31 -26
1 29 c0 27 1 27 9 5 13 -30 54 -45 94 -33 17 5 44 12 59 15 41 10 23 26 -29
26 -24 0 -44 3 -44 8 1 20 20 28 69 28 30 -1 56 4 58 9 1 6 -7 10 -19 11 -13
1 -41 3 -63 4 -22 2 -66 0 -97 -4 -55 -8 -58 -7 -69 17 -6 14 -8 34 -4 44 6
15 9 14 16 -11 11 -40 22 -44 80 -33 34 7 46 13 40 21 -4 6 -11 27 -15 47 -7
40 2 49 54 49 38 0 60 9 60 25 0 15 51 35 86 35 15 0 24 6 24 15 0 19 10 19
40 -2z m-1045 -133 c-3 -5 -13 -10 -21 -10 -8 0 -14 5 -14 10 0 6 9 10 21 10
11 0 17 -4 14 -10z m2033 -21 c2 -16 -4 -34 -15 -44 -17 -18 -18 -17 -24 21
-8 45 -4 56 19 52 10 -2 18 -15 20 -29z m-1770 -84 c6 -13 14 -76 18 -140 8
-130 4 -139 -68 -176 -50 -25 -102 -24 -163 5 -43 19 -56 32 -83 83 -38 72
-39 83 -9 83 15 0 28 -11 41 -35 30 -55 108 -94 151 -74 18 8 18 9 -5 8 -55
-2 -71 2 -103 31 -41 36 -79 119 -75 162 3 31 4 31 59 32 l56 1 -4 -36 c-6
-43 15 -89 50 -108 22 -12 30 -11 59 6 32 18 59 66 45 79 -4 4 -13 1 -22 -6
-12 -10 -18 -10 -30 0 -37 31 4 105 61 109 6 1 16 -10 22 -24z m1590 2 c8 -6
22 -28 33 -49 11 -21 25 -38 32 -38 28 -1 40 -17 28 -39 -7 -11 -9 -21 -7 -21
3 0 12 14 21 30 9 17 20 30 26 30 6 0 24 9 40 21 l29 20 0 -20 c0 -11 -10 -46
-22 -78 -42 -113 -151 -186 -278 -187 -30 0 -47 -2 -37 -4 9 -2 17 -4 17 -6 0
-1 -27 -30 -60 -64 l-60 -61 0 89 0 90 33 -20 c17 -11 37 -20 42 -20 6 0 -8
11 -30 23 l-40 23 -3 84 -3 84 23 -33 c36 -53 71 -74 133 -79 62 -5 72 8 20
27 -69 25 -131 141 -74 141 15 0 26 -13 42 -49 22 -55 51 -70 90 -50 26 14 37
28 37 49 0 11 -3 11 -12 2 -20 -20 -28 -14 -28 24 0 26 -8 43 -29 64 -16 16
-26 32 -23 35 7 7 43 -4 60 -18z m-1568 -402 l0 -35 -39 28 c-36 25 -37 28
-17 34 47 14 56 10 56 -27z"/>
<path d="M1532 2853 c-36 -30 -92 -101 -92 -117 0 -2 34 29 75 69 41 41 75 76
75 79 0 13 -17 4 -58 -31z"/>
<path d="M1520 2778 c-16 -22 -30 -46 -30 -52 0 -15 69 66 70 82 0 20 -8 14
-40 -30z"/>
<path d="M1534 2713 c-3 -16 -7 -34 -10 -40 -8 -26 6 -12 26 27 17 33 18 40 5
40 -8 0 -17 -12 -21 -27z"/>
<path d="M1588 2690 c-3 -16 -1 -35 4 -42 5 -9 8 -4 8 14 0 14 3 33 6 42 3 9
2 16 -4 16 -5 0 -12 -13 -14 -30z"/>
<path d="M1376 2611 c-14 -23 -17 -97 -4 -114 11 -15 13 -8 14 53 1 71 0 77
-10 61z"/>
<path d="M2302 2709 c12 -22 24 -36 26 -30 5 14 -26 71 -39 71 -6 0 0 -18 13
-41z"/>
<path d="M2244 2708 c3 -13 6 -29 6 -35 0 -7 5 -13 10 -13 11 0 13 30 4 54 -9
25 -27 19 -20 -6z"/>
<path d="M2631 2470 c0 -3 6 -25 13 -50 8 -25 15 -36 15 -25 0 17 -26 88 -28
75z"/>
<path d="M2641 2333 c-10 -26 -10 -27 4 -9 8 11 15 23 15 28 0 15 -7 8 -19
-19z"/>
<path d="M1931 2266 c-9 -10 -8 -15 4 -20 10 -4 15 1 15 14 0 24 -4 25 -19 6z"/>
<path d="M1862 2190 c-49 -11 -51 -20 -4 -20 23 0 45 -1 49 -2 4 -2 9 5 11 15
4 18 -4 19 -56 7z"/>
<path d="M1938 2047 c-3 -15 -3 -25 0 -23 3 3 11 -2 19 -12 8 -9 11 -11 8 -4
-4 8 -10 26 -14 40 l-8 27 -5 -28z"/>
<path d="M2065 2040 c-3 -5 -1 -10 4 -10 6 0 11 5 11 10 0 6 -2 10 -4 10 -3 0
-8 -4 -11 -10z"/>
<path d="M1758 1993 c6 -2 18 -2 25 0 6 3 1 5 -13 5 -14 0 -19 -2 -12 -5z"/>
<path d="M1900 1991 c0 -6 4 -13 10 -16 6 -3 7 1 4 9 -7 18 -14 21 -14 7z"/>
<path d="M2008 1978 c5 -5 16 -8 23 -6 8 3 3 7 -10 11 -17 4 -21 3 -13 -5z"/>
<path d="M1972 1910 c0 -19 2 -27 5 -17 2 9 2 25 0 35 -3 9 -5 1 -5 -18z"/>
<path d="M1942 1880 c0 -14 2 -19 5 -12 2 6 2 18 0 25 -3 6 -5 1 -5 -13z"/>
<path d="M1260 1960 c-7 -16 -28 -44 -47 -60 -18 -17 -30 -30 -25 -30 21 0
101 104 89 116 -2 3 -10 -9 -17 -26z"/>
<path d="M2919 1943 c-13 -16 -12 -17 4 -4 16 13 21 21 13 21 -2 0 -10 -8 -17
-17z"/>
<path d="M2870 1915 c-14 -8 -20 -14 -14 -15 5 0 19 7 30 15 24 18 16 19 -16
0z"/>
<path d="M1355 3349 c-4 -6 3 -21 15 -34 25 -27 22 -71 -6 -82 -22 -8 -84 28
-84 50 0 26 -23 16 -30 -13 -3 -13 -11 -25 -18 -28 -9 -3 -11 3 -6 22 9 37
-12 33 -35 -5 -24 -40 -36 -121 -22 -146 9 -15 10 -14 11 13 0 39 21 67 46 62
24 -4 45 -47 37 -76 -7 -29 -41 -29 -53 1 -8 21 -9 21 -9 -5 -1 -16 7 -33 20
-41 11 -8 28 -30 37 -48 23 -45 48 -49 57 -10 4 17 4 44 0 60 -6 27 -4 29 32
35 21 4 52 8 68 10 17 2 34 4 40 4 5 1 -1 9 -13 18 -25 17 -30 44 -8 44 34 0
30 110 -6 155 -20 26 -61 34 -73 14z"/>
<path d="M2552 3341 c4 -13 18 -16 19 -4 0 4 -5 9 -11 12 -7 2 -11 -2 -8 -8z"/>
<path d="M1270 3330 c0 -5 7 -10 15 -10 8 0 15 5 15 10 0 6 -7 10 -15 10 -8 0
-15 -4 -15 -10z"/>
<path d="M2573 3304 c10 -11 -11 -41 -33 -47 -12 -3 -27 2 -37 11 -15 16 -16
15 -10 -17 9 -43 52 -101 75 -101 10 0 22 10 27 22 23 53 75 24 75 -41 0 -27
3 -32 10 -21 15 23 12 85 -6 130 -13 33 -21 40 -44 40 -16 0 -30 7 -34 15 -3
8 -11 15 -17 15 -7 0 -9 -3 -6 -6z"/>
<path d="M2060 3285 c0 -3 10 -10 23 -16 12 -5 38 -19 57 -29 42 -23 50 -24
50 -7 0 6 -25 22 -55 35 -56 22 -75 27 -75 17z"/>
<path d="M2410 3145 l-23 -25 26 0 c23 0 47 23 47 44 0 15 -29 4 -50 -19z"/>
<path d="M1505 3140 c-3 -5 -1 -10 4 -10 6 0 11 5 11 10 0 6 -2 10 -4 10 -3 0
-8 -4 -11 -10z"/>
<path d="M2641 3130 c0 -9 -14 -27 -31 -42 -19 -17 -30 -36 -30 -53 0 -15 4
-24 10 -20 6 3 10 12 10 20 0 7 12 22 26 32 20 15 25 25 21 49 -2 16 -5 22 -6
14z"/>
<path d="M2939 3050 c14 -27 27 -45 29 -40 3 8 -44 90 -52 90 -2 0 8 -22 23
-50z"/>
<path d="M2475 3045 l-30 -25 26 0 c27 0 49 16 49 37 0 19 -11 16 -45 -12z"/>
<path d="M1330 3045 c0 -16 30 -35 54 -35 9 0 16 5 16 10 0 6 -7 10 -15 10 -9
0 -18 7 -21 15 -8 19 -34 20 -34 0z"/>
<path d="M1449 3033 c-13 -16 -12 -17 4 -4 9 7 17 15 17 17 0 8 -8 3 -21 -13z"/>
<path d="M2395 3040 c3 -5 8 -10 11 -10 2 0 4 5 4 10 0 6 -5 10 -11 10 -5 0
-7 -4 -4 -10z"/>
<path d="M1488 2963 c-27 -14 -46 -28 -43 -31 4 -5 95 46 95 53 0 7 -1 7 -52
-22z"/>
<path d="M2971 2974 c0 -11 3 -14 6 -6 3 7 2 16 -1 19 -3 4 -6 -2 -5 -13z"/>
<path d="M2971 2904 c0 -11 3 -14 6 -6 3 7 2 16 -1 19 -3 4 -6 -2 -5 -13z"/>
<path d="M2951 2848 c-10 -30 -9 -31 4 -14 8 11 15 26 15 33 0 22 -8 14 -19
-19z"/>
<path d="M2892 2763 c-43 -45 -39 -50 6 -9 20 18 49 58 40 55 -2 0 -23 -21
-46 -46z"/>
<path d="M2810 2710 c-8 -5 -10 -10 -5 -10 6 0 17 5 25 10 8 5 11 10 5 10 -5
0 -17 -5 -25 -10z"/>
<path d="M2768 2693 c7 -3 16 -2 19 1 4 3 -2 6 -13 5 -11 0 -14 -3 -6 -6z"/>
<path d="M811 2234 c0 -11 3 -14 6 -6 3 7 2 16 -1 19 -3 4 -6 -2 -5 -13z"/>
<path d="M796 2128 c-3 -46 -3 -108 2 -138 6 -44 8 -27 8 83 0 75 0 137 -2
137 -1 0 -5 -37 -8 -82z"/>
<path d="M812 1910 c0 -14 2 -19 5 -12 2 6 2 18 0 25 -3 6 -5 1 -5 -13z"/>
<path d="M2865 1573 c5 -27 2 -34 -19 -48 -25 -17 -66 -73 -66 -91 0 -5 10 7
23 27 12 20 37 50 56 65 l34 29 -6 -40 c-4 -32 -3 -36 5 -18 12 25 6 60 -17
88 -15 19 -16 19 -10 -12z"/>
<path d="M1148 1550 c18 -11 41 -34 52 -52 11 -18 20 -27 20 -19 0 17 -74 91
-91 91 -8 0 1 -9 19 -20z"/>
<path d="M1051 1534 c-29 -37 -28 -59 2 -43 32 17 36 23 9 14 -22 -6 -23 -5
-13 14 6 11 19 25 29 30 9 6 12 11 5 11 -6 0 -21 -12 -32 -26z"/>
<path d="M2690 1499 c-12 -23 -20 -43 -18 -45 3 -2 14 17 26 41 27 56 20 60
-8 4z"/>
<path d="M1257 1450 c4 -19 10 -53 14 -75 l6 -40 1 35 c0 19 -6 53 -13 75 -14
39 -14 39 -8 5z"/>
<path d="M2866 1454 c-8 -22 -8 -72 2 -77 4 -3 7 17 7 44 0 27 -1 49 -1 49 -1
0 -5 -7 -8 -16z"/>
<path d="M1222 1435 c0 -16 2 -22 5 -12 2 9 2 23 0 30 -3 6 -5 -1 -5 -18z"/>
<path d="M2646 1395 c-3 -9 -6 -22 -5 -28 0 -7 5 -1 10 12 5 13 8 26 5 28 -2
2 -6 -3 -10 -12z"/>
<path d="M1231 1374 c0 -11 3 -14 6 -6 3 7 2 16 -1 19 -3 4 -6 -2 -5 -13z"/>
<path d="M2784 1359 c5 -23 2 -27 -24 -33 -18 -3 -30 -12 -30 -21 0 -18 -26
-20 -33 -2 -4 9 -6 9 -6 -1 -2 -24 32 -27 47 -4 17 26 44 28 62 7 22 -26 21
-10 -1 36 -12 27 -18 34 -15 18z"/>
<path d="M2880 1355 c0 -5 5 -17 10 -25 5 -8 10 -10 10 -5 0 6 -5 17 -10 25
-5 8 -10 11 -10 5z"/>
<path d="M2677 1333 c-4 -3 -7 -11 -7 -17 0 -6 5 -5 12 2 6 6 9 14 7 17 -3 3
-9 2 -12 -2z"/>
<path d="M1205 1309 c-4 -6 -5 -12 -2 -15 2 -3 7 2 10 11 7 17 1 20 -8 4z"/>
<path d="M2661 1282 c-1 -22 24 -82 35 -82 2 0 -1 10 -7 23 -7 12 -16 36 -20
52 -6 25 -7 26 -8 7z"/>
<path d="M1165 1270 c-3 -5 -2 -10 4 -10 5 0 13 5 16 10 3 6 2 10 -4 10 -5 0
-13 -4 -16 -10z"/>
<path d="M1264 1225 c-6 -33 -10 -62 -8 -64 6 -7 25 81 22 102 -2 12 -8 -5
-14 -38z"/>
<path d="M1202 1246 c7 -8 15 -12 17 -11 5 6 -10 25 -20 25 -5 0 -4 -6 3 -14z"/>
<path d="M2631 1214 c0 -11 3 -14 6 -6 3 7 2 16 -1 19 -3 4 -6 -2 -5 -13z"/>
<path d="M1222 1200 c0 -14 2 -19 5 -12 2 6 2 18 0 25 -3 6 -5 1 -5 -13z"/>
<path d="M2743 1193 c51 -6 59 -29 21 -61 -22 -19 -23 -22 -5 -10 59 35 48 79
-18 76 l-36 -1 38 -4z"/>
<path d="M1142 1181 c-9 -5 -4 -8 16 -7 17 1 28 4 25 9 -6 9 -25 9 -41 -2z"/>
<path d="M2640 1183 c0 -13 51 -59 73 -66 11 -4 16 -3 12 3 -3 6 -12 10 -20
10 -7 0 -25 14 -39 31 -14 17 -26 27 -26 22z"/>
<path d="M1201 1161 c-7 -5 -11 -15 -9 -22 3 -10 8 -7 17 9 13 24 12 26 -8 13z"/>
<path d="M1222 1119 c-27 -34 -75 -40 -91 -11 -6 9 -11 12 -11 7 0 -19 23 -35
50 -35 24 0 91 54 79 64 -2 2 -14 -10 -27 -25z"/>
<path d="M1554 506 c-10 -26 4 -46 31 -46 14 0 25 -5 25 -11 0 -7 -12 -10 -30
-7 -19 3 -29 1 -27 -6 2 -6 19 -11 38 -11 30 0 34 3 34 25 0 20 -6 26 -27 28
-16 2 -28 8 -28 14 0 6 11 8 25 5 16 -3 24 0 22 7 -6 18 -56 20 -63 2z"/>
<path d="M1657 502 c-21 -23 -22 -46 -1 -66 19 -20 74 -21 74 -2 0 8 -8 12
-23 9 -32 -6 -55 21 -36 43 7 9 22 14 35 11 16 -3 21 0 17 10 -7 19 -47 16
-66 -5z"/>
<path d="M1755 470 c0 -33 4 -50 13 -50 6 0 12 9 12 21 0 15 5 20 23 17 15 -2
21 -9 19 -20 -2 -11 3 -18 13 -18 11 0 15 12 15 50 0 39 -4 50 -16 50 -11 0
-14 -6 -9 -20 5 -16 2 -20 -19 -20 -19 0 -26 5 -26 20 0 11 -6 20 -12 20 -9 0
-13 -17 -13 -50z"/>
<path d="M1879 516 c-2 -3 -3 -25 -1 -50 4 -49 22 -64 22 -18 l0 27 19 -24 19
-24 15 29 16 29 1 -32 c0 -18 5 -33 10 -33 12 0 13 87 1 94 -5 3 -17 -6 -26
-20 l-17 -27 -24 27 c-26 27 -28 29 -35 22z"/>
<path d="M2022 474 c2 -27 7 -48 12 -46 14 3 11 85 -3 90 -9 3 -11 -10 -9 -44z"/>
<path d="M2070 470 l0 -50 34 0 c19 0 38 5 41 10 4 6 -5 10 -19 10 -14 0 -26
5 -26 10 0 6 7 10 15 10 8 0 15 5 15 10 0 6 -7 10 -15 10 -8 0 -15 5 -15 10 0
6 9 10 21 10 11 0 17 5 14 10 -3 6 -19 10 -36 10 -28 0 -29 -1 -29 -50z"/>
<path d="M2170 471 c0 -45 2 -51 21 -51 33 0 59 19 59 43 0 33 -12 46 -48 53
l-32 7 0 -52z m58 -4 c-2 -11 -8 -22 -14 -24 -14 -5 -25 22 -18 41 8 22 36 7
32 -17z"/>
<path d="M2269 516 c-2 -3 -3 -25 -1 -50 4 -45 5 -46 37 -46 42 0 56 17 18 22
-24 3 -28 7 -29 37 0 31 -13 49 -25 37z"/>
<path d="M2369 518 c0 -2 -1 -24 -2 -51 l-2 -47 38 0 c20 0 37 5 37 10 0 6 -9
10 -19 10 -11 0 -23 5 -27 12 -5 8 -2 9 9 5 12 -5 17 -1 17 12 0 11 5 21 12
23 21 7 -3 28 -33 28 -16 0 -29 -1 -30 -2z"/>
</g>
</svg>
