<?xml version="1.0" standalone="no"?>
<!DOCTYPE svg PUBLIC "-//W3C//DTD SVG 20010904//EN"
 "http://www.w3.org/TR/2001/REC-SVG-20010904/DTD/svg10.dtd">
<svg version="1.0" xmlns="http://www.w3.org/2000/svg"
 width="720.000000pt" height="1280.000000pt" viewBox="0 0 720.000000 1280.000000"
 preserveAspectRatio="xMidYMid meet">

<g transform="translate(0.000000,1280.000000) scale(0.100000,-0.100000)"
fill="#000000" stroke="none">
<path d="M720 12731 c0 -39 -4 -72 -9 -75 -15 -10 -33 -99 -37 -184 -2 -46 -5
-91 -8 -100 -8 -25 -9 -142 -2 -184 3 -21 2 -38 -3 -38 -12 0 -8 -163 4 -172
6 -5 6 -8 -2 -8 -9 0 -10 -45 -7 -177 3 -98 1 -179 -4 -182 -5 -4 -5 -45 0
-101 6 -62 5 -135 -3 -210 -14 -143 -13 -169 3 -185 3 -4 -1 -20 -9 -36 -8
-16 -12 -36 -9 -44 3 -8 1 -15 -4 -15 -6 0 -10 -6 -10 -14 0 -21 30 -29 49
-13 22 19 53 31 89 35 22 3 10 107 -16 137 l-22 25 23 0 c30 0 46 33 44 90 -1
26 3 44 11 47 6 3 12 9 12 14 0 4 -7 6 -15 3 -11 -5 -13 -2 -9 9 8 22 27 12
42 -23 8 -17 20 -30 27 -30 11 0 11 -6 2 -30 -7 -18 -17 -28 -24 -26 -15 6
-18 -10 -3 -19 6 -3 10 -19 10 -35 0 -21 6 -29 25 -34 14 -4 25 -13 25 -21 0
-8 5 -15 11 -15 6 0 8 7 5 16 -3 8 -2 12 4 9 6 -3 10 -11 10 -16 0 -20 28 -38
66 -41 l39 -4 -30 -9 c-16 -4 -35 -14 -42 -21 -7 -7 -18 -15 -25 -17 -10 -4
-9 -8 2 -16 13 -9 13 -12 1 -20 -8 -5 -11 -16 -8 -24 5 -14 11 -14 57 0 38 11
55 12 63 4 8 -8 6 -11 -6 -11 -19 0 -23 -16 -5 -22 8 -3 5 -12 -10 -28 -26
-28 -20 -42 14 -30 38 15 51 12 57 -10 4 -15 0 -20 -14 -20 -10 0 -19 -6 -19
-14 0 -21 -21 -31 -31 -15 -7 11 -9 10 -9 -3 0 -10 7 -18 17 -18 13 0 14 -3 5
-12 -16 -16 -15 -28 3 -28 8 0 15 -4 15 -10 0 -5 -10 -10 -23 -10 -12 0 -29
-10 -36 -22 -18 -28 -22 -88 -9 -105 7 -9 5 -15 -8 -20 -27 -10 -40 -25 -48
-56 -5 -20 -3 -27 9 -27 8 0 15 -4 15 -10 0 -5 -9 -10 -20 -10 -22 0 -27 -16
-7 -23 6 -2 9 -7 6 -11 -10 -11 -59 13 -59 29 0 21 -30 18 -58 -4 -19 -16 -21
-23 -12 -46 13 -35 13 -46 -2 -43 -7 2 -14 -7 -16 -19 -2 -15 -10 -23 -22 -23
-28 0 -34 -17 -10 -30 22 -12 18 -30 -6 -30 -8 0 -12 5 -9 10 3 6 2 10 -3 10
-5 0 -14 17 -20 37 -10 31 -9 44 6 75 9 21 22 38 29 38 6 0 11 9 10 20 -1 10
-3 17 -6 15 -2 -3 -10 0 -18 6 -10 9 -13 8 -13 -4 0 -15 -24 -30 -34 -20 -3 3
1 15 9 27 21 29 19 58 -5 79 -24 20 -31 21 -29 5 3 -28 -2 -38 -21 -38 -11 0
-20 7 -20 15 0 23 34 84 46 85 21 0 26 48 8 75 -9 14 -15 27 -13 28 2 1 13 7
24 13 17 10 19 20 17 60 -2 27 -10 56 -18 66 -10 10 -12 18 -5 22 6 4 16 -2
23 -14 15 -24 28 -26 28 -5 0 17 16 20 25 5 8 -13 35 -13 55 0 12 8 10 14 -13
38 -39 41 -115 52 -156 23 -24 -17 -28 -27 -30 -78 -3 -78 -6 -96 -15 -111 -4
-8 -8 -62 -9 -121 0 -72 -4 -114 -13 -126 -15 -20 -44 -14 -44 10 0 9 5 13 10
10 6 -3 10 4 9 17 l0 23 -16 -22 c-8 -13 -22 -23 -29 -23 -8 0 -62 15 -121 34
-119 36 -240 68 -263 68 -8 0 -41 6 -73 13 l-57 13 0 -2076 1 -2077 22 30 c41
55 259 295 268 295 5 0 26 23 46 51 23 30 62 65 98 87 33 20 65 42 70 48 11
14 196 104 213 104 5 0 34 16 63 36 88 59 138 80 259 109 63 15 147 42 185 60
116 54 164 67 273 73 74 3 118 0 160 -11 78 -21 145 -29 176 -21 40 10 42 38
4 99 -129 209 -220 366 -271 465 -33 63 -67 126 -77 140 -9 14 -29 50 -44 81
l-28 57 -112 4 c-93 3 -117 7 -147 25 -33 21 -109 118 -173 221 -47 76 -9 44
48 -40 86 -127 115 -158 161 -168 48 -11 232 -13 238 -2 3 4 -20 56 -49 117
-30 60 -54 115 -54 122 0 6 -7 24 -15 40 -22 43 -53 160 -60 231 -4 34 -9 62
-12 62 -11 0 -177 -74 -227 -101 -28 -15 -50 -33 -48 -39 2 -8 -3 -10 -13 -6
-9 3 -27 -1 -40 -10 -13 -8 -34 -14 -47 -12 -23 4 -23 4 4 17 16 8 24 19 21
27 -3 8 0 14 6 14 6 0 11 8 11 18 0 9 9 31 19 48 11 18 21 41 23 53 3 23 24
30 22 9 -1 -17 -20 -66 -39 -101 -14 -27 -14 -28 6 -22 11 4 46 21 78 39 60
34 152 79 196 96 19 7 24 15 21 32 -3 13 -10 55 -16 93 -6 39 -15 83 -20 98
-5 16 -7 34 -4 42 3 7 1 16 -5 20 -6 3 -11 15 -11 25 0 14 -5 18 -17 13 -17
-6 -17 -5 0 11 13 13 15 22 8 29 -6 6 -11 25 -11 43 0 18 -6 35 -12 38 -10 5
-10 7 0 12 6 3 9 11 6 16 -4 6 -8 36 -10 67 -3 61 -12 137 -19 161 -2 8 -6 33
-9 55 -12 80 -37 251 -45 297 -4 26 -4 52 0 59 4 7 3 22 -4 33 -15 30 -18 71
-8 116 5 24 5 38 0 34 -6 -3 -9 19 -8 51 2 42 5 55 16 51 7 -3 13 -1 13 4 0 6
-4 10 -10 10 -5 0 -10 7 -10 15 0 8 5 14 11 13 8 -2 13 17 14 52 2 30 8 56 14
58 6 2 11 27 11 58 0 30 5 54 10 54 6 0 10 8 10 19 0 16 43 191 70 284 6 20 9
41 5 46 -3 5 -1 11 5 13 5 1 14 23 19 48 17 79 46 169 59 182 6 6 12 23 12 35
0 13 9 33 20 45 11 12 20 32 20 44 0 13 8 28 18 33 15 9 15 12 2 21 -10 6 -11
10 -3 10 7 0 32 18 54 40 43 42 54 47 64 30 4 -6 11 -8 16 -4 6 4 6 11 -2 20
-9 11 -8 14 9 14 11 0 25 7 32 15 7 8 18 15 24 14 18 -2 56 13 56 21 0 5 10
10 23 12 12 2 21 9 20 16 -2 7 8 12 22 12 23 0 31 13 26 43 -2 12 11 8 32 -10
19 -17 20 -17 14 6 -4 18 -1 24 14 28 15 4 17 8 8 19 -9 11 -8 14 4 14 8 0 18
-6 20 -12 3 -8 6 -6 6 5 1 9 8 17 16 17 8 0 14 3 13 8 0 4 2 15 7 25 7 17 9
17 31 -4 13 -12 28 -18 35 -14 8 5 10 4 5 -3 -4 -7 -2 -12 3 -12 6 0 11 7 11
16 0 11 6 14 20 9 14 -5 20 -2 20 9 0 12 10 16 35 16 36 0 46 15 24 37 -7 7
-4 12 10 16 12 3 24 1 27 -4 9 -15 24 0 17 19 -5 14 -3 15 8 5 7 -7 21 -13 31
-13 10 0 18 6 19 13 0 6 5 2 11 -10 12 -25 34 -32 24 -8 -3 10 1 15 14 15 23
0 35 16 18 23 -7 2 -10 8 -6 12 4 4 21 0 39 -9 17 -9 35 -13 40 -10 5 3 9 -2
9 -10 0 -9 6 -16 13 -16 8 0 13 -10 13 -22 -1 -25 29 -37 47 -19 9 9 8 14 -3
21 -8 5 -18 6 -22 4 -10 -7 -10 17 1 34 9 15 17 7 41 -40 7 -16 20 -28 27 -28
8 0 12 -4 9 -9 -9 -14 4 -41 19 -41 7 0 18 -7 25 -15 10 -12 10 -15 -4 -15 -9
0 -16 -8 -16 -20 0 -13 7 -20 20 -20 21 0 23 -7 20 -52 -1 -16 4 -28 10 -28 7
0 9 8 5 19 -3 11 -1 22 5 26 5 3 10 -1 10 -9 0 -9 7 -16 15 -16 13 0 14 4 5
20 -7 13 -7 20 -1 20 6 0 13 -11 17 -25 5 -21 9 -23 21 -13 12 9 16 9 24 -3 8
-12 10 -12 19 1 10 16 14 8 10 -24 -1 -13 3 -17 13 -13 9 3 28 -4 42 -15 l27
-21 23 27 c24 28 50 34 59 14 5 -10 7 -10 12 0 11 24 23 12 18 -18 -5 -24 -3
-30 10 -30 13 0 16 5 11 19 -3 11 -1 22 5 26 6 3 10 -3 10 -14 0 -24 10 -27
28 -9 9 9 15 9 24 0 7 -7 22 -12 35 -12 13 0 26 -7 29 -15 4 -8 10 -13 15 -10
4 3 6 12 2 20 -4 11 3 15 26 15 24 0 31 -4 31 -20 0 -23 -10 -26 -28 -8 -9 9
-13 7 -18 -6 -4 -10 -2 -21 3 -25 5 -3 15 -15 21 -26 10 -17 11 -17 12 -3 0
24 32 39 71 34 53 -5 49 -30 -11 -62 -49 -27 -50 -50 -2 -47 20 1 39 2 41 2 2
1 -4 9 -13 20 -16 17 -16 19 2 23 18 5 19 0 16 -46 -3 -39 -1 -47 7 -33 8 13
18 17 38 12 22 -5 30 -1 38 17 l10 23 34 -35 c30 -30 32 -35 15 -38 -15 -3
-16 -6 -5 -14 11 -7 9 -8 -6 -6 -13 2 -20 11 -20 25 0 30 -19 30 -25 1 -5 -18
-13 -23 -40 -23 -25 -1 -34 -6 -32 -15 2 -10 -3 -9 -17 4 -20 18 -21 18 -31
-8 -5 -15 -10 -33 -10 -40 0 -8 -13 -12 -35 -12 -21 1 -35 6 -35 13 0 7 -4 13
-10 13 -5 0 -10 -11 -10 -24 0 -20 5 -23 32 -22 24 1 34 -4 36 -16 2 -11 -3
-18 -12 -18 -9 0 -16 -8 -16 -20 0 -11 7 -20 15 -20 8 0 15 7 15 15 0 16 12
20 23 8 4 -3 2 -12 -4 -19 -6 -8 -9 -20 -6 -29 4 -8 2 -17 -3 -20 -6 -4 -10 1
-10 9 0 9 -4 16 -9 16 -11 0 -9 -86 2 -97 5 -4 15 1 23 11 7 11 17 16 21 12 4
-4 1 -11 -6 -15 -7 -5 -10 -14 -7 -20 4 -6 0 -11 -9 -11 -9 0 -24 13 -33 30
-21 36 -36 39 -28 5 4 -14 2 -25 -4 -25 -5 0 -10 -11 -10 -25 0 -14 5 -25 12
-25 6 0 9 -2 6 -5 -3 -3 -17 -1 -32 4 -17 7 -26 7 -26 1 0 -6 5 -10 12 -10 6
0 8 -3 4 -7 -4 -4 -25 -6 -46 -4 -40 3 -56 -13 -22 -22 12 -3 10 -5 -8 -7 -14
-1 -28 -2 -32 -1 -5 0 -8 -8 -8 -20 0 -11 -4 -18 -9 -15 -5 3 -11 -8 -15 -24
-4 -21 -11 -30 -26 -30 -23 0 -26 -19 -7 -39 10 -11 10 -14 0 -18 -7 -3 -13
-13 -13 -24 0 -10 -7 -19 -15 -19 -9 0 -12 -6 -9 -15 4 -8 10 -15 15 -15 14 0
60 51 54 61 -4 5 4 9 16 9 12 0 19 -3 16 -7 -4 -3 -1 -13 5 -20 10 -12 9 -14
-6 -11 -11 2 -28 -10 -43 -29 -23 -30 -24 -33 -7 -40 10 -4 19 -2 22 5 2 7 13
12 25 11 16 0 18 -2 7 -7 -16 -8 -20 -39 -7 -59 5 -8 3 -13 -4 -13 -29 0 3
-12 42 -16 24 -2 47 -11 55 -21 7 -10 14 -15 14 -11 0 3 14 -6 30 -20 17 -15
30 -31 30 -37 0 -5 -7 -1 -15 9 -14 18 -15 18 -24 -8 -6 -14 -15 -26 -20 -26
-5 0 -8 -8 -7 -17 2 -10 -2 -21 -8 -26 -8 -5 -6 -11 5 -20 12 -9 17 -28 16
-65 -1 -52 -19 -69 -25 -23 -2 12 -9 20 -15 18 -20 -6 -19 -25 2 -46 22 -22
28 -37 12 -26 -12 7 -34 -32 -27 -48 3 -9 5 -9 5 1 1 20 21 14 21 -7 0 -10 -9
-21 -21 -24 -13 -4 -19 -12 -17 -25 2 -10 -3 -26 -10 -35 -13 -15 -16 -15 -29
-1 -12 11 -18 12 -29 3 -8 -6 -14 -17 -14 -24 0 -7 -7 -26 -16 -41 l-16 -29 4
32 c4 32 4 32 -14 16 -16 -14 -21 -15 -28 -4 -5 9 -14 11 -26 6 -17 -8 -17 -9
4 -13 16 -2 22 -8 18 -19 -3 -8 -6 -21 -6 -29 0 -9 -4 -13 -9 -10 -5 3 -11 -3
-14 -14 -4 -16 -14 -20 -43 -20 -20 0 -34 -3 -31 -7 4 -3 0 -17 -8 -29 -8 -13
-12 -29 -9 -37 3 -8 0 -18 -7 -23 -7 -4 -14 -3 -17 4 -2 8 -7 8 -16 0 -10 -10
-9 -16 6 -32 10 -11 18 -26 18 -33 0 -7 5 -13 10 -13 19 0 10 -17 -15 -28 -17
-8 -26 -8 -31 -1 -4 8 -9 7 -15 -2 -7 -11 -13 -9 -29 11 -16 20 -16 26 -5 28
8 2 15 7 15 12 0 4 -9 6 -21 3 -14 -4 -19 -12 -16 -24 3 -12 0 -16 -9 -12 -9
3 -14 -1 -14 -12 0 -13 6 -16 25 -11 19 5 25 2 25 -9 0 -13 8 -15 40 -11 32 3
40 1 40 -12 0 -8 -3 -13 -6 -9 -4 3 -22 0 -41 -8 -37 -15 -63 -11 -63 11 0 8
-6 15 -12 16 -7 0 -17 2 -23 2 -5 1 -16 5 -22 9 -8 5 -13 3 -13 -6 0 -8 -7
-18 -16 -21 -8 -3 -12 -10 -9 -16 3 -5 1 -10 -4 -10 -6 0 -11 -4 -11 -10 0 -5
13 -10 28 -10 19 0 29 -5 29 -15 0 -11 -13 -15 -46 -16 -25 -1 -52 -1 -58 0
-8 1 -13 -9 -13 -24 0 -14 -4 -25 -10 -25 -5 0 -10 13 -10 29 0 21 6 30 22 34
21 6 20 8 -19 39 -34 26 -41 36 -37 55 5 18 2 23 -12 23 -14 0 -15 3 -6 12 27
27 5 62 -44 74 -16 4 -35 11 -41 17 -7 5 -29 6 -48 3 -34 -7 -46 -21 -24 -28
8 -3 7 -19 -4 -58 -9 -29 -13 -58 -10 -63 7 -12 32 31 33 58 1 15 6 10 17 -15
19 -44 27 -83 14 -76 -14 9 -21 -36 -12 -69 8 -25 17 -19 12 8 -1 5 13 7 31 5
26 -2 34 -8 36 -26 2 -13 10 -26 19 -29 12 -5 12 -7 1 -14 -10 -6 -9 -11 7
-23 17 -13 21 -12 34 7 8 12 16 24 18 26 2 3 10 -4 17 -15 13 -17 12 -20 -2
-27 -10 -4 -4 -5 16 -2 17 2 32 0 32 -5 0 -9 -22 -14 -42 -11 -5 0 -8 -6 -8
-14 0 -12 5 -12 41 0 52 19 49 19 49 -5 0 -11 5 -20 11 -20 6 0 8 9 4 20 -4
11 -2 20 4 20 6 0 11 7 11 15 0 22 28 18 35 -5 3 -11 11 -20 16 -20 6 0 7 -5
4 -10 -4 -6 -11 -8 -16 -5 -19 12 -8 -17 13 -34 15 -12 18 -20 10 -25 -8 -4
-12 0 -12 11 0 16 -1 16 -16 1 -9 -8 -19 -42 -24 -74 -4 -33 -10 -66 -14 -74
-8 -20 64 -45 76 -27 5 7 8 1 8 -15 0 -14 3 -34 7 -44 5 -14 2 -16 -20 -10
-17 4 -27 2 -27 -4 0 -6 5 -8 10 -5 6 4 10 -5 10 -19 0 -25 2 -26 63 -26 47
-1 58 -3 45 -11 -10 -5 -38 -8 -63 -5 -32 4 -62 -1 -107 -18 -63 -23 -183 -42
-173 -26 3 4 19 10 37 13 18 3 51 12 73 21 37 14 38 15 12 16 -19 0 -27 4 -24
13 6 17 -23 90 -40 100 -8 5 -11 16 -8 26 4 14 -7 24 -48 44 -30 14 -60 33
-67 42 -7 8 -16 15 -21 15 -5 0 -28 14 -52 31 -28 21 -41 37 -39 50 3 15 -3
19 -27 19 -17 0 -31 5 -31 10 0 6 7 10 16 10 13 0 15 7 10 30 -3 19 -2 29 4
25 6 -4 10 10 10 34 0 26 -5 43 -16 49 -15 8 -15 11 1 35 11 17 22 24 33 20
13 -5 14 -3 6 6 -6 7 -24 11 -40 9 -21 -2 -30 -9 -32 -25 -4 -29 -10 -29 -34
2 -11 14 -28 25 -38 25 -10 0 -22 5 -25 10 -5 8 -11 7 -21 -1 -7 -6 -12 -14
-10 -18 7 -11 -48 -7 -56 4 -8 9 -20 -3 -32 -30 -3 -6 -9 -3 -15 5 -9 13 -11
12 -11 -4 0 -14 -3 -17 -11 -9 -14 14 -66 -5 -72 -27 -3 -11 -18 -16 -52 -18
-27 -1 -52 -7 -57 -14 -6 -11 -11 -11 -28 0 -11 7 -20 8 -20 3 0 -5 -9 -12
-19 -16 -13 -4 -18 -12 -14 -22 5 -12 1 -14 -18 -8 -13 4 -27 12 -31 18 -4 7
-18 5 -41 -8 -34 -18 -39 -40 -16 -71 10 -13 0 -56 -12 -48 -5 3 -9 -2 -9 -10
0 -9 -8 -16 -18 -16 -10 0 -31 -13 -46 -29 l-28 -29 41 -23 c22 -12 38 -26 35
-31 -3 -5 5 -6 18 -4 187 42 169 40 162 21 -4 -8 -2 -15 3 -15 5 0 14 -15 20
-33 9 -31 8 -33 -31 -51 -44 -20 -154 -127 -148 -144 2 -6 -1 -13 -7 -16 -6
-4 -8 -13 -4 -22 3 -9 0 -14 -7 -12 -7 2 -15 -3 -17 -10 -4 -9 1 -10 21 -2 64
24 393 99 521 119 141 21 203 25 241 15 24 -6 54 -53 54 -83 0 -31 -19 -26
-31 8 -6 16 -20 32 -32 35 -65 17 -196 1 -447 -54 -134 -30 -290 -77 -290 -87
0 -3 9 -3 20 0 14 3 21 -1 26 -17 9 -30 24 -37 62 -30 27 5 31 4 26 -10 -8
-20 -4 -20 32 -1 24 12 25 15 9 15 -19 1 -19 1 -2 11 13 7 22 7 31 0 8 -6 21
-9 30 -5 9 3 16 1 16 -5 0 -6 14 -11 32 -11 25 0 29 -3 20 -12 -23 -23 -12
-27 68 -24 43 1 83 0 89 -3 16 -10 -12 -38 -45 -45 -26 -6 -30 -11 -26 -32 5
-28 22 -43 22 -20 0 12 5 14 23 7 26 -10 31 -11 58 -11 12 0 23 -8 26 -20 3
-11 12 -20 19 -20 8 0 14 -9 14 -20 0 -13 -7 -20 -20 -20 -11 0 -20 -7 -20
-15 0 -8 -9 -15 -21 -15 -11 0 -17 -4 -14 -10 3 -5 -2 -10 -12 -11 -12 -1 -10
-3 7 -8 14 -4 28 -3 31 2 4 5 20 10 37 11 25 2 29 -1 20 -11 -17 -21 -2 -27
23 -10 11 9 29 13 38 10 13 -4 13 -3 -1 7 -19 11 -26 46 -8 35 6 -4 8 -11 5
-16 -4 -5 4 -9 17 -8 13 0 18 3 11 5 -7 3 -9 12 -6 20 3 7 9 12 13 9 5 -3 11
-1 15 5 3 5 19 7 36 3 16 -3 29 -2 28 3 -1 5 -1 19 0 32 1 18 7 22 34 22 44 0
66 -14 42 -28 -17 -9 -17 -10 4 -22 l22 -11 -6 73 c-3 40 -13 106 -21 147 -16
80 -13 104 10 95 8 -3 19 -31 26 -71 8 -45 18 -71 32 -83 24 -19 32 -60 11
-60 -7 0 -13 -4 -13 -10 0 -5 7 -10 15 -10 9 0 20 -10 24 -22 7 -19 9 -16 8
17 -1 22 5 69 12 105 7 36 13 73 12 83 0 10 7 21 15 24 8 3 14 11 14 18 0 7 7
15 15 19 8 3 15 11 15 18 0 10 -2 10 -9 0 -7 -11 -9 -11 -14 1 -7 18 52 37
137 45 l58 5 -12 -24 c-12 -21 -11 -22 2 -12 12 10 15 10 16 0 1 -6 5 -29 8
-50 5 -31 4 -36 -9 -31 -8 3 -18 1 -22 -5 -3 -6 -1 -11 5 -11 7 0 9 -8 5 -20
-4 -11 -2 -20 4 -20 14 0 14 -27 0 -32 -12 -4 -1 -58 12 -58 17 0 9 -19 -9
-22 -16 -3 -17 -8 -10 -35 5 -18 15 -33 23 -33 25 0 27 -20 3 -29 -13 -5 -30
-16 -38 -26 -12 -15 -11 -16 13 -10 25 7 27 5 27 -24 0 -17 5 -31 10 -31 6 0
10 11 10 25 0 43 35 27 38 -17 1 -22 -3 -29 -23 -34 -26 -6 -32 -18 -16 -29 5
-3 12 -1 16 5 9 15 22 12 29 -7 4 -9 -4 -31 -20 -54 -14 -21 -23 -42 -20 -48
4 -5 2 -12 -4 -16 -5 -3 -10 -16 -10 -28 1 -21 1 -21 14 -4 16 21 29 8 19 -19
-4 -12 -3 -15 5 -10 14 9 14 9 3 -31 -7 -22 -6 -33 2 -37 7 -2 1 -5 -13 -5
-41 -2 -57 -17 -26 -25 17 -4 24 -11 20 -18 -5 -7 0 -9 14 -6 12 4 22 2 22 -3
0 -5 -12 -10 -27 -10 -51 -2 -56 -4 -61 -18 -3 -10 3 -12 27 -6 25 5 32 3 38
-12 3 -10 11 -21 17 -25 7 -5 7 -8 -1 -8 -7 0 -13 -5 -13 -11 0 -5 4 -8 8 -5
12 7 35 -10 38 -29 2 -13 0 -14 -12 -4 -20 17 -28 5 -14 -21 8 -16 9 -30 1
-52 -15 -41 -14 -48 4 -42 9 4 15 0 15 -10 0 -9 6 -13 15 -10 8 4 17 -1 21
-10 3 -9 16 -17 28 -17 16 -1 17 -2 4 -6 -11 -3 -18 -14 -18 -28 0 -51 -7 -54
-63 -27 -29 14 -53 29 -55 34 -2 4 -10 8 -19 8 -8 0 -45 15 -83 34 -38 18 -66
28 -64 21 3 -7 -5 -15 -17 -18 -17 -5 -20 -9 -12 -19 14 -17 22 -77 11 -84 -4
-3 -8 3 -8 13 -1 17 -1 17 -11 0 -15 -26 39 -93 71 -89 17 1 20 -2 16 -16 -5
-16 -1 -18 26 -15 18 1 27 0 21 -3 -10 -4 -10 -11 -1 -27 10 -20 12 -20 17 -4
6 17 9 16 34 -7 21 -19 34 -24 59 -20 20 3 40 0 52 -8 17 -13 17 -16 2 -30 -9
-9 -16 -21 -16 -27 0 -14 17 -14 25 -1 12 19 20 10 20 -20 0 -30 -1 -30 -41
-24 -39 6 -42 4 -47 -23 -5 -21 -1 -32 15 -45 11 -10 16 -18 11 -18 -5 0 -13
3 -17 7 -4 4 -24 6 -45 4 -48 -3 -116 17 -199 59 -51 26 -65 30 -77 20 -8 -7
-15 -9 -15 -6 0 4 -7 1 -15 -8 -8 -8 -15 -20 -15 -26 0 -6 7 -18 15 -26 21
-21 19 -34 -4 -34 -18 0 -19 -2 -6 -27 8 -15 11 -31 8 -36 -4 -6 0 -8 9 -4 11
4 18 -1 21 -14 3 -10 1 -17 -4 -13 -5 3 -9 1 -9 -5 0 -5 5 -13 10 -16 6 -4 10
-12 9 -18 -4 -36 2 -48 21 -42 14 4 20 2 20 -8 0 -8 7 -18 16 -21 10 -4 14
-14 11 -25 -3 -15 -1 -18 11 -14 9 4 13 2 9 -4 -4 -6 4 -13 18 -15 14 -3 25
-1 25 3 0 5 -5 9 -12 9 -6 0 -9 3 -5 6 11 11 46 -7 40 -22 -3 -7 -1 -14 5 -14
11 0 24 52 15 60 -3 3 -8 0 -10 -6 -4 -13 -83 3 -83 16 0 5 8 6 19 3 22 -6 39
16 21 27 -9 6 -6 10 11 16 13 4 30 7 37 5 12 -2 42 22 42 34 0 3 -17 3 -37 0
-30 -4 -33 -3 -16 4 12 6 25 22 29 36 3 14 10 25 14 25 12 0 31 -26 24 -33 -4
-3 7 -9 22 -13 16 -4 38 -15 49 -25 11 -10 36 -32 55 -48 26 -23 32 -33 23
-42 -8 -8 -20 -8 -48 1 -21 7 -40 8 -44 4 -3 -5 -15 -10 -26 -12 -20 -3 -20
-3 -1 11 13 10 15 16 8 21 -7 4 -16 4 -22 1 -6 -3 -10 -1 -10 4 0 6 -4 11 -8
11 -7 0 -9 -51 -2 -57 6 -7 5 -28 -2 -33 -4 -3 -3 -12 1 -19 7 -11 15 -9 42
10 22 15 34 19 37 11 2 -7 10 -12 17 -12 7 0 15 -7 19 -15 3 -8 12 -15 20 -15
7 0 16 -9 19 -21 3 -12 10 -18 16 -15 14 9 65 -49 56 -64 -3 -6 1 -10 9 -10 9
0 16 -5 16 -11 0 -6 -7 -9 -15 -5 -8 3 -15 1 -15 -4 0 -9 29 -15 58 -11 10 2
12 -4 7 -18 -8 -25 2 -44 18 -34 13 8 137 12 151 5 4 -2 2 -8 -5 -13 -11 -7
-8 -12 11 -26 14 -10 29 -17 33 -15 5 1 14 -11 20 -28 8 -22 17 -30 32 -28 12
2 19 -2 18 -9 -2 -7 0 -12 5 -12 4 1 15 1 25 0 25 -2 21 -21 -5 -22 -18 -1
-16 -3 10 -11 17 -6 32 -17 32 -24 0 -8 7 -14 15 -14 18 0 18 -5 5 -31 -14
-25 -40 -25 -40 1 0 15 -6 19 -24 18 -16 -2 -22 -7 -18 -16 4 -11 0 -13 -16
-7 -16 5 -22 2 -22 -9 0 -21 -16 -21 -24 0 -3 8 -10 13 -15 10 -5 -3 -14 0
-20 8 -7 8 -27 17 -45 20 -23 5 -36 13 -40 28 -3 12 -8 19 -12 15 -4 -4 -13
-2 -21 4 -7 6 -13 8 -13 5 0 -4 -9 2 -21 13 -24 22 -61 22 -87 -2 -13 -12 -21
-14 -29 -6 -8 8 -11 7 -10 -2 1 -33 -4 -50 -13 -44 -6 3 -7 -1 -4 -9 3 -9 1
-16 -5 -16 -6 0 -11 5 -11 11 0 6 -6 9 -13 6 -11 -4 -36 20 -37 36 0 4 7 7 16
7 11 0 14 5 10 16 -3 9 -6 18 -6 20 0 11 -19 2 -45 -20 -32 -28 -45 -26 -46 7
0 15 -2 17 -6 7 -8 -23 -45 -60 -59 -60 -7 0 -14 -5 -16 -11 -2 -6 -16 -12
-31 -12 -21 -2 -26 -6 -21 -21 5 -14 2 -18 -9 -13 -9 3 -18 -1 -21 -9 -3 -8
-11 -13 -18 -12 -7 2 -12 -3 -11 -9 2 -7 -2 -13 -7 -13 -6 0 -10 -8 -10 -19 0
-13 -11 -21 -42 -27 -31 -7 -42 -14 -40 -26 2 -12 -10 -18 -45 -25 l-48 -9 60
-16 c33 -9 120 -22 193 -29 73 -7 135 -16 137 -20 3 -4 20 -5 39 -2 24 3 35 0
39 -11 4 -9 13 -16 22 -16 9 0 44 -9 78 -19 34 -11 79 -22 100 -26 33 -5 37
-9 31 -27 -4 -13 -2 -18 4 -14 6 3 13 2 17 -4 3 -5 18 -10 33 -10 20 0 23 -3
13 -9 -8 -5 -21 -7 -30 -4 -10 3 -9 -2 5 -14 27 -23 41 -63 22 -63 -10 0 -10
-2 1 -9 11 -7 11 -15 3 -40 -7 -21 -8 -31 -1 -31 6 0 9 -20 8 -47 -2 -34 1
-47 10 -45 9 2 11 -6 6 -27 -3 -16 -2 -46 4 -65 5 -22 6 -38 0 -42 -5 -3 -9 4
-9 15 0 23 -18 37 -42 33 -9 -2 -19 6 -23 18 -4 11 -15 20 -26 20 -11 0 -17
-4 -14 -10 3 -6 -1 -7 -9 -4 -9 3 -14 11 -13 17 1 6 -7 13 -17 15 -11 2 -25
10 -33 17 -14 14 -79 15 -102 1 -9 -6 -12 -5 -8 1 4 6 0 16 -8 23 -17 14 -108
16 -113 1 -2 -7 -10 -6 -23 2 -16 10 -21 9 -29 -3 -9 -13 -12 -12 -25 4 -8 11
-15 16 -15 10 0 -5 -32 -9 -70 -10 -39 0 -70 4 -70 9 0 5 -7 6 -16 3 -10 -4
-25 1 -34 9 -12 11 -20 13 -25 6 -10 -17 -22 -13 -28 10 -5 17 -9 19 -26 10
-27 -15 -31 -14 -31 9 0 11 -5 20 -10 20 -6 0 -9 -5 -8 -11 2 -6 -3 -14 -9
-16 -7 -3 -13 0 -13 6 0 6 -4 11 -10 11 -5 0 -7 -7 -4 -14 5 -13 2 -13 -20 -3
-21 10 -23 13 -8 19 12 4 7 7 -15 7 -17 1 -35 -3 -38 -9 -3 -5 0 -10 8 -10 8
0 14 -7 13 -15 -1 -20 62 -46 182 -75 52 -12 106 -28 120 -35 15 -7 83 -36
152 -65 69 -28 149 -62 178 -76 29 -13 55 -24 58 -24 3 0 19 -14 37 -30 28
-27 30 -32 16 -40 -13 -8 -15 -17 -9 -45 6 -27 5 -35 -6 -35 -8 0 -14 -4 -14
-10 0 -5 -5 -10 -12 -10 -6 0 -20 -8 -31 -17 -15 -14 -21 -15 -25 -5 -3 10 -8
7 -19 -8 -9 -13 -21 -19 -32 -15 -14 4 -16 0 -13 -30 2 -20 0 -35 -6 -35 -6 0
-12 -10 -14 -22 l-3 -23 -23 25 c-12 13 -21 29 -21 34 3 25 -2 37 -12 30 -6
-3 -15 0 -20 7 -7 11 -13 9 -29 -11 -15 -20 -21 -23 -31 -12 -11 10 -10 12 4
12 9 0 17 5 17 10 0 14 -12 12 -38 -6 -27 -18 -72 -24 -90 -11 -7 6 -17 6 -25
-1 -10 -9 -35 -9 -112 1 -11 1 -24 11 -29 22 l-8 20 -8 -20 c-5 -11 -9 -15 -9
-8 -1 7 -8 10 -17 6 -13 -5 -15 -2 -10 14 4 13 2 20 -8 20 -8 0 -12 -6 -9 -15
4 -10 0 -13 -13 -10 -10 2 -18 10 -16 16 3 16 -15 15 -21 0 -4 -10 -6 -10 -6
0 -1 21 -28 42 -45 36 -9 -3 -16 -10 -16 -15 0 -12 17 -11 23 1 3 6 4 5 3 -2
-4 -21 -24 -20 -43 1 -11 13 -29 21 -50 21 -18 0 -33 5 -33 10 0 6 -17 10 -37
10 -21 0 -54 5 -74 10 -27 8 -43 7 -63 -4 l-26 -13 47 -21 c27 -11 82 -32 124
-46 168 -56 405 -157 453 -194 55 -41 79 -88 54 -106 -12 -9 -29 -39 -32 -56
-3 -18 -47 -60 -69 -66 -15 -3 -27 -10 -27 -16 0 -5 4 -7 9 -3 5 3 12 1 16 -5
6 -9 -21 -15 -52 -11 -9 1 -13 -11 -13 -35 0 -28 -3 -35 -15 -30 -8 3 -23 9
-32 13 -12 5 -15 2 -10 -10 3 -8 1 -18 -6 -21 -7 -2 -2 -8 11 -11 12 -4 22
-14 22 -22 0 -8 4 -12 9 -9 5 4 12 0 14 -6 4 -8 6 -7 6 3 1 20 49 35 64 20 8
-8 7 -11 -2 -11 -10 0 -12 -9 -7 -30 3 -19 2 -29 -4 -25 -6 3 -10 13 -10 21 0
8 -7 14 -15 14 -9 0 -12 -6 -8 -17 5 -12 2 -15 -10 -10 -10 4 -17 2 -17 -5 0
-6 -10 -19 -22 -30 -17 -14 -19 -21 -9 -31 9 -9 13 -7 17 11 6 21 23 31 25 15
0 -5 2 -17 4 -28 3 -11 -1 -24 -8 -30 -7 -5 -17 -19 -21 -30 -5 -13 -10 -16
-13 -7 -3 6 -9 9 -15 6 -6 -4 -6 -9 2 -14 15 -9 6 -40 -11 -40 -6 0 -8 7 -5
16 5 12 1 14 -15 9 -18 -6 -20 -4 -14 14 4 12 2 21 -4 21 -6 0 -11 9 -11 21 0
15 -5 19 -15 15 -8 -3 -15 -2 -15 2 0 11 24 76 34 91 8 12 1 13 -35 7 -24 -4
-48 -11 -54 -17 -12 -12 -112 -12 -120 1 -4 6 -11 8 -16 4 -5 -3 -8 0 -7 7 2
7 -5 15 -16 17 -12 3 -16 0 -11 -8 5 -9 1 -10 -15 -5 -35 11 -90 46 -90 57 0
6 -6 8 -14 5 -8 -3 -22 3 -31 13 -9 10 -27 21 -40 24 -13 3 -27 15 -30 26 -3
11 -15 20 -25 20 -11 0 -31 5 -45 12 -32 15 -38 8 -29 -36 5 -29 10 -35 24
-31 21 7 31 -14 23 -44 -6 -23 -41 -29 -60 -10 -8 8 -14 5 -23 -10 -6 -12 -8
-25 -5 -30 3 -5 -5 -7 -17 -3 -13 3 -19 1 -15 -5 4 -6 -2 -13 -13 -16 -27 -7
-16 -33 18 -46 l27 -9 -25 -3 c-14 -1 -29 -3 -35 -4 -5 -2 -14 -3 -20 -4 -5
-1 -3 -5 4 -10 15 -10 -2 -17 -65 -30 -4 0 -1 -8 7 -17 10 -13 10 -17 -2 -25
-11 -7 -11 -9 0 -9 7 0 11 -6 8 -14 -3 -8 0 -17 8 -20 19 -7 -4 -56 -25 -53
-8 1 -17 -2 -20 -8 -3 -5 9 -11 25 -13 17 -2 35 -8 40 -14 7 -7 -1 -8 -24 -3
-33 7 -33 6 -27 -19 7 -28 -8 -37 -18 -11 -4 11 -13 14 -33 9 -38 -9 -41 -13
-19 -30 18 -13 18 -14 -5 -23 -14 -5 -31 -17 -39 -27 -14 -16 -13 -17 7 -12
16 4 20 2 16 -8 -4 -10 0 -12 11 -8 20 8 21 -3 1 -23 -9 -8 -25 -13 -35 -10
-14 4 -20 0 -21 -11 0 -10 -2 -30 -3 -45 -2 -26 -1 -27 12 -10 11 16 12 12 6
-27 -7 -42 -17 -59 -38 -60 -4 0 -6 20 -4 45 3 39 1 45 -16 45 -16 0 -17 -3
-8 -12 7 -7 12 -19 11 -27 0 -11 -2 -12 -6 -3 -4 11 -33 18 -33 7 0 -3 6 -15
13 -26 10 -18 9 -23 -1 -26 -10 -4 -10 -8 -2 -19 14 -16 5 -34 -16 -34 -8 0
-12 -5 -8 -11 3 -6 16 -8 27 -5 13 3 25 -1 33 -12 17 -22 18 -56 2 -46 -9 5
-9 2 1 -9 17 -21 13 -21 -35 -1 -22 9 -36 13 -32 8 9 -8 -9 -34 -23 -34 -5 0
-9 9 -9 21 0 15 -4 19 -16 15 -9 -3 -18 -6 -20 -6 -2 0 -4 -7 -4 -15 0 -9 -10
-16 -22 -16 -22 -1 -22 -2 2 -9 57 -16 68 -23 74 -43 6 -26 -2 -37 -14 -17 -5
8 -12 11 -16 7 -7 -7 33 -47 48 -47 4 0 8 -5 8 -11 0 -8 -4 -8 -14 0 -9 8 -16
8 -20 2 -4 -6 -14 -7 -22 -4 -13 5 -15 1 -10 -15 4 -11 2 -23 -4 -27 -10 -6
-14 7 -11 34 2 7 -4 11 -11 9 -7 -3 -14 -14 -16 -26 -4 -25 -22 -30 -22 -7 0
22 -16 19 -42 -8 -32 -32 -87 -51 -94 -33 -3 9 -14 12 -27 8 -42 -11 -58 -45
-32 -64 6 -5 3 -8 -6 -8 -9 0 -27 8 -40 19 -17 14 -27 16 -39 8 -20 -12 -70
17 -70 40 0 12 -7 14 -29 10 -19 -4 -31 -2 -35 6 -3 8 -12 4 -25 -11 l-20 -23
-7 25 c-6 25 -29 41 -45 30 -5 -3 -12 1 -15 9 -3 9 -13 13 -25 10 -11 -3 -19
0 -19 7 0 8 -9 10 -25 6 -14 -4 -25 -2 -25 3 0 5 7 11 16 13 13 2 11 7 -8 28
-20 22 -23 22 -26 6 -7 -36 46 -219 69 -236 3 -3 9 -15 13 -27 4 -13 13 -29
20 -35 6 -7 27 -34 44 -61 39 -56 108 -128 177 -184 60 -49 214 -142 273 -166
125 -50 214 -77 251 -76 67 2 371 222 371 270 0 12 2 12 11 -1 8 -12 9 -12 7
5 -3 24 30 95 44 95 6 0 8 12 5 26 -3 20 0 28 14 31 11 3 19 12 19 20 0 8 -4
12 -8 9 -5 -3 -9 8 -9 25 0 19 3 25 9 17 6 -10 10 -10 18 2 13 20 12 30 -2 30
-7 0 -5 5 5 11 9 5 17 21 17 35 0 14 -4 22 -10 19 -5 -3 -10 3 -10 14 0 12 5
21 11 21 7 0 9 10 5 26 -4 14 -3 23 1 21 4 -3 8 15 9 39 0 24 -3 41 -8 38 -4
-3 -8 1 -8 10 0 8 6 17 12 19 9 4 9 6 1 6 -6 1 -9 9 -6 20 3 10 0 22 -6 25
-15 10 -14 68 2 88 27 35 289 189 301 177 3 -2 -1 -25 -9 -49 -8 -25 -24 -90
-36 -145 -27 -127 -46 -202 -64 -240 -8 -17 -16 -43 -19 -58 -5 -28 -22 -87
-33 -117 -9 -24 -12 -32 -24 -85 -6 -27 -15 -52 -18 -55 -15 -10 -19 -38 -8
-49 9 -10 7 -16 -8 -27 -11 -8 -20 -19 -20 -24 0 -4 -3 -12 -7 -16 -5 -4 -8
-17 -8 -28 0 -12 -7 -34 -15 -50 -8 -15 -15 -37 -15 -47 0 -10 -4 -20 -9 -23
-5 -4 -12 -25 -16 -49 -4 -23 -10 -46 -14 -52 -4 -5 -13 -26 -21 -45 -7 -19
-25 -60 -40 -90 -15 -30 -28 -58 -29 -62 -9 -51 -15 -68 -24 -68 -6 0 -7 -3
-4 -6 4 -4 -2 -23 -13 -43 -10 -20 -33 -81 -51 -136 -17 -55 -41 -120 -52
-144 -11 -24 -21 -54 -23 -67 -3 -35 -42 -159 -119 -382 -13 -40 -32 -83 -40
-95 -8 -12 -15 -32 -15 -44 0 -13 -4 -23 -10 -23 -5 0 -10 -6 -10 -13 0 -7
-10 -33 -22 -58 -12 -24 -23 -53 -25 -64 -2 -11 -8 -22 -13 -23 -6 -2 -10 -9
-10 -15 0 -7 -12 -34 -25 -62 -14 -27 -25 -57 -25 -65 0 -8 -6 -27 -14 -42 -8
-15 -17 -42 -21 -60 -4 -18 -11 -35 -16 -38 -5 -3 -10 -15 -12 -25 -7 -37 -31
-110 -43 -130 -7 -11 -24 -56 -39 -100 -15 -44 -32 -85 -37 -92 -5 -7 -7 -17
-3 -24 4 -6 4 -14 -1 -18 -10 -7 -44 -77 -44 -91 0 -6 -16 -45 -36 -87 -19
-43 -38 -90 -41 -105 -3 -16 -9 -28 -14 -28 -4 0 -14 -19 -20 -42 -7 -24 -16
-47 -20 -53 -20 -28 -69 -127 -69 -140 0 -8 -10 -26 -22 -41 -13 -14 -23 -29
-24 -32 -1 -13 -15 -46 -44 -107 -15 -33 -31 -70 -35 -82 -3 -13 -11 -23 -16
-23 -5 0 -9 -7 -9 -15 0 -8 -4 -15 -9 -15 -5 0 -15 -17 -22 -37 -6 -21 -16
-43 -21 -49 -16 -21 -78 -154 -78 -169 0 -8 -5 -15 -11 -15 -6 0 -9 -7 -5 -15
3 -8 1 -15 -4 -15 -6 0 -10 -9 -10 -20 0 -11 -7 -23 -15 -26 -8 -4 -13 -10
-10 -14 3 -5 1 -11 -5 -15 -6 -3 -18 -23 -27 -43 -9 -20 -19 -40 -21 -44 -2
-5 375 -8 837 -8 766 0 841 1 841 16 0 11 5 14 16 10 12 -4 14 -1 9 14 -4 12
-2 20 5 20 8 0 10 9 6 25 -4 14 -2 25 2 25 5 0 14 10 20 23 6 12 11 17 11 10
1 -7 7 -10 15 -7 10 4 11 15 5 47 -8 45 5 73 21 47 10 -15 13 5 12 65 0 11 8
25 17 32 14 11 14 14 1 23 -12 8 -10 10 10 8 18 -2 24 1 21 12 -14 56 -14 59
10 53 22 -6 23 -5 9 12 -13 16 -13 19 8 33 23 15 29 38 12 44 -15 5 7 65 38
106 13 17 20 32 14 32 -7 0 -6 9 1 25 7 14 15 25 20 25 4 0 7 8 7 18 0 10 3
22 7 26 9 8 20 65 22 114 1 6 8 12 17 12 12 0 15 6 10 25 -4 14 -2 25 4 25 5
0 10 14 10 31 0 26 3 29 20 24 11 -4 20 -2 20 4 0 6 -4 11 -10 11 -5 0 -10 5
-10 10 0 6 7 10 16 10 14 0 14 3 4 15 -10 12 -9 15 6 16 11 0 14 3 7 6 -18 7
-16 33 2 33 13 0 14 4 4 21 -8 16 -8 23 0 29 7 3 9 14 5 23 -3 9 1 26 9 38 9
12 13 28 10 35 -3 8 -1 14 5 14 6 0 13 14 17 30 4 18 11 27 17 24 7 -5 8 -2 4
5 -5 7 2 35 14 63 12 27 23 60 24 71 1 12 10 38 19 58 8 19 19 48 22 65 7 31
21 76 35 109 30 72 70 195 70 216 0 14 6 31 12 37 10 10 10 15 -2 22 -13 9
-13 10 0 10 20 0 41 65 26 81 -8 9 -7 10 6 6 12 -4 15 -2 11 9 -3 7 -1 14 5
14 5 0 7 11 4 25 -3 17 1 27 12 31 10 4 16 18 16 35 0 30 14 39 23 15 3 -8 1
-17 -6 -19 -9 -3 -9 -8 1 -18 10 -11 12 -11 12 2 1 11 2 11 10 -2 14 -23 54
-17 58 9 2 12 8 22 14 22 6 0 9 18 6 45 -2 25 1 46 7 49 6 2 12 20 13 41 2 20
9 44 17 52 8 8 15 27 15 42 0 15 6 33 13 40 7 9 7 11 1 8 -7 -4 -15 0 -18 9
-5 13 -1 15 19 12 14 -3 25 -1 25 3 0 5 -6 9 -12 9 -9 0 -8 4 2 10 13 8 12 10
-4 10 -18 0 -18 1 3 24 12 13 23 38 24 58 1 20 9 43 17 53 8 10 15 37 15 62 0
26 6 47 14 52 10 7 11 13 2 29 -15 28 -4 57 15 41 11 -9 14 -8 14 4 0 8 3 24
6 34 6 15 4 16 -7 6 -21 -20 -25 -16 -25 24 0 20 -5 38 -11 40 -8 3 -6 11 5
23 12 15 18 16 24 7 5 -8 8 -5 8 9 0 11 5 25 11 31 7 7 8 17 1 30 -6 10 -7 25
-2 33 4 8 13 40 20 70 7 30 17 60 22 66 7 10 40 158 35 159 -1 0 -31 15 -67
32 -36 17 -111 52 -168 77 -56 25 -110 50 -120 55 -9 4 -46 22 -82 39 -36 17
-144 68 -240 115 -96 46 -204 97 -240 113 -149 67 -225 110 -229 129 -3 17 -1
18 14 5 15 -12 19 -12 29 1 13 18 62 38 52 21 -3 -6 -1 -14 5 -17 6 -4 13 2
16 13 5 22 29 36 44 26 5 -3 7 -9 4 -14 -3 -5 0 -12 6 -16 7 -4 9 -3 6 3 -4 6
0 14 9 17 13 5 14 9 4 21 -8 10 -9 15 -2 15 6 0 13 -4 16 -9 6 -9 56 -3 56 8
0 3 -19 14 -42 24 -37 15 -43 15 -51 2 -9 -17 -37 -21 -37 -5 0 6 10 15 23 21
23 10 86 -12 267 -93 25 -11 104 -46 175 -78 166 -73 424 -190 533 -241 46
-21 88 -39 93 -39 4 0 13 19 20 43 6 23 19 60 29 82 10 22 21 62 25 89 4 27
13 59 22 72 8 12 15 40 16 61 1 21 5 40 8 43 7 5 69 214 95 315 20 80 45 145
55 145 5 0 9 9 9 21 0 18 25 74 40 89 10 10 28 69 22 74 -8 9 -9 80 0 97 5 11
2 21 -7 29 -12 10 -12 16 -3 34 15 25 15 27 17 67 1 26 4 29 21 24 17 -5 20
-2 20 24 0 21 5 31 15 31 8 0 15 7 15 16 0 10 6 14 15 10 10 -4 15 1 15 14 0
13 7 20 20 20 11 0 23 7 27 16 3 8 12 13 19 10 20 -8 17 14 -3 30 -17 13 -17
13 1 14 14 0 17 6 14 25 -4 17 -1 25 8 25 23 0 16 18 -8 23 -22 4 -22 4 -2 6
17 1 20 6 16 26 -3 18 0 25 12 25 21 0 20 9 -1 27 -17 14 -17 14 -1 9 12 -4
29 8 55 39 28 33 42 43 56 39 15 -5 18 -2 13 13 -6 19 -3 22 73 58 30 14 41
26 41 42 0 13 4 22 9 21 9 -3 24 9 77 61 13 14 24 18 24 11 0 -10 3 -10 15 0
8 7 15 19 15 26 0 8 10 14 24 14 16 0 27 7 31 20 3 11 12 20 20 20 7 0 16 7
19 16 3 8 10 12 16 9 5 -3 10 -2 10 4 0 5 -6 12 -12 14 -7 3 0 6 15 6 20 1 31
7 34 20 3 11 13 21 24 24 11 3 19 14 19 26 0 16 6 21 29 21 17 0 31 6 35 16 3
9 13 14 21 10 8 -3 17 -1 20 4 3 5 12 7 20 4 24 -10 36 5 22 26 -6 11 -15 20
-19 20 -4 0 -18 10 -31 22 -13 13 -53 48 -87 78 -35 30 -98 91 -139 134 -85
89 -198 198 -251 243 -50 43 -205 159 -221 167 -15 7 17 0 51 -10 16 -5 22 0
31 25 6 17 18 31 26 31 8 0 11 5 8 11 -4 6 2 17 14 25 12 9 19 19 16 24 -10
17 6 38 26 33 10 -3 19 -1 19 3 0 5 12 22 26 39 21 25 27 27 35 15 8 -12 10
-10 6 8 -4 16 -1 22 11 22 15 0 15 2 2 10 -8 5 -12 10 -10 12 3 2 21 12 40 22
19 11 38 24 42 30 5 7 8 6 8 -3 0 -9 6 -6 18 7 9 12 34 30 55 41 20 12 54 31
75 43 20 12 51 28 67 36 17 8 41 23 55 32 14 9 48 30 75 45 59 32 148 83 263
151 46 27 91 54 101 59 35 21 156 109 159 117 2 4 8 8 14 8 16 0 157 138 208
203 21 28 29 49 28 73 -1 19 -4 30 -8 24 -4 -6 -14 -8 -22 -5 -12 5 -17 -4
-22 -40 -4 -26 -14 -49 -22 -52 -8 -3 -14 -16 -14 -30 0 -15 -5 -23 -12 -20
-8 2 -12 20 -11 46 1 30 -4 48 -18 62 -10 10 -19 28 -19 39 0 11 -4 20 -10 20
-5 0 -10 -4 -10 -9 0 -5 -15 -11 -32 -13 -18 -3 -42 -9 -52 -13 -15 -7 -18 -5
-13 8 3 8 -1 21 -9 27 -17 15 -18 37 -1 43 9 3 9 9 -1 27 -11 18 -11 24 -2 30
17 10 3 31 -15 23 -18 -6 -19 6 -1 30 7 9 20 16 27 14 8 -2 11 -2 7 0 -13 8
-9 23 5 17 8 -3 13 3 13 16 0 13 -5 19 -13 16 -9 -4 -13 4 -13 24 0 20 -5 30
-15 30 -8 0 -15 -4 -15 -10 0 -5 -7 -10 -15 -10 -18 0 -19 12 -4 27 8 8 7 20
-4 42 -12 24 -13 39 -6 60 6 15 9 32 8 37 -2 5 3 27 9 49 6 22 14 79 18 128 4
48 8 87 10 87 1 0 24 -9 51 -21 118 -51 385 -137 524 -170 79 -18 92 -25 102
-48 12 -27 47 -39 47 -16 0 8 -8 16 -17 18 -17 4 -17 5 0 6 26 2 32 -27 11
-50 -15 -17 -16 -24 -6 -40 10 -16 10 -19 -3 -19 -8 0 -15 -7 -15 -15 0 -7 -8
-19 -17 -25 -15 -9 -11 -10 17 -6 31 5 33 4 18 -8 -10 -7 -18 -18 -18 -24 0
-6 8 -13 18 -15 9 -3 0 -5 -22 -6 -42 -1 -158 24 -329 71 -60 16 -111 27 -114
25 -10 -11 51 -41 76 -39 29 3 218 -58 446 -143 83 -31 162 -56 178 -56 15 0
27 -4 27 -9 0 -5 15 -14 33 -19 17 -6 69 -24 115 -41 46 -16 92 -30 103 -30
20 0 26 -15 10 -24 -9 -6 -190 47 -224 65 -19 10 -41 3 -32 -11 3 -5 1 -11 -5
-15 -16 -10 -12 -25 8 -26 10 0 12 -3 5 -6 -18 -7 -16 -23 2 -23 8 0 15 7 15
15 0 19 14 19 29 1 14 -17 3 -49 -15 -42 -7 3 -15 -3 -17 -12 -3 -12 -5 -11
-6 6 -1 16 -7 22 -24 22 -13 0 -29 6 -36 13 -10 10 -11 9 -6 -5 4 -10 17 -18
31 -18 13 0 24 -5 24 -11 0 -7 -9 -9 -22 -5 -13 4 -27 8 -33 9 -45 11 -143 52
-139 59 3 4 21 1 40 -7 18 -7 34 -10 34 -4 0 5 -7 9 -15 9 -8 0 -15 5 -15 11
0 5 5 7 12 3 7 -4 8 -3 4 4 -4 7 -2 12 3 12 6 0 11 4 11 8 0 5 -7 9 -14 9 -8
0 -14 -5 -13 -10 5 -22 -21 -15 -40 12 -21 28 -21 29 -3 49 19 20 18 20 -3 28
-12 4 -29 8 -37 9 -8 1 -31 9 -50 17 -19 9 -46 19 -60 22 l-25 7 23 -20 23
-20 -28 -6 c-15 -4 -35 -9 -43 -13 -27 -10 -60 -11 -60 -1 0 5 5 9 11 9 5 0 7
5 4 10 -3 6 -2 10 4 10 5 0 11 -5 13 -12 5 -13 38 -4 38 11 0 14 -21 19 -56
14 -27 -4 -31 -8 -26 -26 5 -20 3 -20 -23 5 -23 23 -27 34 -22 62 5 30 3 35
-19 39 -16 3 -24 0 -24 -10 0 -8 -6 -13 -12 -11 -7 3 -13 11 -13 19 0 14 -28
30 -76 43 -24 7 -24 7 -4 -11 34 -30 72 -86 80 -118 8 -33 9 -47 25 -290 6
-93 15 -188 20 -210 5 -22 10 -58 10 -80 0 -36 8 -49 80 -127 72 -78 87 -89
145 -108 74 -25 147 -75 196 -137 19 -22 66 -60 104 -82 115 -68 314 -192 405
-252 158 -104 223 -140 289 -161 127 -39 168 -72 215 -168 29 -62 42 -72 169
-124 67 -28 101 -36 147 -36 l60 0 0 1891 c0 1769 -1 1891 -17 1878 -40 -33
-97 -86 -233 -218 -80 -78 -148 -141 -153 -141 -4 0 -11 10 -16 23 -14 35
-110 146 -142 162 -48 25 -56 16 -16 -19 20 -19 37 -39 37 -45 0 -6 4 -11 10
-11 12 0 60 -48 60 -60 0 -6 4 -10 9 -10 15 0 61 -105 67 -153 9 -63 -11 -68
-26 -7 -11 44 -15 49 -34 44 -18 -4 -23 1 -31 28 -6 18 -15 33 -22 33 -6 0
-21 10 -33 23 -11 12 -23 22 -25 22 -2 0 7 -24 21 -53 28 -63 39 -129 30 -189
-6 -37 -12 -47 -41 -62 -32 -18 -40 -18 -93 -5 -31 7 -65 13 -74 11 -12 -1
-15 3 -11 16 5 14 4 15 -8 6 -17 -14 -105 -4 -102 11 1 6 -9 9 -23 8 -15 -1
-24 4 -24 13 0 8 -4 14 -9 14 -5 0 -11 8 -14 18 -3 13 -6 11 -15 -10 -11 -27
-42 -39 -42 -17 0 6 -9 8 -20 4 -11 -3 -20 -2 -20 3 0 5 -7 9 -15 9 -21 0 -19
-15 3 -21 9 -2 85 -25 167 -50 83 -25 168 -48 190 -52 47 -7 107 -34 112 -50
3 -8 -15 -10 -62 -7 -36 3 -65 3 -65 -1 0 -4 12 -18 28 -32 l27 -26 -38 6
c-22 3 -35 1 -32 -5 4 -5 -6 -10 -22 -10 -15 -1 -32 -2 -38 -4 -5 -1 -14 -3
-19 -3 -6 -1 -1 -9 10 -17 28 -21 1 -20 -82 6 -93 27 -124 40 -124 50 0 5 11
4 25 -1 21 -8 25 -7 25 8 0 15 -7 18 -35 16 -29 -3 -39 2 -61 31 -16 21 -24
43 -21 55 3 10 0 21 -7 23 -6 3 0 9 14 15 l25 11 -27 0 c-16 1 -28 5 -28 10 0
5 -12 11 -27 14 -56 11 -88 19 -103 23 -19 7 -25 6 -25 -3 0 -5 -4 -14 -9 -21
-7 -11 -4 -12 12 -3 29 15 40 14 17 -2 -10 -8 -15 -19 -11 -25 4 -6 -10 -13
-36 -18 -35 -5 -39 -8 -23 -15 19 -7 19 -8 -2 -8 -12 -1 -24 -7 -27 -13 -3 -7
-3 -1 0 14 6 26 5 26 -45 25 -28 -1 -51 -6 -51 -11 0 -4 -8 -6 -17 -3 -10 3
-52 15 -94 26 -43 11 -139 41 -215 65 -77 24 -185 58 -241 75 l-103 31 2 43
c1 23 -2 66 -6 95 -6 40 -5 52 5 52 8 0 90 -25 184 -55 180 -57 410 -125 426
-125 5 0 9 7 9 14 0 12 6 13 30 5 17 -6 30 -17 30 -25 0 -8 10 -18 23 -23 26
-10 35 -5 19 11 -14 14 -16 48 -4 48 5 0 33 30 62 66 49 60 56 65 84 61 17 -3
38 1 46 7 8 7 56 25 105 40 50 16 97 35 106 42 8 8 23 14 33 14 38 0 3 18 -46
23 -29 4 -54 11 -56 17 -2 6 -8 7 -14 4 -5 -4 -20 -2 -31 4 -12 5 -40 15 -62
21 -63 17 -208 61 -225 68 -24 10 -32 12 -76 21 -22 5 -46 12 -52 16 -6 4 -44
16 -84 27 -40 11 -89 25 -108 30 -19 5 -42 11 -51 13 -8 2 -65 18 -125 35
-260 73 -266 76 -289 136 -9 26 -13 50 -9 55 11 10 44 15 64 8 50 -17 117 -38
495 -151 83 -25 184 -51 225 -57 76 -13 168 -42 206 -67 11 -7 79 -31 150 -52
161 -49 255 -82 317 -110 27 -12 51 -20 54 -17 7 7 -41 36 -84 51 -21 7 -39
17 -41 23 -1 5 41 28 95 51 174 74 160 61 210 191 25 63 51 129 58 145 7 17
31 83 54 148 22 65 46 128 53 140 31 59 139 367 144 412 3 27 12 75 19 105 8
30 16 111 19 178 3 68 10 130 16 136 5 7 7 16 3 19 -3 4 1 7 10 7 19 0 26 -21
27 -75 0 -71 1 -74 22 -62 17 11 18 49 18 884 l0 873 -304 0 c-234 0 -305 -3
-309 -12 -4 -10 -6 -10 -6 0 -1 9 -32 12 -120 12 l-118 0 -7 -48 c-3 -27 -13
-57 -21 -68 -13 -17 -14 -14 -8 31 3 28 10 54 14 59 18 20 8 26 -45 26 -44 0
-55 -4 -59 -17 -4 -17 -5 -17 -6 0 -1 16 -84 17 -1586 17 -1263 0 -1583 -3
-1580 -12 7 -17 53 -38 82 -38 13 0 23 -4 23 -10 0 -5 -5 -10 -11 -10 -27 0 6
-20 34 -21 30 0 31 -1 10 -11 -32 -15 -29 -28 6 -28 35 0 62 -27 40 -41 -11
-7 -9 -9 9 -9 12 0 22 -5 22 -11 0 -5 6 -7 13 -3 6 4 9 3 4 -1 -13 -15 -101
-14 -124 1 -22 14 -143 20 -143 8 0 -4 8 -13 18 -20 16 -13 16 -13 -1 -14 -28
0 -9 -20 19 -20 15 0 24 -6 24 -15 0 -8 7 -15 16 -15 9 0 12 5 8 11 -4 7 -1
10 7 7 8 -2 18 -14 24 -26 11 -24 30 -31 21 -7 -3 8 -1 15 3 15 11 0 23 -29
16 -40 -8 -12 -105 -10 -105 2 0 6 -10 8 -21 5 -12 -3 -46 -1 -76 5 -60 12
-76 6 -47 -18 18 -15 18 -15 0 -10 -10 4 -24 2 -30 -3 -6 -4 -28 -14 -48 -20
-21 -7 -38 -16 -38 -21 0 -4 -49 -11 -109 -15 -59 -4 -114 -11 -122 -16 -10
-6 -4 -9 19 -9 64 0 30 -18 -65 -35 -54 -9 -115 -23 -135 -31 -51 -19 -61 2
-11 22 21 8 47 19 58 25 17 8 17 9 -5 3 -14 -3 -53 -13 -87 -21 -35 -8 -63
-19 -63 -24 0 -5 -13 -9 -28 -9 -15 0 -33 -5 -38 -10 -6 -6 -18 -8 -28 -4 -16
6 -15 8 4 29 l21 22 -34 -2 c-18 -2 -49 -12 -68 -24 -19 -12 -42 -21 -52 -21
-14 0 -17 -5 -12 -21 6 -18 4 -20 -14 -14 -12 4 -30 0 -43 -9 -12 -9 -31 -16
-42 -16 -17 0 -15 4 12 28 38 34 40 43 10 39 -14 -1 -22 3 -21 10 2 7 -6 17
-17 23 -17 9 -20 8 -20 -10 0 -18 -3 -19 -22 -9 -14 8 -18 14 -10 17 21 7 13
20 -18 27 -37 8 -31 23 7 18 18 -2 37 4 53 18 14 11 19 18 13 14 -19 -9 -16 6
5 21 15 12 15 12 -5 7 -13 -3 -23 -9 -23 -14 0 -5 -7 -9 -15 -9 -8 0 -15 -4
-15 -10 0 -5 -7 -7 -15 -3 -9 3 -25 -3 -36 -13 -11 -10 -29 -18 -41 -19 -12
-1 -24 -7 -26 -13 -2 -7 -12 -12 -22 -12 -10 0 -22 -5 -25 -11 -4 -6 -27 -9
-52 -8 -24 2 -47 -2 -51 -8 -9 -14 -111 0 -122 17 -4 7 -13 9 -19 6 -21 -13
-11 13 11 28 27 19 58 21 59 4 0 -7 5 -1 11 15 5 15 16 27 24 27 8 0 14 5 14
11 0 5 4 7 10 4 5 -3 12 6 16 20 3 14 10 25 16 25 5 0 7 4 3 9 -8 14 30 32 50
25 9 -4 24 1 34 10 10 9 22 16 27 14 5 -1 25 7 44 17 33 19 45 43 27 56 -5 3
14 6 42 5 28 -1 51 -5 51 -9 0 -5 7 -1 16 8 11 10 19 13 23 6 8 -13 25 -2 34
22 6 15 4 16 -13 7 -10 -5 -25 -10 -32 -10 -18 0 63 49 82 50 8 0 28 7 43 15
28 14 96 32 212 55 33 6 71 15 85 18 14 4 -265 8 -619 10 -509 2 -646 0 -653
-10 -6 -10 -11 -11 -28 -1 -17 12 -20 10 -26 -13 -5 -18 0 -32 17 -50 l22 -24
-24 0 c-21 -1 -22 -2 -6 -11 9 -5 17 -21 17 -34 0 -13 6 -26 13 -28 9 -4 8 -8
-3 -16 -13 -10 -13 -12 0 -22 11 -8 3 -9 -32 -4 -45 6 -64 -4 -37 -20 17 -11
28 -49 17 -62 -7 -9 -7 -13 1 -13 7 0 9 -5 6 -10 -4 -6 -12 -10 -18 -9 -28 3
-48 -2 -42 -11 4 -6 11 -8 16 -5 5 4 9 1 9 -4 0 -6 9 -11 21 -11 11 0 17 -4
14 -10 -3 -5 1 -10 9 -10 37 0 44 -79 8 -81 -11 0 -12 -3 -4 -6 21 -8 13 -18
-25 -32 -27 -10 -38 -11 -41 -2 -4 13 -22 5 -22 -10 0 -5 16 -19 35 -30 41
-24 45 -50 11 -68 -20 -11 -28 -10 -50 4 -14 10 -26 13 -26 9 0 -5 18 -18 41
-28 48 -24 56 -37 53 -96 -3 -58 -3 -58 -14 -40 -8 13 -10 13 -10 -2 0 -9 5
-18 12 -20 8 -3 7 -11 -5 -28 -15 -22 -15 -24 5 -45 23 -24 32 -55 17 -55 -5
0 -9 -6 -9 -14 0 -8 -3 -16 -8 -18 -4 -1 -17 -19 -30 -38 -12 -19 -22 -29 -22
-22 0 6 -7 12 -15 12 -9 0 -12 -6 -9 -15 4 -10 0 -15 -12 -16 -11 0 -3 -8 21
-18 22 -10 45 -16 51 -14 19 7 25 -40 7 -59 -23 -26 -38 -22 -67 15 -14 17
-26 27 -26 21 0 -6 7 -17 15 -24 8 -7 12 -16 9 -21 -3 -5 0 -9 5 -9 6 0 11 -5
11 -11 0 -6 -7 -8 -15 -5 -52 21 -50 21 -35 4 8 -9 18 -14 23 -11 4 2 7 -2 7
-9 0 -8 9 -14 19 -14 11 0 17 4 15 8 -3 4 -1 8 4 8 9 0 21 -31 22 -52 0 -5
-11 -8 -25 -8 -21 0 -25 -5 -25 -31 0 -26 -3 -29 -20 -24 -24 8 -27 -10 -3
-19 15 -6 15 -8 3 -16 -12 -7 -12 -12 -2 -22 18 -18 15 -28 -11 -28 -12 0 -30
9 -40 20 -16 19 -19 19 -33 5 -20 -19 -41 -20 -25 -1 10 12 9 20 -3 39 -22 32
-28 123 -10 138 8 6 14 20 14 30 0 11 4 19 8 19 4 0 8 9 8 20 0 11 -4 20 -8
20 -4 0 -8 7 -8 15 0 8 -6 15 -13 15 -9 0 -12 10 -9 30 4 26 8 29 29 25 14 -2
31 -9 39 -16 11 -9 14 -9 14 1 0 6 -9 14 -20 17 -11 3 -20 9 -20 14 0 5 -7 9
-15 9 -17 0 -19 9 -6 28 5 8 17 11 33 7 22 -6 26 -3 31 22 3 15 1 31 -5 34 -6
4 -7 16 -2 30 4 13 7 34 5 46 -1 12 5 33 15 47 9 14 12 26 6 26 -6 0 -13 -6
-15 -12 -4 -8 -6 -7 -6 4 -1 9 -4 23 -7 32 -4 10 2 19 19 27 25 11 28 23 13
48 -6 9 -5 12 2 7 6 -3 13 -2 16 3 4 5 1 13 -5 16 -16 11 -28 49 -18 61 14 18
21 104 8 104 -6 0 -9 7 -5 15 3 8 -2 19 -12 24 -16 10 -16 10 2 11 12 0 16 5
12 15 -3 10 1 18 11 22 9 4 19 1 21 -5 5 -17 22 -15 22 3 0 8 -6 15 -14 15 -8
0 -24 16 -36 35 -21 35 -40 46 -40 24 0 -20 -27 9 -34 36 -3 13 -17 35 -31 49
-30 30 -32 56 -6 56 29 0 35 41 9 63 -16 13 -18 21 -10 29 23 23 13 38 -23 38
l-35 0 0 -69z m5497 -3 c-3 -7 -5 -2 -5 12 0 14 2 19 5 13 2 -7 2 -19 0 -25z
m504 -143 c5 4 6 -1 3 -9 -4 -10 -1 -16 7 -16 7 0 9 -3 6 -7 -4 -3 -2 -12 4
-20 6 -7 8 -13 3 -13 -11 0 -44 57 -43 73 0 8 2 8 6 -1 2 -6 9 -10 14 -7z
m-3401 -30 c0 -8 -5 -15 -11 -15 -5 0 -7 -4 -4 -10 3 -5 -1 -10 -10 -10 -9 0
-13 5 -10 10 3 6 -1 10 -9 10 -8 0 -18 4 -21 10 -3 5 0 7 8 4 8 -3 18 -1 22 5
9 16 35 13 35 -4z m143 -81 c4 -8 15 -14 22 -14 8 0 15 -4 15 -10 0 -5 -6 -10
-14 -10 -8 0 -18 5 -21 10 -3 6 -16 10 -27 10 -24 0 -58 27 -58 46 0 16 71
-11 83 -32z m-218 26 c3 -5 2 -10 -4 -10 -5 0 -13 5 -16 10 -3 6 -2 10 4 10 5
0 13 -4 16 -10z m3536 -28 c7 -35 -9 -46 -18 -12 -3 11 -9 20 -14 20 -5 0 -9
7 -9 16 0 29 34 10 41 -24z m-3551 -2 c0 -5 -12 -10 -27 -9 -25 0 -26 1 -8 9
27 12 35 12 35 0z m103 -24 c10 -8 15 -16 10 -18 -12 -7 -85 17 -77 25 12 11
47 8 67 -7z m-242 -6 c40 0 17 -15 -29 -18 -26 -2 -65 -8 -87 -14 -22 -6 -56
-10 -75 -10 -32 0 -33 0 -12 -11 13 -6 21 -16 18 -24 -4 -10 1 -12 19 -7 15 4
25 2 25 -5 0 -12 -18 -17 -124 -30 -44 -5 -82 -15 -87 -22 -11 -19 -7 -20 30
-9 18 5 42 5 54 1 12 -5 27 -9 32 -10 6 0 10 -7 10 -13 0 -18 27 -27 46 -17
10 5 21 2 32 -12 24 -27 21 -31 -17 -24 -25 5 -35 3 -39 -9 -5 -12 0 -16 20
-16 17 0 24 -3 17 -10 -6 -6 -43 -6 -104 1 -52 5 -115 7 -140 4 -62 -9 -231
-42 -252 -50 -11 -4 -18 -3 -18 4 0 6 7 12 15 12 19 2 25 4 48 13 26 12 20 29
-8 24 -14 -3 -28 -2 -30 3 -8 11 112 66 162 74 24 4 46 11 49 17 5 7 -6 8 -32
3 -21 -4 -50 -9 -64 -10 -36 -3 -77 -14 -138 -36 -62 -22 -72 -23 -72 -6 0 6
21 21 48 31 26 10 58 29 72 41 16 14 50 26 95 34 85 14 87 15 100 22 6 4 44
14 85 23 41 9 90 21 108 27 29 9 53 13 150 23 18 2 36 6 39 10 4 4 13 4 21 1
7 -3 22 -5 33 -5z m-2265 -16 c20 -5 52 -74 34 -74 -4 0 -7 -19 -6 -42 1 -47
-19 -82 -34 -58 -5 8 -7 17 -4 21 2 4 8 29 13 55 8 40 6 50 -7 61 -10 7 -23
13 -30 13 -7 0 -20 7 -28 15 -14 13 -12 15 13 15 15 0 37 -3 49 -6z m6004 -26
c0 -16 3 -18 13 -10 16 14 57 4 57 -13 0 -8 -8 -21 -17 -30 -16 -16 -17 -16
-25 4 -10 28 -31 27 -24 -1 3 -13 -1 -8 -9 10 -9 18 -13 37 -10 42 3 5 -4 7
-15 5 -11 -2 -20 0 -20 4 0 5 11 9 25 9 18 0 25 -6 25 -20z m-3795 -18 c3 -5
30 -10 60 -10 30 0 57 -4 60 -10 4 -6 -25 -10 -81 -10 -73 0 -85 2 -75 14 9
11 9 15 -1 19 -7 3 -3 6 9 6 12 1 25 -3 28 -9z m308 -44 c16 -12 14 -14 -20
-18 -43 -6 -67 1 -70 20 -4 17 67 15 90 -2z m-1848 -10 c22 9 27 -14 6 -25
-24 -13 -53 -15 -33 -3 7 5 11 15 9 23 -2 8 -2 11 0 7 2 -4 10 -5 18 -2z
m1625 -16 c0 -5 -7 -7 -15 -4 -8 4 -15 8 -15 10 0 2 7 4 15 4 8 0 15 -4 15
-10z m-965 -47 c-5 -12 -9 -14 -12 -5 -3 6 -16 12 -31 12 -29 0 -20 15 13 22
27 6 39 -6 30 -29z m52 10 c-8 -7 -37 9 -31 19 3 5 12 4 20 -3 8 -6 13 -14 11
-16z m1493 17 c0 -5 -9 -10 -21 -10 -11 0 -17 5 -14 10 3 6 13 10 21 10 8 0
14 -4 14 -10z m-637 -17 c-7 -2 -21 -2 -30 0 -10 3 -4 5 12 5 17 0 24 -2 18
-5z m-1479 -9 c18 -7 12 -24 -10 -24 -8 0 -14 7 -14 15 0 17 2 18 24 9z m4513
-16 c-3 -8 -6 -5 -6 6 -1 11 2 17 5 13 3 -3 4 -12 1 -19z m996 16 c7 -7 -29
-44 -43 -44 -14 0 -13 23 2 38 13 13 31 16 41 6z m-3633 -34 l20 -20 -30 0
c-32 0 -33 1 -24 24 8 20 10 20 34 -4z m-60 0 c12 -8 9 -10 -13 -10 -16 0 -26
4 -22 10 8 12 16 12 35 0z m3070 -47 c-11 -17 -11 -17 -6 0 3 10 7 26 7 35 1
15 2 15 6 0 2 -10 -1 -25 -7 -35z m-5640 7 c0 -10 -3 -31 -6 -48 -6 -28 -8
-29 -21 -16 -14 13 -13 17 3 30 14 11 15 17 7 20 -19 8 -17 45 2 38 8 -4 15
-14 15 -24z m2370 8 c0 -13 -32 -6 -37 9 -3 7 3 9 16 6 12 -3 21 -10 21 -15z
m-1247 -9 c21 -6 53 -7 70 -4 21 4 27 3 19 -3 -10 -7 -5 -11 20 -17 l33 -7
-30 -9 c-16 -5 -50 -5 -75 -1 -25 5 -59 4 -75 -1 -17 -4 -43 -10 -60 -13 -16
-2 -38 -7 -47 -10 -10 -3 -18 -1 -18 4 0 5 10 13 23 17 12 4 25 8 30 10 4 1 9
3 12 4 7 1 -18 29 -25 28 -3 0 -12 2 -20 6 -8 3 -22 8 -30 11 -24 10 131 -4
173 -15z m467 -4 c0 -2 -9 -9 -20 -15 -12 -6 -20 -7 -20 -1 0 5 8 12 18 14 9
3 18 5 20 6 1 0 2 -1 2 -4z m-1613 -21 c-3 -3 -12 -4 -19 -1 -8 3 -5 6 6 6 11
1 17 -2 13 -5z m6196 -16 c7 -25 0 -41 -14 -33 -12 8 -12 55 0 55 5 0 11 -10
14 -22z m-3363 -8 c0 -5 -5 -10 -11 -10 -5 0 -7 5 -4 10 3 6 8 10 11 10 2 0 4
-4 4 -10z m3510 -7 c0 -5 -7 -17 -15 -27 -12 -16 -18 -17 -28 -7 -10 10 -8 15
7 27 22 15 36 18 36 7z m-4261 -22 c9 -6 -6 -10 -47 -13 -57 -3 -70 0 -57 13
9 9 90 9 104 0z m3175 -16 c-4 -8 -8 -15 -10 -15 -2 0 -4 7 -4 15 0 8 4 15 10
15 5 0 7 -7 4 -15z m-5248 -11 c-4 -12 -2 -15 9 -10 17 6 21 -9 5 -19 -6 -4
-8 -10 -5 -15 3 -4 2 -15 -1 -24 -5 -13 -9 -14 -20 -5 -22 18 -15 89 8 89 6 0
7 -7 4 -16z m2129 -6 c4 -4 -14 -10 -40 -13 -46 -7 -62 -4 -52 12 6 9 83 10
92 1z m149 -7 c4 -5 -3 -7 -14 -4 -23 6 -26 13 -6 13 8 0 17 -4 20 -9z m-35
-31 c-15 -10 -41 -1 -34 10 3 5 14 6 26 3 15 -4 17 -8 8 -13z m2982 -32 c-3
-21 -6 -26 -9 -15 -3 17 3 47 11 47 2 0 1 -15 -2 -32z m-3163 1 c-15 -4 -47
-4 -70 -1 l-43 7 45 5 c25 3 56 3 70 1 l25 -4 -27 -8z m-2065 -68 c3 -13 1
-18 -9 -14 -7 2 -10 11 -7 19 7 19 10 18 16 -5z m-13 -41 c0 -5 -5 -10 -11
-10 -5 0 -7 5 -4 10 3 6 8 10 11 10 2 0 4 -4 4 -10z m2228 -65 c-3 -3 -9 2
-12 12 -6 14 -5 15 5 6 7 -7 10 -15 7 -18z m347 -84 c3 -5 1 -12 -4 -15 -5 -3
-11 1 -15 9 -6 16 9 21 19 6z m-41 -55 c30 -12 37 -20 34 -38 -2 -18 1 -23 19
-21 16 2 21 -3 20 -17 -1 -23 -8 -25 -26 -7 -11 10 -13 9 -8 -5 4 -13 2 -15
-10 -11 -11 4 -14 2 -9 -5 4 -7 2 -12 -3 -12 -14 0 -14 13 1 28 9 9 7 12 -11
12 -12 0 -19 -4 -16 -10 3 -5 0 -10 -9 -10 -8 0 -16 6 -19 13 -3 9 -7 9 -17 0
-8 -7 -16 -8 -24 -2 -6 5 -20 16 -30 23 -18 12 -17 13 11 11 16 -1 35 -5 41
-9 7 -4 12 -3 12 3 0 6 -9 15 -20 21 -23 12 -25 31 -9 62 10 19 13 20 23 6 7
-9 29 -23 50 -32z m-97 -8 c-3 -7 -5 -2 -5 12 0 14 2 19 5 13 2 -7 2 -19 0
-25z m3327 11 c-4 -8 1 -9 16 -4 21 7 22 5 17 -35 -4 -40 -3 -41 22 -38 15 2
25 -2 24 -9 -1 -6 9 -14 22 -17 27 -7 65 -35 65 -49 0 -4 -4 -5 -10 -2 -5 3
-10 1 -10 -4 0 -6 15 -11 33 -11 30 -1 31 -1 13 -15 -18 -13 -15 -20 7 -16 19
3 4 -21 -19 -29 -30 -12 -27 -34 4 -38 12 -2 22 -10 22 -18 0 -8 7 -14 15 -14
11 0 13 -7 9 -29 -6 -28 15 -58 24 -33 6 19 62 -7 62 -29 0 -10 5 -19 10 -19
6 0 10 5 10 10 0 6 7 10 15 10 8 0 15 7 15 15 0 10 10 15 34 15 36 0 36 0 65
-91 27 -84 5 -410 -35 -512 -20 -53 -18 -77 6 -77 11 0 20 -6 20 -14 0 -13
-42 -117 -78 -196 -9 -19 -21 -48 -27 -64 -9 -24 -17 -29 -48 -30 -20 -1 -37
2 -37 6 0 4 -18 11 -41 14 -27 5 -36 10 -27 15 7 5 -2 6 -22 3 -26 -4 -40 -1
-49 10 -7 9 -20 16 -27 16 -19 0 -18 15 3 31 13 11 17 11 20 2 8 -23 19 -14
21 17 2 20 -2 29 -10 28 -20 -4 -15 23 5 36 15 9 21 7 32 -8 12 -16 17 -17 30
-6 22 18 19 45 -10 90 -18 29 -21 40 -11 40 8 0 16 7 20 15 3 8 0 15 -6 15 -6
0 -6 6 3 16 11 14 14 14 23 2 9 -13 66 -31 66 -22 0 12 -24 53 -30 49 -3 -2
-5 8 -2 24 4 26 2 27 -32 23 -24 -3 -36 -9 -36 -20 0 -13 -2 -13 -18 1 -20 18
-31 17 -87 -7 -27 -12 -53 -15 -80 -11 l-40 6 -14 -45 c-7 -25 -19 -50 -27
-57 -8 -6 -12 -15 -9 -19 3 -5 1 -11 -5 -15 -6 -4 -5 -13 3 -26 9 -15 9 -21 0
-27 -15 -9 -35 -61 -28 -72 3 -4 -9 -10 -25 -12 -17 -3 -30 -1 -30 3 0 13 -69
15 -74 2 -3 -7 -1 -14 4 -14 6 -1 15 -3 20 -4 6 -1 14 -3 18 -4 11 -2 9 -55
-3 -63 -6 -5 -5 -12 3 -20 16 -16 15 -28 -3 -28 -8 0 -15 -5 -15 -11 0 -8 -12
-10 -35 -6 -21 4 -35 2 -35 -5 0 -5 -7 -8 -15 -5 -37 15 -20 -41 20 -63 15 -8
27 -20 26 -25 -4 -23 -145 7 -200 42 -19 12 -21 17 -10 24 11 7 10 9 -3 9 -10
0 -18 5 -18 10 0 6 -6 10 -12 10 -31 1 -48 28 -53 82 -4 54 -3 56 38 97 39 40
41 44 24 56 -18 13 -18 14 2 34 12 12 21 29 21 38 0 9 7 25 16 34 16 18 14 20
-32 39 -46 20 -48 20 -58 3 -10 -18 -12 -24 -15 -43 0 -5 -6 -10 -12 -10 -6 0
-8 9 -4 21 4 13 3 19 -3 16 -5 -4 -15 -27 -22 -52 -13 -45 -23 -52 -48 -36
-13 8 -9 70 6 95 16 28 9 70 -17 92 -20 18 -22 23 -9 24 9 0 20 -5 24 -11 9
-15 20 0 32 43 8 29 7 40 -4 49 -22 18 -17 29 15 29 26 0 29 3 27 32 -3 43 31
148 48 148 4 0 6 7 2 15 -6 16 4 37 79 157 26 42 44 81 41 87 -11 17 4 60 19
55 9 -4 12 1 9 13 -5 21 12 45 45 62 19 10 21 15 10 22 -11 7 -8 14 15 34 16
14 35 25 43 25 7 0 13 7 13 15 0 9 6 12 15 9 9 -4 15 0 15 10 0 9 6 13 13 10
7 -2 22 5 32 16 13 14 21 17 26 9 5 -8 14 -5 30 10 25 23 39 27 39 11 0 -5 5
-10 10 -10 6 0 10 6 10 14 0 15 38 45 58 45 7 1 10 -4 6 -10z m-2959 -59 c3
-5 1 -10 -4 -10 -6 0 -11 5 -11 10 0 6 2 10 4 10 3 0 8 -4 11 -10z m-185 -70
c0 -5 -4 -10 -10 -10 -5 0 -10 5 -10 10 0 6 5 10 10 10 6 0 10 -4 10 -10z
m-340 -21 c0 -5 -4 -9 -10 -9 -5 0 -10 7 -10 16 0 8 5 12 10 9 6 -3 10 -10 10
-16z m247 -1 c-3 -8 -6 -5 -6 6 -1 11 2 17 5 13 3 -3 4 -12 1 -19z m-42 2 c-3
-5 -12 -10 -18 -10 -7 0 -6 4 3 10 19 12 23 12 15 0z m156 -27 c-16 -28 -38
-53 -45 -53 -11 0 -6 18 10 34 12 12 12 16 2 17 -7 0 -4 4 7 9 31 13 37 12 26
-7z m89 -2 c0 -22 -15 -35 -30 -26 -7 4 -7 13 0 26 14 25 30 25 30 0z m-440
-40 c0 -12 -3 -12 -12 -3 -8 8 -15 9 -25 0 -18 -15 -22 -8 -12 20 7 20 11 21
29 10 11 -7 20 -19 20 -27z m115 29 c3 -5 1 -10 -4 -10 -6 0 -11 5 -11 10 0 6
2 10 4 10 3 0 8 -4 11 -10z m-29 -27 c-10 -10 -19 5 -10 18 6 11 8 11 12 0 2
-7 1 -15 -2 -18z m303 -15 c1 -5 -3 -8 -9 -8 -5 0 -10 12 -9 28 0 24 1 25 9 7
5 -11 9 -23 9 -27z m307 25 c-10 -11 -37 -12 -30 -2 3 5 12 9 21 9 9 0 13 -3
9 -7z m-561 -13 c3 -5 -1 -10 -9 -10 -8 0 -18 5 -21 10 -3 6 1 10 9 10 8 0 18
-4 21 -10z m395 0 c0 -5 -4 -10 -10 -10 -5 0 -10 5 -10 10 0 6 5 10 10 10 6 0
10 -4 10 -10z m214 -14 c-3 -8 -12 -17 -19 -20 -19 -7 -31 14 -14 25 21 13 39
11 33 -5z m-629 -16 c3 -6 -1 -7 -9 -4 -18 7 -21 14 -7 14 6 0 13 -4 16 -10z
m-85 -10 c0 -7 -39 -32 -64 -43 -19 -8 -19 -7 -1 13 16 18 16 20 2 20 -10 0
-17 4 -17 9 0 6 18 9 40 8 22 -1 40 -4 40 -7z m640 0 c0 -5 -5 -10 -11 -10 -5
0 -7 5 -4 10 3 6 8 10 11 10 2 0 4 -4 4 -10z m-2956 -25 c-9 -14 -21 -25 -28
-25 -6 0 -4 5 4 10 13 8 13 11 1 19 -11 7 -10 10 5 14 34 8 35 7 18 -18z
m2383 -5 c-11 -18 -33 -29 -24 -12 2 4 7 15 10 25 4 10 11 16 17 12 6 -4 5
-13 -3 -25z m-2267 1 c0 -12 -10 -21 -27 -26 -15 -3 -31 -12 -35 -18 -12 -20
-19 -1 -8 27 8 22 14 25 35 20 15 -4 25 -2 25 5 0 6 2 11 5 11 3 0 5 -9 5 -19z
m2725 2 c-22 -50 -13 -110 10 -73 5 8 11 8 20 0 15 -12 41 -4 49 16 9 24 43
16 55 -13 15 -38 11 -76 -6 -61 -7 6 -13 19 -13 29 0 20 -15 25 -25 9 -3 -5
-21 -10 -38 -10 -18 0 -27 -4 -21 -8 6 -4 13 -15 17 -24 4 -11 12 -15 22 -12
8 3 15 2 15 -4 0 -5 -7 -12 -15 -16 -8 -3 -15 -16 -15 -30 0 -19 -6 -25 -34
-30 -39 -7 -61 -29 -53 -51 4 -8 2 -17 -3 -20 -6 -4 -10 7 -10 23 0 62 -41
139 -81 155 -8 3 -5 6 9 6 17 1 22 7 22 29 0 19 3 23 9 13 5 -8 21 -15 35 -17
29 -3 34 14 14 46 -10 15 -9 23 6 39 23 26 41 27 31 4z m70 7 c-3 -5 -11 -10
-16 -10 -6 0 -7 5 -4 10 3 6 11 10 16 10 6 0 7 -4 4 -10z m185 0 c0 -5 -4 -10
-10 -10 -5 0 -10 5 -10 10 0 6 5 10 10 10 6 0 10 -4 10 -10z m-224 -26 c-5
-12 -1 -14 17 -9 21 6 21 5 3 -9 -17 -14 -20 -14 -32 2 -9 13 -9 19 -1 24 17
11 20 10 13 -8z m264 1 c0 -8 -7 -15 -15 -15 -8 0 -15 7 -15 15 0 8 7 15 15
15 8 0 15 -7 15 -15z m-50 -5 c4 0 8 -11 8 -25 0 -21 -3 -23 -20 -14 -10 5
-16 14 -13 20 4 5 1 9 -4 9 -6 0 -11 5 -11 11 0 6 7 8 16 5 9 -3 19 -6 24 -6z
m-677 -58 c5 -7 7 -16 3 -20 -7 -7 -30 24 -31 43 -2 21 10 29 13 10 2 -11 9
-26 15 -33z m627 38 c0 -5 -4 -10 -9 -10 -6 0 -13 5 -16 10 -3 6 1 10 9 10 9
0 16 -4 16 -10z m-2916 -15 c46 -19 48 -39 4 -30 -35 8 -58 22 -58 36 0 13 12
11 54 -6z m2236 -10 c0 -8 -2 -15 -4 -15 -2 0 -6 7 -10 15 -3 8 -1 15 4 15 6
0 10 -7 10 -15z m698 -35 c26 -26 72 -38 72 -18 0 4 5 8 10 8 6 0 10 -7 10
-15 0 -8 -3 -14 -7 -14 -21 3 -33 -2 -33 -16 0 -19 -19 -20 -26 -1 -3 9 -12
12 -22 8 -14 -5 -15 -3 -4 10 10 12 9 18 -3 28 -12 10 -16 9 -21 -4 -9 -24
-24 -19 -24 7 0 21 7 37 17 37 1 0 16 -13 31 -30z m-603 0 c3 -5 1 -10 -4 -10
-6 0 -11 5 -11 10 0 6 2 10 4 10 3 0 8 -4 11 -10z m105 6 c0 -9 -59 -34 -65
-28 -5 5 25 20 63 31 1 1 2 -1 2 -3z m397 -56 c1 -11 -2 -20 -8 -20 -5 0 -9 9
-9 20 0 11 4 20 8 20 4 0 8 -9 9 -20z m73 0 c0 -5 -4 -10 -10 -10 -5 0 -10 5
-10 10 0 6 5 10 10 10 6 0 10 -4 10 -10z m-470 -25 c0 -14 -2 -25 -4 -25 -2 0
-6 11 -8 25 -3 14 -1 25 3 25 5 0 9 -11 9 -25z m-2620 -15 c0 -5 -4 -10 -9
-10 -6 0 -13 5 -16 10 -3 6 1 10 9 10 9 0 16 -4 16 -10z m2765 0 c3 -5 1 -10
-4 -10 -6 0 -11 -6 -11 -14 0 -20 -26 -40 -35 -26 -3 5 0 13 8 16 9 3 13 13
10 25 -6 20 20 28 32 9z m-2575 -10 c0 -5 -4 -10 -10 -10 -5 0 -10 5 -10 10 0
6 5 10 10 10 6 0 10 -4 10 -10z m2856 -10 c8 0 14 -8 14 -18 0 -26 11 -34 27
-21 7 6 13 8 13 3 0 -5 5 -2 10 6 8 12 10 11 10 -7 0 -19 -6 -23 -30 -23 -16
0 -30 5 -30 10 0 6 -7 10 -15 10 -8 0 -15 5 -15 11 0 8 -5 7 -15 -1 -14 -12
-13 -16 5 -35 13 -14 29 -21 40 -18 15 4 18 1 13 -16 -6 -22 -23 -29 -23 -10
0 6 -6 9 -14 6 -8 -3 -13 1 -12 11 1 15 -8 17 -67 14 -59 -3 -66 -2 -61 13 6
15 44 37 69 39 6 1 21 11 35 24 14 13 26 18 28 12 2 -5 10 -10 18 -10z m169
11 c3 -5 1 -12 -5 -16 -5 -3 -10 1 -10 9 0 18 6 21 15 7z m-723 -53 c-7 -7
-12 -8 -12 -2 0 14 12 26 19 19 2 -3 -1 -11 -7 -17z m-32 -15 c0 -5 -7 -17
-15 -27 -12 -16 -17 -17 -30 -6 -13 11 -19 10 -35 -5 -11 -10 -17 -22 -14 -26
3 -5 -2 -9 -10 -9 -10 0 -13 6 -10 15 4 9 0 15 -7 15 -10 1 78 37 119 49 1 1
2 -2 2 -6z m375 -2 c7 -12 -12 -24 -25 -16 -11 7 -4 25 10 25 5 0 11 -4 15 -9z
m-335 -16 c0 -8 -4 -15 -10 -15 -5 0 -10 7 -10 15 0 8 5 15 10 15 6 0 10 -7
10 -15z m490 -14 c0 -5 3 -16 6 -25 4 -10 1 -16 -9 -16 -10 0 -14 9 -13 25 1
23 16 37 16 16z m-65 -11 c3 -5 -3 -10 -15 -10 -12 0 -18 5 -15 10 3 6 10 10
15 10 5 0 12 -4 15 -10z m-115 -20 c0 -5 -4 -10 -10 -10 -5 0 -10 5 -10 10 0
6 5 10 10 10 6 0 10 -4 10 -10z m40 -5 c0 -8 -4 -15 -10 -15 -5 0 -10 7 -10
15 0 8 5 15 10 15 6 0 10 -7 10 -15z m1867 -13 c36 3 38 1 41 -28 5 -48 -26
-70 -86 -58 -46 9 -47 10 -50 51 -2 33 0 42 15 45 10 3 23 0 30 -5 7 -5 29 -7
50 -5z m-2261 -68 c-26 -18 -36 -18 -36 2 0 10 6 14 15 10 10 -3 15 1 15 11 0
14 2 15 13 4 10 -10 8 -15 -7 -27z m-45 -6 c28 -34 25 -52 -6 -32 -14 9 -25
25 -25 35 0 25 8 24 31 -3z m1929 -8 c0 -5 -5 -10 -11 -10 -5 0 -7 5 -4 10 3
6 8 10 11 10 2 0 4 -4 4 -10z m-1640 -20 c0 -5 -5 -10 -11 -10 -5 0 -7 5 -4
10 3 6 8 10 11 10 2 0 4 -4 4 -10z m1980 -26 c23 -23 0 -35 -37 -19 -42 18
-46 48 -5 39 15 -4 34 -13 42 -20z m50 -128 c0 -3 -4 -8 -10 -11 -5 -3 -10 -1
-10 4 0 6 5 11 10 11 6 0 10 -2 10 -4z m-2510 -15 c0 -12 -30 -22 -43 -14 -7
4 -3 9 9 14 26 10 34 10 34 0z m3085 -101 c3 -5 -1 -10 -10 -10 -9 0 -13 5
-10 10 3 6 8 10 10 10 2 0 7 -4 10 -10z m-2845 -30 c0 -5 -4 -10 -10 -10 -5 0
-10 5 -10 10 0 6 5 10 10 10 6 0 10 -4 10 -10z m2795 -30 c3 -5 1 -10 -4 -10
-6 0 -11 5 -11 10 0 6 2 10 4 10 3 0 8 -4 11 -10z m-3085 -90 c0 -5 -2 -10 -4
-10 -3 0 -8 5 -11 10 -3 6 -1 10 4 10 6 0 11 -4 11 -10z m6 -30 c8 0 14 -7 14
-15 0 -22 -20 -18 -41 7 -23 26 -25 46 -3 24 8 -9 22 -16 30 -16z m-2273 -80
c3 -11 1 -18 -4 -14 -5 3 -9 12 -9 20 0 20 7 17 13 -6z m223 -25 c-3 -8 -1
-15 5 -15 6 0 7 -5 4 -10 -5 -8 -11 -7 -20 0 -11 9 -12 15 -2 25 16 19 20 18
13 0z m2224 -48 c-27 -15 -36 -14 -25 2 3 6 16 11 28 11 21 0 21 -1 -3 -13z
m170 -11 c0 -3 -4 -8 -10 -11 -5 -3 -10 -1 -10 4 0 6 5 11 10 11 6 0 10 -2 10
-4z m3437 -18 c-3 -8 -6 -5 -6 6 -1 11 2 17 5 13 3 -3 4 -12 1 -19z m-3413
-35 c4 -9 1 -21 -5 -27 -8 -8 -10 -7 -7 4 3 8 -2 20 -11 27 -15 11 -15 12 0
13 9 0 20 -8 23 -17z m226 -13 c0 -5 -4 -10 -10 -10 -5 0 -10 5 -10 10 0 6 5
10 10 10 6 0 10 -4 10 -10z m-2750 -11 c0 -6 7 -9 15 -5 21 8 19 2 -14 -33
-15 -16 -31 -27 -35 -24 -8 8 -8 58 1 66 10 11 33 8 33 -4z m2260 -19 c0 -5
-4 -10 -10 -10 -5 0 -10 5 -10 10 0 6 5 10 10 10 6 0 10 -4 10 -10z m-2180
-26 c0 -8 -7 -14 -16 -14 -8 0 -12 -4 -9 -10 3 -5 -3 -10 -14 -10 -12 0 -21
-5 -21 -12 0 -6 -3 -9 -6 -5 -9 9 6 68 16 62 5 -3 11 -1 15 4 8 14 35 2 35
-15z m4870 16 c0 -5 -2 -10 -4 -10 -3 0 -8 5 -11 10 -3 6 -1 10 4 10 6 0 11
-4 11 -10z m-2652 -28 l20 -27 -21 -11 c-20 -9 -22 -7 -24 28 0 21 0 38 2 38
2 0 13 -12 23 -28z m272 18 c0 -5 -7 -10 -16 -10 -8 0 -12 5 -9 10 3 6 10 10
16 10 5 0 9 -4 9 -10z m120 0 c0 -5 -4 -10 -10 -10 -5 0 -10 5 -10 10 0 6 5
10 10 10 6 0 10 -4 10 -10z m-135 -40 c3 -5 -1 -10 -10 -10 -9 0 -13 5 -10 10
3 6 8 10 10 10 2 0 7 -4 10 -10z m190 -20 c3 -5 -1 -10 -9 -10 -9 0 -16 5 -16
10 0 6 4 10 9 10 6 0 13 -4 16 -10z m48 -4 c4 -10 1 -13 -9 -9 -7 3 -14 9 -14
14 0 14 17 10 23 -5z m-448 -16 c-3 -5 -10 -10 -16 -10 -5 0 -9 5 -9 10 0 6 7
10 16 10 8 0 12 -4 9 -10z m175 -10 c0 -5 -5 -10 -11 -10 -5 0 -7 5 -4 10 3 6
8 10 11 10 2 0 4 -4 4 -10z m2459 -57 c21 -32 65 -87 97 -123 60 -65 31 -55
-32 12 -36 38 -114 147 -114 160 0 17 10 6 49 -49z m-2649 14 c0 -16 -35 -1
-38 16 -3 16 -1 17 17 5 12 -7 21 -17 21 -21z m50 13 c0 -13 -5 -18 -15 -14
-16 7 -19 17 -8 27 12 13 23 7 23 -13z m42 8 c-9 -9 -15 -9 -24 0 -9 9 -7 12
12 12 19 0 21 -3 12 -12z m24 -45 c-10 -10 -19 5 -10 18 6 11 8 11 12 0 2 -7
1 -15 -2 -18z m2319 18 c3 -5 1 -12 -5 -16 -5 -3 -10 1 -10 9 0 18 6 21 15 7z
m-2460 -41 c3 -5 13 -7 23 -4 14 5 15 4 2 -5 -8 -6 -26 -11 -40 -11 -15 0 -31
-5 -38 -12 -9 -9 -15 -9 -23 -1 -9 9 -3 16 22 27 42 18 46 18 54 6z m75 -15
c10 -12 10 -15 -4 -15 -9 0 -16 7 -16 15 0 8 2 15 4 15 2 0 9 -7 16 -15z
m-180 -55 c0 -5 -2 -10 -4 -10 -3 0 -8 5 -11 10 -3 6 -1 10 4 10 6 0 11 -4 11
-10z m3007 -52 c-3 -8 -6 -5 -6 6 -1 11 2 17 5 13 3 -3 4 -12 1 -19z m296 -93
c-3 -9 -8 -14 -10 -11 -3 3 -2 9 2 15 9 16 15 13 8 -4z m-998 -100 c50 -15 95
-31 100 -35 6 -4 30 -14 55 -21 51 -15 113 -53 102 -63 -3 -4 1 -4 9 -1 20 8
69 -31 69 -56 0 -26 -34 -32 -155 -27 -57 3 -102 1 -99 -3 7 -11 -12 -20 -29
-13 -9 3 -14 11 -11 18 4 11 -66 36 -103 36 -15 0 -14 -2 3 -15 18 -14 16 -15
-21 -9 -42 7 -81 23 -57 24 9 0 11 10 8 33 -3 17 -8 64 -11 104 l-6 72 28 -9
c15 -4 69 -21 118 -35z m-3035 -15 c0 -5 -5 -10 -11 -10 -5 0 -7 5 -4 10 3 6
8 10 11 10 2 0 4 -4 4 -10z m-1980 -56 c0 -15 4 -23 10 -19 13 8 6 -104 -10
-180 -7 -27 -14 -65 -17 -82 -3 -18 -9 -30 -14 -27 -12 7 -11 121 1 129 6 4 7
12 1 22 -11 20 -2 133 12 151 6 8 6 12 -2 12 -6 0 -11 5 -11 10 0 6 7 10 15
10 9 0 15 -10 15 -26z m2240 -54 c0 -5 -4 -10 -10 -10 -5 0 -10 5 -10 10 0 6
5 10 10 10 6 0 10 -4 10 -10z m3247 -32 c-3 -7 -5 -2 -5 12 0 14 2 19 5 13 2
-7 2 -19 0 -25z m-1491 -36 c-21 -22 -28 -11 -13 21 10 21 13 23 21 10 5 -10
3 -20 -8 -31z m-2036 24 c0 -11 -19 -15 -25 -6 -3 5 1 10 9 10 9 0 16 -2 16
-4z m-2075 -46 c-3 -5 -10 -10 -16 -10 -5 0 -9 5 -9 10 0 6 7 10 16 10 8 0 12
-4 9 -10z m3895 -7 c11 -8 20 -21 20 -29 0 -16 -16 -19 -25 -4 -4 7 -43 10
-98 9 -345 -7 -1054 -202 -1304 -359 -12 -8 -25 -11 -29 -7 -19 18 67 72 182
113 34 12 77 29 95 37 31 14 97 35 209 68 25 7 49 16 54 21 6 4 20 8 31 8 12
0 25 3 29 7 4 5 29 13 54 19 26 7 81 21 122 32 301 81 609 121 660 85z m-2406
-37 c-3 -8 -15 -11 -29 -9 -22 5 -22 6 -7 24 11 13 19 15 28 8 7 -6 11 -16 8
-23z m403 -7 c1 -14 0 -17 -3 -6 -3 9 -10 17 -15 17 -5 0 -9 5 -9 11 0 22 25
2 27 -22z m-1887 1 c17 -17 18 -21 4 -34 -11 -12 -12 -20 -4 -35 14 -26 13
-31 -6 -31 -15 0 -15 -2 0 -24 17 -27 12 -54 -13 -72 -9 -8 -12 -17 -6 -30 4
-10 7 -22 7 -26 -1 -5 7 -8 18 -8 11 0 20 -4 20 -10 0 -5 -4 -10 -9 -10 -12 0
-21 -39 -10 -45 14 -9 -2 -37 -18 -30 -12 4 -14 0 -8 -22 3 -16 13 -35 21 -44
18 -20 18 -33 -1 -25 -9 3 -15 0 -15 -9 0 -8 6 -15 13 -16 6 0 2 -4 -11 -9
-12 -5 -22 -13 -22 -18 0 -10 41 -10 57 1 9 6 13 2 13 -13 0 -25 -22 -50 -44
-50 -18 0 -57 20 -68 35 -10 13 -10 95 0 95 4 0 7 42 8 93 1 146 11 220 31
234 10 8 12 13 4 13 -11 0 -9 39 6 93 6 22 9 21 33 -3z m3917 -32 c-3 -8 -6
-5 -6 6 -1 11 2 17 5 13 3 -3 4 -12 1 -19z m183 8 c0 -19 -76 -69 -135 -90
-126 -45 -187 -58 -202 -43 -23 23 56 59 133 62 52 1 78 9 132 37 79 42 72 39
72 34z m-3880 -20 c0 -3 -4 -8 -10 -11 -5 -3 -10 -1 -10 4 0 6 5 11 10 11 6 0
10 -2 10 -4z m45 -6 c3 -5 -1 -10 -9 -10 -9 0 -16 5 -16 10 0 6 4 10 9 10 6 0
13 -4 16 -10z m1045 0 c-8 -5 -19 -10 -25 -10 -5 0 -3 5 5 10 8 5 20 10 25 10
6 0 3 -5 -5 -10z m2630 -26 c0 -8 -5 -12 -10 -9 -6 4 -8 11 -5 16 9 14 15 11
15 -7z m-3727 -33 c5 -19 21 -22 43 -8 18 11 23 -41 9 -97 -6 -28 -18 -77 -24
-108 -7 -32 -17 -58 -23 -58 -5 0 -8 6 -5 14 8 19 -16 38 -37 30 -19 -7 -22
12 -3 19 8 4 9 8 1 14 -6 4 -13 16 -17 26 -5 14 -1 17 23 17 16 0 31 4 34 9 7
11 -22 23 -35 15 -5 -3 -9 1 -9 9 0 8 6 17 14 20 9 4 13 22 12 61 -1 56 7 74
17 37z m6344 -43 c-3 -8 -6 -5 -6 6 -1 11 2 17 5 13 3 -3 4 -12 1 -19z m-1856
-21 c-10 -9 -11 -8 -5 6 3 10 9 15 12 12 3 -3 0 -11 -7 -18z m-736 4 c-3 -5
-2 -12 3 -15 5 -3 14 -31 21 -63 7 -32 17 -71 22 -87 10 -32 3 -49 -10 -27 -5
8 -14 41 -21 75 -6 33 -14 68 -17 76 -12 31 -13 50 -2 50 5 0 8 -4 4 -9z m955
-11 c-8 -5 -17 -7 -19 -4 -3 3 1 9 9 14 8 5 17 7 19 4 3 -3 -1 -9 -9 -14z
m-2570 -11 c0 -5 -4 -9 -10 -9 -5 0 -10 7 -10 16 0 8 5 12 10 9 6 -3 10 -10
10 -16z m2470 -69 c0 -5 -4 -10 -10 -10 -5 0 -10 5 -10 10 0 6 5 10 10 10 6 0
10 -4 10 -10z m-30 -10 c0 -5 -2 -10 -4 -10 -3 0 -8 5 -11 10 -3 6 -1 10 4 10
6 0 11 -4 11 -10z m50 -25 c0 -14 -4 -25 -9 -25 -4 0 -6 11 -3 25 2 14 6 25 8
25 2 0 4 -11 4 -25z m-27 -3 c-3 -14 -11 -18 -29 -14 -27 5 -22 17 11 25 11 3
21 5 22 6 0 0 -1 -7 -4 -17z m-1233 -52 c0 -5 -2 -10 -4 -10 -3 0 -8 5 -11 10
-3 6 -1 10 4 10 6 0 11 -4 11 -10z m230 -21 c0 -11 -4 -18 -10 -14 -5 3 -7 12
-3 20 7 21 13 19 13 -6z m36 -16 c-10 -10 -19 5 -10 18 6 11 8 11 12 0 2 -7 1
-15 -2 -18z m2052 15 c7 -7 12 -19 12 -27 0 -11 -5 -9 -20 7 -11 12 -20 24
-20 27 0 9 16 5 28 -7z m-3255 -22 c-4 -19 -11 -23 -36 -22 -18 1 -36 6 -40
11 -6 6 -10 6 -14 -2 -2 -7 -18 -13 -35 -13 -23 0 -29 4 -26 17 4 20 39 30
109 32 43 1 46 0 42 -23z m3317 -1 c0 -8 -4 -15 -10 -15 -5 0 -7 7 -4 15 4 8
8 15 10 15 2 0 4 -7 4 -15z m-2203 -27 c-3 -7 -5 -2 -5 12 0 14 2 19 5 13 2
-7 2 -19 0 -25z m1983 16 c0 -2 -9 -4 -20 -4 -11 0 -20 4 -20 9 0 5 9 7 20 4
11 -3 20 -7 20 -9z m-5530 -6 c0 -9 4 -8 11 2 8 12 9 10 5 -10 -3 -14 -6 -37
-6 -52 0 -22 -5 -28 -22 -28 -19 0 -20 2 -8 10 13 9 13 12 -3 24 -15 12 -16
15 -2 26 9 7 14 19 11 27 -3 7 -1 13 4 13 6 0 10 -6 10 -12z m3506 -13 c-9 -9
-16 -13 -16 -8 0 12 22 34 28 28 2 -2 -3 -11 -12 -20z m244 10 c0 -8 -9 -15
-20 -15 -11 0 -20 -4 -20 -10 0 -5 -4 -10 -10 -10 -21 0 -9 27 18 37 15 6 28
11 30 12 1 1 2 -6 2 -14z m1206 -4 c5 -5 18 -11 29 -14 14 -3 10 -5 -11 -6
-16 0 -39 6 -50 14 -19 14 -19 14 2 15 11 0 24 -4 30 -9z m-1176 -11 c0 -5 -2
-10 -4 -10 -3 0 -8 5 -11 10 -3 6 -1 10 4 10 6 0 11 -4 11 -10z m-254 -25 c-3
-9 0 -15 9 -15 8 0 15 -4 15 -10 0 -5 -9 -10 -20 -10 -40 0 -13 -26 35 -34 6
-1 9 -10 7 -19 -3 -16 0 -17 17 -7 12 6 21 15 21 20 0 6 9 10 20 10 11 0 20
-4 20 -9 0 -14 39 -1 53 18 17 23 61 44 83 39 15 -3 8 -11 -31 -38 -27 -18
-51 -37 -53 -42 -2 -4 -10 -8 -18 -8 -8 0 -14 -7 -14 -15 0 -8 -6 -12 -12 -10
-18 7 -80 -33 -72 -46 3 -6 12 -8 20 -5 8 3 14 2 14 -3 0 -5 -11 -12 -25 -15
-14 -4 -25 -13 -25 -22 0 -9 -6 -14 -12 -11 -19 6 -48 -11 -48 -28 0 -19 9
-19 32 2 12 10 18 12 18 4 0 -7 5 -9 10 -6 6 3 10 1 10 -4 0 -6 10 -11 23 -12
21 0 21 -1 2 -9 l-20 -9 20 0 c17 -1 17 -3 5 -11 -14 -9 47 -6 103 5 18 3 23
-10 7 -20 -5 -3 -7 -12 -3 -20 3 -10 -1 -15 -11 -15 -9 0 -19 7 -22 15 -5 11
-10 13 -19 5 -9 -8 -15 -8 -18 0 -3 6 -4 5 -3 -2 1 -7 22 -17 47 -23 24 -6 43
-14 42 -18 -2 -4 -3 -14 -3 -22 0 -8 -7 -15 -15 -15 -8 0 -15 -7 -15 -15 0 -8
-5 -15 -11 -15 -6 0 -22 -9 -36 -20 -17 -13 -33 -18 -50 -14 -17 5 -29 0 -42
-15 -21 -24 -51 -27 -70 -8 -10 10 -11 9 -6 -5 4 -11 2 -18 -5 -18 -6 0 -8 -5
-4 -12 4 -7 -2 -5 -14 5 -22 20 -59 19 -54 -1 3 -15 0 -15 -34 3 -16 8 -39 12
-52 8 -15 -3 -27 -1 -33 8 -6 10 -9 6 -9 -13 0 -30 -26 -39 -36 -13 -4 10 -14
13 -31 9 -16 -4 -28 -2 -34 7 -6 10 -9 11 -9 2 0 -7 -5 -13 -11 -13 -6 0 -8 7
-5 16 9 23 -3 37 -20 23 -11 -9 -14 -8 -14 3 0 7 -9 20 -20 28 -11 8 -15 17
-10 20 5 3 11 23 12 43 2 22 8 37 16 37 7 0 10 5 6 11 -5 9 1 10 19 5 21 -5
25 -3 21 9 -4 11 -14 13 -33 8 -14 -4 -35 -6 -46 -5 -11 1 -59 -5 -108 -14
-93 -16 -377 -21 -402 -7 -8 5 35 7 96 6 64 -2 153 4 212 13 56 8 120 18 141
20 22 3 48 10 57 15 10 5 24 9 33 9 8 0 27 5 43 11 26 10 27 12 8 20 -14 6 -8
7 20 4 27 -4 64 3 115 20 41 14 90 30 108 36 17 5 32 14 32 20 0 6 -7 6 -19
-1 -25 -13 -42 -13 -18 1 9 5 17 16 17 23 0 15 58 27 66 14 7 -11 24 -10 24 1
0 5 -6 16 -13 23 -16 16 -11 38 9 38 8 0 14 5 14 11 0 7 -10 9 -25 5 -28 -7
-33 5 -10 24 8 7 15 20 15 30 0 19 9 30 23 30 5 0 7 -7 3 -15z m2179 -5 c13
-6 15 -9 5 -9 -8 0 -22 4 -30 9 -18 12 -2 12 25 0z m-3405 -45 c0 -5 -5 -3
-10 5 -5 8 -10 20 -10 25 0 6 5 3 10 -5 5 -8 10 -19 10 -25z m1400 15 c0 -5
-5 -10 -11 -10 -5 0 -7 5 -4 10 3 6 8 10 11 10 2 0 4 -4 4 -10z m1373 -14 c17
-13 16 -14 -2 -19 -22 -5 -31 0 -31 20 0 16 10 16 33 -1z m-3634 -22 c27 -34
27 -46 -1 -35 -13 5 -26 9 -31 9 -79 5 -93 49 -15 51 17 1 34 -8 47 -25z m364
12 c6 -14 -35 -30 -112 -42 -58 -9 -52 14 10 37 55 21 95 23 102 5z m3375 4
c6 0 12 -4 12 -10 0 -5 -12 -10 -26 -10 -14 0 -22 -4 -19 -10 4 -6 -1 -7 -11
-3 -12 4 -14 8 -6 11 10 3 10 7 0 20 -11 13 -10 15 12 9 14 -4 31 -7 38 -7z
m1089 -42 c-3 -7 -5 -2 -5 12 0 14 2 19 5 13 2 -7 2 -19 0 -25z m-1067 -48
c70 -36 63 -53 -19 -43 -60 7 -88 27 -70 49 16 19 43 18 89 -6z m907 -32 c-3
-8 -6 -5 -6 6 -1 11 2 17 5 13 3 -3 4 -12 1 -19z m-2412 -8 c3 -5 2 -10 -4
-10 -5 0 -13 5 -16 10 -3 6 -2 10 4 10 5 0 13 -4 16 -10z m32 -32 c-3 -8 -6
-5 -6 6 -1 11 2 17 5 13 3 -3 4 -12 1 -19z m-377 8 c0 -2 -9 -6 -20 -9 -11 -3
-20 -1 -20 4 0 5 9 9 20 9 11 0 20 -2 20 -4z m280 -11 c0 -8 -4 -15 -10 -15
-5 0 -10 7 -10 15 0 8 5 15 10 15 6 0 10 -7 10 -15z m-3425 -17 c7 -29 -7 -80
-23 -86 -13 -4 -17 63 -6 92 9 23 23 20 29 -6z m3065 10 c0 -4 -4 -8 -9 -8 -6
0 -12 4 -15 8 -3 5 1 9 9 9 8 0 15 -4 15 -9z m-35 -18 c-3 -5 -11 -10 -16 -10
-6 0 -7 5 -4 10 3 6 11 10 16 10 6 0 7 -4 4 -10z m453 -33 c3 -13 -4 -17 -25
-16 -15 0 -22 3 -15 6 6 2 12 11 12 20 0 20 24 11 28 -10z m62 3 c0 -5 -7 -10
-15 -10 -8 0 -15 5 -15 10 0 6 7 10 15 10 8 0 15 -4 15 -10z m-1203 -66 c-7
-7 -37 7 -37 17 0 6 9 5 21 -1 11 -7 19 -14 16 -16z m1273 -4 c8 -5 13 -10 10
-11 -38 -8 -70 -8 -70 0 0 8 12 14 40 20 3 0 12 -4 20 -9z m68 -29 l0 -40 -24
29 c-30 36 -30 50 0 50 22 0 25 -4 24 -39z m-3287 -63 c6 -12 6 -18 0 -18 -10
0 -41 51 -41 67 1 9 26 -22 41 -49z m164 7 c0 -17 -7 -19 -70 -20 -55 0 -70 3
-70 15 0 18 38 29 95 27 38 -2 45 -5 45 -22z m3865 -47 c0 8 9 4 22 -8 12 -11
27 -20 32 -21 66 -4 136 -25 136 -40 0 -7 31 -14 105 -24 55 -8 89 -26 73 -38
-8 -5 -1 -7 20 -3 20 4 31 2 27 -4 -3 -6 5 -10 19 -10 14 0 26 -4 26 -9 0 -5
17 -11 38 -14 55 -8 96 -19 102 -28 3 -4 25 -10 49 -13 24 -3 51 -12 61 -21 9
-8 35 -16 58 -17 23 -1 42 -5 42 -10 0 -5 9 -6 20 -3 13 4 30 -1 46 -14 15
-12 37 -21 50 -21 13 0 24 -4 24 -8 0 -5 13 -8 30 -7 16 1 27 -1 25 -5 -5 -9
40 -30 64 -30 10 0 32 -7 50 -16 17 -9 38 -13 46 -10 9 3 12 0 9 -8 -3 -9 5
-12 30 -10 22 2 36 -2 40 -11 3 -8 12 -12 21 -9 8 4 15 1 15 -6 0 -8 9 -11 25
-8 23 5 29 0 23 -19 -4 -10 -30 -14 -140 -20 -54 -3 -98 -9 -98 -15 0 -5 -4
-7 -8 -4 -4 2 -39 6 -77 7 -39 1 -88 6 -110 10 -22 4 -62 10 -90 13 -197 22
-547 111 -782 198 l-83 31 0 119 c0 71 4 117 9 113 5 -3 13 0 17 6 5 9 11 7
21 -6 7 -11 13 -13 13 -7z m-1106 -60 c-3 -4 -12 -8 -20 -8 -8 0 -14 4 -14 8
0 4 9 8 19 8 11 0 17 -4 15 -8z m-218 -25 c-10 -10 -19 5 -10 18 6 11 8 11 12
0 2 -7 1 -15 -2 -18z m-116 -13 c0 -5 -2 -10 -4 -10 -3 0 -8 5 -11 10 -3 6 -1
10 4 10 6 0 11 -4 11 -10z m70 0 c0 -5 -2 -10 -4 -10 -3 0 -8 5 -11 10 -3 6
-1 10 4 10 6 0 11 -4 11 -10z m-30 -4 c0 -3 -4 -8 -10 -11 -5 -3 -10 -1 -10 4
0 6 5 11 10 11 6 0 10 -2 10 -4z m370 -26 c0 -5 -4 -10 -10 -10 -5 0 -10 5
-10 10 0 6 5 10 10 10 6 0 10 -4 10 -10z m-300 -32 c0 -10 -3 -10 -34 2 -14 5
-26 14 -26 19 0 5 13 4 30 -2 17 -6 30 -15 30 -19z m170 2 c0 -5 -4 -10 -10
-10 -5 0 -10 5 -10 10 0 6 5 10 10 10 6 0 10 -4 10 -10z m-56 -15 c-4 -10 0
-15 12 -15 15 0 13 -5 -13 -28 -17 -15 -33 -36 -35 -46 -3 -18 -4 -18 -20 5
-15 23 -15 29 -1 57 13 27 25 36 55 41 4 0 5 -6 2 -14z m310 -83 c-4 -12 -13
-22 -22 -22 -12 0 -13 3 -4 12 7 7 12 21 12 32 0 13 3 17 10 10 5 -5 7 -19 4
-32z m36 28 c0 -5 -4 -10 -10 -10 -5 0 -10 5 -10 10 0 6 5 10 10 10 6 0 10 -4
10 -10z m2341 -27 c-8 -15 -10 -15 -11 -2 0 17 10 32 18 25 2 -3 -1 -13 -7
-23z m-2616 -3 c-5 -16 -2 -20 14 -20 12 0 21 -5 21 -11 0 -6 7 -9 15 -5 11 4
15 -2 14 -22 -1 -18 -3 -21 -6 -9 -3 11 -11 16 -19 13 -8 -3 -14 -1 -14 4 0
14 -46 12 -69 -2 -14 -9 -23 -8 -42 6 l-24 17 32 -6 c17 -3 35 -1 38 5 3 5 -3
10 -14 10 -31 0 -25 28 7 33 53 8 54 8 47 -13z m172 -2 c-3 -11 0 -18 10 -18
10 0 12 -6 8 -19 -6 -21 10 -38 20 -21 4 6 11 8 16 4 6 -4 1 -15 -12 -27 -21
-20 -22 -20 -35 -2 -7 10 -11 22 -8 27 3 4 -2 11 -11 14 -9 4 -14 12 -11 19 2
7 -4 15 -15 18 -30 8 -22 26 12 25 25 -1 30 -5 26 -20z m103 -18 c8 -5 11 -12
7 -16 -4 -4 -15 0 -24 9 -18 18 -8 23 17 7z m-156 -74 c-5 -13 -44 -30 -44
-19 0 7 33 32 42 33 4 0 5 -6 2 -14z m-97 -18 c-3 -8 -6 -5 -6 6 -1 11 2 17 5
13 3 -3 4 -12 1 -19z m274 -31 c-16 -16 -26 0 -10 19 9 11 15 12 17 4 2 -6 -1
-17 -7 -23z m-132 16 c-3 -21 2 -33 16 -33 8 0 15 -9 15 -20 0 -14 5 -18 18
-14 14 5 15 4 2 -5 -8 -6 -31 -11 -50 -12 -19 -1 -27 -3 -18 -6 11 -3 17 -13
16 -28 -2 -19 -6 -21 -23 -15 -11 4 -21 12 -21 19 -1 6 -3 12 -4 14 -1 1 -4
14 -6 30 -2 24 -1 26 17 17 21 -12 26 -1 8 17 -15 15 -4 43 16 43 8 0 14 -3
14 -7z m-889 -49 c0 -8 -5 -12 -10 -9 -6 4 -8 11 -5 16 9 14 15 11 15 -7z
m1088 3 c8 -10 6 -13 -9 -14 -19 -2 -25 8 -12 20 8 9 9 9 21 -6z m-275 -32
c-7 -21 -13 -19 -13 6 0 11 4 18 10 14 5 -3 7 -12 3 -20z m199 -7 c2 -13 1
-34 -3 -48 -7 -25 -7 -25 -8 3 -1 16 -6 37 -11 48 -8 15 -7 19 3 19 8 0 17
-10 19 -22z m-79 -105 c-7 -2 -21 -2 -30 0 -10 3 -4 5 12 5 17 0 24 -2 18 -5z
m-63 -95 c0 -8 -33 -28 -46 -28 -5 0 -3 5 4 12 7 7 12 23 12 38 1 24 1 24 15
6 8 -11 15 -23 15 -28z m-1520 12 c0 -5 -4 -10 -10 -10 -5 0 -10 5 -10 10 0 6
5 10 10 10 6 0 10 -4 10 -10z m1460 6 c0 -3 -4 -8 -10 -11 -5 -3 -10 -1 -10 4
0 6 5 11 10 11 6 0 10 -2 10 -4z m2240 -16 c0 -5 -5 -10 -11 -10 -5 0 -7 5 -4
10 3 6 8 10 11 10 2 0 4 -4 4 -10z m-3680 -32 c0 -4 -9 -8 -20 -8 -11 0 -20 4
-20 8 0 4 9 8 20 8 11 0 20 -4 20 -8z m1514 -20 c-3 -5 2 -18 12 -29 9 -10 12
-19 7 -19 -6 0 -13 -22 -15 -49 -1 -27 0 -47 4 -45 4 3 13 -7 21 -22 l14 -27
21 24 c12 12 22 18 22 13 0 -6 -4 -14 -9 -19 -6 -6 -11 -21 -13 -35 -2 -14 -7
-30 -11 -37 -4 -6 -5 -17 -2 -25 4 -10 -5 -14 -35 -14 -26 0 -39 4 -36 11 2 6
-5 22 -15 36 -11 15 -19 19 -19 10 0 -8 -2 -12 -5 -9 -3 3 -1 17 5 32 8 23 14
25 37 20 27 -7 27 -6 12 12 -26 31 -29 63 -9 99 16 29 17 34 4 39 -9 3 -13 10
-10 15 4 5 1 11 -6 13 -6 2 -8 9 -4 16 3 6 13 9 21 6 8 -4 12 -10 9 -16z m931
-7 c7 -12 -12 -24 -25 -16 -11 7 -4 25 10 25 5 0 11 -4 15 -9z m1227 0 c-11
-6 -10 -10 5 -16 15 -6 12 -9 -16 -15 -19 -5 -44 -4 -55 0 -16 7 -17 9 -5 9 9
1 19 8 23 16 3 8 18 15 33 15 19 0 24 -3 15 -9z m-2212 -30 c0 -5 -7 -12 -16
-15 -24 -9 -28 -7 -14 9 14 17 30 20 30 6z m1440 -6 c0 -8 -4 -15 -10 -15 -5
0 -10 7 -10 15 0 8 5 15 10 15 6 0 10 -7 10 -15z m-1013 -1 c-3 -3 -12 -4 -19
-1 -8 3 -5 6 6 6 11 1 17 -2 13 -5z m-1877 -13 c0 -17 -18 -21 -24 -6 -3 9 0
15 9 15 8 0 15 -4 15 -9z m146 -6 c-8 -8 -17 -15 -19 -15 -3 0 -7 7 -11 15 -4
11 2 15 20 15 23 0 24 -2 10 -15z m1434 -15 c0 -11 -4 -20 -10 -20 -5 0 -10 9
-10 20 0 11 5 20 10 20 6 0 10 -9 10 -20z m-1485 0 c-3 -5 -11 -10 -16 -10 -6
0 -7 5 -4 10 3 6 11 10 16 10 6 0 7 -4 4 -10z m1640 -10 c3 -5 2 -10 -4 -10
-5 0 -13 5 -16 10 -3 6 -2 10 4 10 5 0 13 -4 16 -10z m-1671 -15 c3 -8 1 -15
-4 -15 -6 0 -10 7 -10 15 0 8 2 15 4 15 2 0 6 -7 10 -15z m101 -5 c4 -6 -5
-10 -20 -10 -15 0 -24 4 -20 10 3 6 12 10 20 10 8 0 17 -4 20 -10z m1635 2 c0
-4 -9 -13 -20 -20 -22 -13 -27 -3 -8 16 14 14 28 16 28 4z m-1688 -44 c6 -14
5 -16 -7 -12 -8 4 -15 18 -14 33 0 15 3 20 6 11 3 -8 10 -23 15 -32z m1318 32
c0 -5 -5 -10 -11 -10 -5 0 -7 5 -4 10 3 6 8 10 11 10 2 0 4 -4 4 -10z m200 0
c0 -5 -2 -10 -4 -10 -3 0 -8 5 -11 10 -3 6 -1 10 4 10 6 0 11 -4 11 -10z m-75
-10 c3 -5 -3 -10 -14 -10 -12 0 -21 5 -21 10 0 6 6 10 14 10 8 0 18 -4 21 -10z
m1615 -40 c0 -5 -4 -10 -10 -10 -5 0 -10 5 -10 10 0 6 5 10 10 10 6 0 10 -4
10 -10z m-81 -26 c12 -12 -8 -10 -34 2 l-30 14 30 -6 c16 -3 32 -8 34 -10z
m131 -15 c0 -5 -4 -9 -10 -9 -5 0 -10 7 -10 16 0 8 5 12 10 9 6 -3 10 -10 10
-16z m-63 -5 c-3 -3 -12 -4 -19 -1 -8 3 -5 6 6 6 11 1 17 -2 13 -5z m-2869
-67 c9 3 15 4 12 2 -3 -2 -15 -13 -27 -23 -22 -18 -22 -18 -18 10 5 39 7 42
12 22 3 -11 10 -15 21 -11z m2422 -7 c0 -5 -4 -10 -10 -10 -5 0 -10 5 -10 10
0 6 5 10 10 10 6 0 10 -4 10 -10z m-2400 -15 c0 -2 -7 -8 -15 -15 -12 -10 -15
-10 -15 2 0 8 7 15 15 15 8 0 15 -1 15 -2z m3155 -15 c3 -5 1 -10 -4 -10 -6 0
-11 5 -11 10 0 6 2 10 4 10 3 0 8 -4 11 -10z m-4105 -90 c0 -5 -5 -10 -11 -10
-5 0 -7 5 -4 10 3 6 8 10 11 10 2 0 4 -4 4 -10z m4527 4 c-3 -3 -12 -4 -19 -1
-8 3 -5 6 6 6 11 1 17 -2 13 -5z m-27 -84 c0 -5 -4 -10 -9 -10 -6 0 -13 5 -16
10 -3 6 1 10 9 10 9 0 16 -4 16 -10z m-343 -32 c-3 -8 -6 -5 -6 6 -1 11 2 17
5 13 3 -3 4 -12 1 -19z m-11 -50 c-5 -31 -5 -32 9 -14 12 16 15 17 15 4 0 -31
-11 -46 -31 -41 -22 6 -23 9 -8 52 14 41 23 40 15 -1z m5 -305 c-12 -20 -14
-14 -5 12 4 9 9 14 11 11 3 -2 0 -13 -6 -23z m-57 -195 c-8 -27 -12 -33 -19
-27 -7 8 7 49 17 49 5 0 6 -10 2 -22z m-3336 -29 c-7 -5 -8 -9 -3 -10 12 -1
-25 -17 -42 -18 -7 -1 -13 4 -13 10 0 5 5 7 12 3 7 -5 9 -2 5 9 -7 18 9 26 36
19 15 -4 16 -7 5 -13z m669 -21 c-4 -14 -36 -12 -51 3 -6 5 3 9 23 9 22 0 31
-4 28 -12z m-47 -24 c0 -3 -7 -12 -15 -20 -13 -14 -15 -13 -15 5 0 12 6 21 15
21 8 0 15 -3 15 -6z m-645 -14 c-3 -5 -10 -10 -16 -10 -5 0 -9 5 -9 10 0 6 7
10 16 10 8 0 12 -4 9 -10z m695 -17 c0 -13 -3 -13 -15 -3 -8 7 -12 16 -9 21 8
13 24 1 24 -18z m-455 -43 c-3 -5 -10 -10 -16 -10 -5 0 -9 5 -9 10 0 6 7 10
16 10 8 0 12 -4 9 -10z m143 -244 c-9 -10 -18 -11 -30 -5 -26 14 -22 19 12 19
26 0 29 -2 18 -14z m123 -474 c-14 -5 -15 -42 -1 -42 6 0 10 8 11 18 0 11 2
12 6 4 3 -7 0 -18 -5 -25 -12 -14 -4 -67 11 -67 5 0 16 8 23 18 8 10 13 12 14
4 0 -8 8 -10 23 -7 18 5 23 2 23 -13 0 -16 -7 -18 -51 -15 -35 2 -46 0 -35 -7
8 -5 27 -10 43 -10 15 0 27 -5 27 -11 0 -6 -8 -8 -19 -4 -18 6 -37 -18 -32
-40 2 -5 -1 -7 -5 -3 -4 4 -13 0 -21 -10 -14 -16 -14 -16 -9 1 4 13 1 17 -11
15 -10 -2 -19 5 -21 16 -3 14 0 17 12 13 13 -5 16 0 16 26 -1 29 -2 30 -14 15
-19 -26 -26 -22 -26 13 0 16 -4 28 -9 24 -5 -3 -12 -1 -16 5 -6 9 -1 11 35 14
10 1 14 10 12 26 -3 31 -11 38 -22 21 -6 -11 -9 -10 -12 5 -4 25 55 58 61 34
2 -8 -2 -16 -8 -18z m49 -13 c0 -11 -4 -18 -10 -14 -5 3 -7 12 -3 20 7 21 13
19 13 -6z m44 6 c6 -17 -2 -45 -14 -45 -9 0 -19 47 -12 55 10 9 20 5 26 -10z
m53 -47 c-3 -7 -5 -2 -5 12 0 14 2 19 5 13 2 -7 2 -19 0 -25z m-14 -145 c-7
-2 -19 -2 -25 0 -7 3 -2 5 12 5 14 0 19 -2 13 -5z m-655 -100 c-3 -17 -23 -24
-41 -15 -12 6 13 32 30 32 8 0 13 -7 11 -17z m341 -141 c-5 -13 -16 -30 -24
-39 -8 -8 -13 -19 -10 -24 4 -5 1 -9 -4 -9 -6 0 -20 -20 -32 -45 -12 -25 -25
-48 -30 -51 -5 -3 -9 -18 -9 -35 0 -24 -4 -29 -25 -29 -29 0 -30 5 -11 52 8
19 24 90 35 157 12 68 24 128 28 133 3 6 24 -10 48 -38 36 -41 41 -53 34 -72z
m1221 68 c0 -5 -2 -10 -4 -10 -3 0 -8 5 -11 10 -3 6 -1 10 4 10 6 0 11 -4 11
-10z m-1700 -200 c0 -5 -4 -10 -10 -10 -5 0 -10 5 -10 10 0 6 5 10 10 10 6 0
10 -4 10 -10z m1155 -9 c-3 -6 -11 -11 -17 -11 -6 0 -6 6 2 15 14 17 26 13 15
-4z m-338 -33 c-3 -8 -6 -5 -6 6 -1 11 2 17 5 13 3 -3 4 -12 1 -19z m-907
-128 c0 -5 -4 -10 -10 -10 -5 0 -10 5 -10 10 0 6 5 10 10 10 6 0 10 -4 10 -10z
m-10 -30 c0 -10 -38 -1 -45 10 -2 4 7 5 20 2 14 -2 25 -8 25 -12z m-686 -46
c23 -9 20 -23 -4 -21 -11 1 -20 7 -20 14 0 15 2 15 24 7z m706 -14 c9 -16 8
-18 -5 -14 -8 4 -15 12 -15 20 0 20 7 17 20 -6z m44 -92 c6 -4 7 -8 1 -8 -23
0 -38 18 -30 36 8 18 8 18 13 -1 2 -11 9 -23 16 -27z m-54 -58 c0 -5 -4 -10
-10 -10 -5 0 -10 5 -10 10 0 6 5 10 10 10 6 0 10 -4 10 -10z m40 -20 c0 -5 -4
-10 -10 -10 -5 0 -10 5 -10 10 0 6 5 10 10 10 6 0 10 -4 10 -10z m-87 -27 c-7
-2 -19 -2 -25 0 -7 3 -2 5 12 5 14 0 19 -2 13 -5z m-963 -233 c0 -5 -5 -10
-11 -10 -5 0 -7 5 -4 10 3 6 8 10 11 10 2 0 4 -4 4 -10z m15 -100 c3 -5 1 -10
-4 -10 -6 0 -11 5 -11 10 0 6 2 10 4 10 3 0 8 -4 11 -10z m-110 -160 c3 -5 2
-10 -4 -10 -5 0 -13 5 -16 10 -3 6 -2 10 4 10 5 0 13 -4 16 -10z m48 -37 c-7
-2 -19 -2 -25 0 -7 3 -2 5 12 5 14 0 19 -2 13 -5z m-5 -88 c-6 -14 -13 -23
-16 -21 -7 7 9 46 18 46 5 0 4 -11 -2 -25z m402 -16 c0 -21 -4 -28 -12 -23 -9
5 -9 2 1 -9 13 -16 8 -22 -13 -18 -5 1 -3 -5 4 -14 14 -16 11 -24 -26 -97 -8
-15 -13 -33 -12 -40 2 -8 -7 -13 -22 -14 -30 0 -80 -31 -80 -49 0 -13 -29 -29
-37 -21 -3 3 4 12 15 22 11 9 18 23 15 30 -3 8 2 14 11 14 9 0 16 8 16 19 0
24 -16 36 -23 19 -3 -7 -6 -3 -6 10 -1 19 2 21 18 12 22 -11 37 2 25 21 -3 6
-1 15 7 19 10 7 10 11 0 24 -11 13 -7 23 28 65 23 27 52 52 64 54 12 2 23 5
25 6 1 0 2 -13 2 -30z m-690 -166 c0 -5 -5 -15 -10 -23 -8 -12 -10 -11 -10 8
0 12 5 22 10 22 6 0 10 -3 10 -7z m45 -3 c3 -5 -1 -10 -9 -10 -9 0 -16 5 -16
10 0 6 4 10 9 10 6 0 13 -4 16 -10z m1073 -21 c-6 -4 -7 -16 -4 -27 4 -12 1
-26 -9 -36 -22 -22 -36 -11 -25 18 5 13 6 26 4 29 -3 3 0 14 7 25 9 15 15 17
25 8 7 -7 8 -13 2 -17z m-1248 -9 c0 -5 -7 -10 -15 -10 -8 0 -15 5 -15 10 0 6
7 10 15 10 8 0 15 -4 15 -10z m1174 4 c24 -9 19 -36 -13 -67 -38 -35 -50 -17
-14 19 31 31 31 33 11 45 -15 10 -7 12 16 3z m-679 -64 c3 -5 -1 -10 -9 -10
-9 0 -19 0 -23 -1 -4 0 -9 4 -11 10 -5 14 35 14 43 1z m283 -1 c-2 -6 -8 -10
-13 -10 -5 0 -11 4 -13 10 -2 6 4 11 13 11 9 0 15 -5 13 -11z m-342 -34 c1 -8
-12 -20 -31 -26 -19 -7 -31 -18 -28 -25 2 -6 -4 -18 -14 -25 -10 -8 -18 -23
-18 -33 0 -27 -21 -31 -28 -5 -3 11 -10 18 -16 14 -14 -8 -14 -35 -1 -35 17 0
11 -17 -8 -22 -10 -3 -23 1 -30 9 -7 7 -17 11 -21 9 -5 -3 -6 6 -3 19 2 14 8
25 13 25 5 0 6 -7 3 -15 -4 -10 0 -15 11 -15 14 0 16 7 13 31 -4 24 -1 33 11
36 9 2 21 14 26 26 6 12 21 24 35 25 14 2 31 9 38 14 8 7 12 7 12 -3 1 -9 4
-8 11 4 11 19 21 16 25 -8z m314 5 c9 -17 7 -22 -12 -29 -13 -5 -30 -6 -38 -3
-11 4 -8 8 10 13 l25 7 -22 7 c-31 10 -29 25 2 25 14 0 29 -8 35 -20z m-70
-49 c0 -5 -7 -11 -15 -15 -15 -5 -20 5 -8 17 9 10 23 9 23 -2z m-460 -145 c0
-9 -7 -12 -20 -9 -11 3 -17 9 -14 14 8 14 34 10 34 -5z m60 4 c0 -5 -4 -10
-10 -10 -5 0 -10 5 -10 10 0 6 5 10 10 10 6 0 10 -4 10 -10z m-80 -50 c-13
-25 -30 -26 -30 -2 0 14 2 15 10 2 8 -13 10 -12 10 3 0 9 5 17 10 17 7 0 7 -6
0 -20z m40 10 c0 -5 -4 -10 -10 -10 -5 0 -10 5 -10 10 0 6 5 10 10 10 6 0 10
-4 10 -10z m1695 -1490 c3 -5 1 -10 -4 -10 -6 0 -11 5 -11 10 0 6 2 10 4 10 3
0 8 -4 11 -10z m65 -16 c0 -8 -5 -12 -10 -9 -6 4 -8 11 -5 16 9 14 15 11 15
-7z m-710 -1814 c0 -5 -2 -10 -4 -10 -3 0 -8 5 -11 10 -3 6 -1 10 4 10 6 0 11
-4 11 -10z"/>
<path d="M2746 12349 c6 -11 31 -12 37 -1 3 4 -6 8 -19 8 -13 1 -21 -2 -18 -7z"/>
<path d="M2718 12333 c7 -3 16 -2 19 1 4 3 -2 6 -13 5 -11 0 -14 -3 -6 -6z"/>
<path d="M2590 12310 c-13 -9 -13 -10 0 -10 8 0 22 5 30 10 13 9 13 10 0 10
-8 0 -22 -5 -30 -10z"/>
<path d="M3265 11680 c3 -5 16 -10 27 -10 26 0 16 13 -13 17 -12 2 -18 -1 -14
-7z"/>
<path d="M3336 11661 c-4 -5 -2 -12 3 -15 5 -4 12 -2 15 3 4 5 2 12 -3 15 -5
4 -12 2 -15 -3z"/>
<path d="M6911 11277 c-15 -19 -2 -29 15 -12 8 7 14 16 14 19 0 11 -17 6 -29
-7z"/>
<path d="M6885 11220 c-3 -5 -1 -10 4 -10 6 0 11 5 11 10 0 6 -2 10 -4 10 -3
0 -8 -4 -11 -10z"/>
<path d="M6049 10858 c0 -2 -3 -16 -5 -32 -3 -16 -9 -37 -15 -47 -13 -26 -12
-29 15 -29 14 0 28 -5 31 -10 5 -8 11 -7 21 1 11 9 14 8 15 -2 0 -8 4 -4 9 9
5 12 14 22 20 22 5 0 10 11 10 25 0 17 6 25 18 26 9 0 -10 9 -43 20 -58 18
-74 22 -76 17z"/>
<path d="M6270 10602 c-8 -4 -16 -14 -16 -22 -1 -8 -5 -23 -9 -32 -5 -13 -2
-18 9 -18 10 0 16 8 16 21 0 19 1 19 16 5 8 -9 12 -20 9 -26 -3 -5 0 -10 8
-10 18 0 28 36 21 67 -6 23 -25 28 -54 15z"/>
<path d="M6280 10501 c0 -6 5 -13 10 -16 6 -3 10 1 10 9 0 9 -4 16 -10 16 -5
0 -10 -4 -10 -9z"/>
<path d="M6772 10485 c-7 -8 -9 -15 -4 -15 5 0 15 7 22 15 16 19 -1 19 -18 0z"/>
<path d="M6757 10446 c-3 -8 -2 -18 3 -21 13 -8 20 9 11 24 -6 10 -10 9 -14
-3z"/>
<path d="M3685 11150 c-3 -5 3 -10 14 -10 12 0 21 5 21 10 0 6 -6 10 -14 10
-8 0 -18 -4 -21 -10z"/>
<path d="M381 9293 c0 -6 -9 -13 -18 -16 -17 -4 -17 -4 0 -12 22 -9 30 -2 24
22 -3 10 -5 13 -6 6z"/>
<path d="M357 9173 c-10 -9 -9 -23 2 -23 5 0 11 7 15 15 5 15 -5 20 -17 8z"/>
<path d="M3866 8901 c-5 -7 -3 -18 3 -24 14 -14 20 -6 11 17 -5 15 -9 16 -14
7z"/>
<path d="M3823 8808 c-17 -8 -21 -17 -17 -34 5 -20 2 -24 -16 -24 -16 0 -20 4
-16 15 7 20 4 19 -57 -8 -29 -13 -63 -29 -77 -35 -17 -7 -19 -11 -8 -11 9 -1
24 -4 33 -7 10 -4 15 -2 13 7 -2 7 5 15 15 17 12 2 17 -3 17 -18 0 -12 4 -19
10 -15 5 3 7 12 3 20 -3 8 0 15 7 15 6 0 8 5 4 11 -4 7 1 9 12 7 11 -2 18 -10
17 -16 -2 -7 2 -12 7 -12 6 0 10 -10 10 -22 0 -19 2 -20 10 -8 5 8 7 24 4 35
-5 16 -4 18 7 8 7 -7 18 -13 24 -13 5 0 3 5 -5 10 -13 8 -13 11 -1 19 7 5 11
15 9 22 -3 8 5 21 16 31 23 19 13 22 -21 6z"/>
<path d="M3543 8703 c-13 -2 -23 -8 -23 -12 0 -11 49 -1 56 10 3 5 2 8 -3 8
-4 -1 -18 -4 -30 -6z"/>
<path d="M2758 12787 c24 -7 36 -7 44 1 9 9 1 12 -32 11 l-45 -1 33 -11z"/>
<path d="M2832 12788 c6 -17 57 -21 136 -13 96 10 73 25 -39 25 -76 0 -100 -3
-97 -12z"/>
<path d="M2940 12600 c0 -5 5 -10 10 -10 6 0 10 5 10 10 0 6 -4 10 -10 10 -5
0 -10 -4 -10 -10z"/>
<path d="M2905 12580 c4 -6 11 -8 16 -5 14 9 11 15 -7 15 -8 0 -12 -5 -9 -10z"/>
<path d="M2970 12580 c0 -5 7 -10 16 -10 8 0 12 5 9 10 -3 6 -10 10 -16 10 -5
0 -9 -4 -9 -10z"/>
<path d="M2500 12510 c0 -5 5 -10 10 -10 6 0 10 5 10 10 0 6 -4 10 -10 10 -5
0 -10 -4 -10 -10z"/>
<path d="M2430 12502 c0 -5 14 -7 30 -4 17 2 30 6 30 8 0 2 -13 4 -30 4 -16 0
-30 -4 -30 -8z"/>
<path d="M2652 12461 c-10 -6 -7 -10 13 -15 32 -8 46 1 25 14 -18 12 -22 12
-38 1z"/>
<path d="M2725 12460 c3 -5 11 -10 16 -10 6 0 7 5 4 10 -3 6 -11 10 -16 10 -6
0 -7 -4 -4 -10z"/>
<path d="M2110 12395 c-10 -12 -7 -13 21 -5 42 12 49 20 17 20 -14 0 -31 -7
-38 -15z"/>
<path d="M1600 12377 c0 -9 -4 -17 -10 -17 -5 0 -10 -4 -10 -10 0 -5 4 -10 9
-10 12 0 25 39 17 47 -3 4 -6 -1 -6 -10z"/>
<path d="M2508 12383 c7 -3 16 -2 19 1 4 3 -2 6 -13 5 -11 0 -14 -3 -6 -6z"/>
<path d="M990 12230 c0 -5 5 -10 10 -10 6 0 10 5 10 10 0 6 -4 10 -10 10 -5 0
-10 -4 -10 -10z"/>
<path d="M931 12104 c16 -16 34 -24 45 -21 15 4 13 7 -13 18 -18 7 -33 17 -33
21 0 4 -6 8 -12 8 -7 0 -1 -12 13 -26z"/>
<path d="M2110 11680 c19 -13 30 -13 30 0 0 6 -10 10 -22 10 -19 0 -20 -2 -8
-10z"/>
<path d="M836 11611 c-4 -7 -5 -15 -2 -18 9 -9 19 4 14 18 -4 11 -6 11 -12 0z"/>
<path d="M830 11561 c0 -5 5 -13 10 -16 6 -3 10 -2 10 4 0 5 -4 13 -10 16 -5
3 -10 2 -10 -4z"/>
<path d="M2440 11501 c0 -12 5 -21 10 -21 6 0 10 6 10 14 0 8 -4 18 -10 21 -5
3 -10 -3 -10 -14z"/>
<path d="M2421 11484 c0 -11 3 -14 6 -6 3 7 2 16 -1 19 -3 4 -6 -2 -5 -13z"/>
<path d="M2750 11430 c0 -5 5 -10 10 -10 6 0 10 5 10 10 0 6 -4 10 -10 10 -5
0 -10 -4 -10 -10z"/>
<path d="M3043 11355 c-3 -9 -3 -19 1 -22 8 -9 37 18 30 28 -8 14 -24 11 -31
-6z"/>
<path d="M2962 11347 c-6 -7 -7 -18 -3 -26 7 -10 10 -8 16 8 8 27 2 36 -13 18z"/>
<path d="M806 11204 c-4 -10 -1 -14 6 -12 15 5 23 28 10 28 -5 0 -13 -7 -16
-16z"/>
<path d="M3027 11196 c-4 -10 -7 -27 -6 -39 0 -12 3 -16 6 -9 2 6 10 12 18 12
7 0 18 7 25 15 10 12 9 15 -8 15 -11 0 -22 5 -24 12 -3 7 -7 5 -11 -6z"/>
<path d="M810 11124 c0 -8 5 -12 10 -9 6 4 8 11 5 16 -9 14 -15 11 -15 -7z"/>
<path d="M545 11101 c-3 -5 -1 -12 5 -16 5 -3 10 1 10 9 0 18 -6 21 -15 7z"/>
<path d="M2950 11080 c0 -5 7 -7 15 -4 8 4 15 8 15 10 0 2 -7 4 -15 4 -8 0
-15 -4 -15 -10z"/>
<path d="M2982 11029 c2 -7 10 -15 17 -17 8 -3 12 1 9 9 -2 7 -10 15 -17 17
-8 3 -12 -1 -9 -9z"/>
<path d="M530 10996 c0 -9 5 -16 10 -16 6 0 10 4 10 9 0 6 -4 13 -10 16 -5 3
-10 -1 -10 -9z"/>
<path d="M2940 10930 c0 -5 4 -10 9 -10 6 0 13 5 16 10 3 6 -1 10 -9 10 -9 0
-16 -4 -16 -10z"/>
<path d="M2864 10894 c3 -9 6 -18 6 -20 0 -3 5 -2 10 1 16 10 12 35 -6 35 -11
0 -14 -5 -10 -16z"/>
<path d="M7117 10893 c-4 -3 -7 -11 -7 -17 0 -6 5 -5 12 2 6 6 9 14 7 17 -3 3
-9 2 -12 -2z"/>
<path d="M2710 10651 c0 -6 5 -13 10 -16 6 -3 10 1 10 9 0 9 -4 16 -10 16 -5
0 -10 -4 -10 -9z"/>
<path d="M7177 10552 c-11 -26 -23 -56 -27 -67 -5 -11 -32 -81 -60 -155 -74
-194 -130 -339 -151 -386 -10 -23 -21 -54 -25 -68 -9 -37 11 -34 125 18 53 23
111 49 129 57 l32 14 0 317 c0 175 -1 318 -2 318 -2 0 -11 -21 -21 -48z"/>
<path d="M1928 10538 c2 -10 9 -17 15 -15 19 6 18 24 -1 29 -15 4 -18 1 -14
-14z"/>
<path d="M2783 10505 c-20 -22 -16 -51 7 -52 16 -1 20 4 20 33 0 36 -8 42 -27
19z"/>
<path d="M2154 10495 c-3 -8 -4 -20 -2 -27 3 -7 7 -1 10 15 6 29 1 36 -8 12z"/>
<path d="M1916 10475 c4 -8 10 -15 15 -15 5 0 9 7 9 15 0 8 -7 15 -15 15 -9 0
-12 -6 -9 -15z"/>
<path d="M2896 10431 c-4 -7 -5 -15 -2 -18 9 -9 19 4 14 18 -4 11 -6 11 -12 0z"/>
<path d="M2956 10397 c3 -10 9 -15 12 -12 3 3 0 11 -7 18 -10 9 -11 8 -5 -6z"/>
<path d="M2835 10150 c3 -5 10 -10 16 -10 5 0 9 5 9 10 0 6 -7 10 -16 10 -8 0
-12 -4 -9 -10z"/>
<path d="M2131 10138 c0 -10 -8 -18 -16 -18 -8 0 -15 -9 -15 -20 0 -20 0 -20
21 1 11 11 18 28 16 37 -4 15 -5 15 -6 0z"/>
<path d="M2800 10130 c0 -5 5 -10 11 -10 5 0 7 5 4 10 -3 6 -8 10 -11 10 -2 0
-4 -4 -4 -10z"/>
<path d="M2805 10090 c-3 -5 -1 -10 4 -10 6 0 11 5 11 10 0 6 -2 10 -4 10 -3
0 -8 -4 -11 -10z"/>
<path d="M2830 10055 c0 -9 -6 -15 -12 -14 -24 3 -38 -1 -38 -11 0 -11 63 -1
68 12 2 4 10 8 18 8 8 0 14 5 14 10 0 6 -11 10 -25 10 -16 0 -25 -6 -25 -15z"/>
<path d="M2100 10036 c0 -9 5 -16 10 -16 6 0 10 4 10 9 0 6 -4 13 -10 16 -5 3
-10 -1 -10 -9z"/>
<path d="M2163 10012 c3 -32 21 -36 25 -6 2 12 -4 24 -12 27 -11 4 -14 -1 -13
-21z"/>
<path d="M2778 9993 c7 -3 16 -2 19 1 4 3 -2 6 -13 5 -11 0 -14 -3 -6 -6z"/>
<path d="M2140 9897 c0 -16 -5 -18 -41 -12 l-42 7 19 -25 c13 -17 20 -21 22
-12 3 15 32 9 43 -8 8 -12 29 0 29 17 0 7 -7 21 -15 32 -14 18 -14 18 -15 1z"/>
<path d="M2688 9878 c9 -9 15 -9 24 0 9 9 7 12 -12 12 -19 0 -21 -3 -12 -12z"/>
<path d="M5440 9839 c0 -5 5 -7 10 -4 6 3 10 8 10 11 0 2 -4 4 -10 4 -5 0 -10
-5 -10 -11z"/>
<path d="M2131 9814 c0 -11 3 -14 6 -6 3 7 2 16 -1 19 -3 4 -6 -2 -5 -13z"/>
<path d="M2200 9810 c20 -13 33 -13 25 0 -3 6 -14 10 -23 10 -15 0 -15 -2 -2
-10z"/>
<path d="M5604 9795 c11 -8 34 -15 50 -14 34 1 30 3 -29 18 -36 9 -38 9 -21
-4z"/>
<path d="M2241 9764 c31 -17 36 -17 36 0 0 10 -11 14 -30 14 l-29 -1 23 -13z"/>
<path d="M5721 9766 c2 -2 28 -13 58 -25 30 -11 49 -15 43 -9 -6 6 -28 17 -49
25 -38 13 -60 17 -52 9z"/>
<path d="M5846 9731 c12 -13 85 -33 92 -26 2 2 -11 8 -30 13 -18 5 -42 13 -53
17 -15 6 -17 5 -9 -4z"/>
<path d="M1977 9723 c-13 -12 -7 -24 9 -21 10 2 19 -3 22 -11 2 -8 0 -11 -5
-8 -6 4 -15 -5 -21 -18 -6 -13 -7 -27 -2 -30 4 -3 11 1 13 7 3 8 6 6 6 -4 1
-10 6 -18 12 -18 7 0 9 10 5 24 -3 14 -2 27 4 31 10 6 2 36 -14 47 -14 10 -21
10 -29 1z"/>
<path d="M5950 9697 c0 -6 102 -42 112 -39 4 1 18 -2 30 -7 45 -16 83 -23 73
-12 -5 5 -46 19 -90 31 -113 30 -125 33 -125 27z"/>
<path d="M6180 9632 c0 -11 19 -19 60 -27 12 -2 31 -7 43 -11 15 -4 19 -3 12
4 -5 6 -26 15 -45 20 -19 5 -43 13 -52 17 -11 4 -18 3 -18 -3z"/>
<path d="M2060 9561 c0 -5 7 -14 15 -21 8 -7 12 -17 8 -24 -3 -6 0 -5 8 2 12
11 12 14 0 21 -7 5 -10 14 -7 20 4 6 0 11 -8 11 -9 0 -16 -4 -16 -9z"/>
<path d="M6380 9530 c8 -5 20 -10 25 -10 6 0 3 5 -5 10 -8 5 -19 10 -25 10 -5
0 -3 -5 5 -10z"/>
<path d="M6465 9500 c27 -12 43 -12 25 0 -8 5 -22 9 -30 9 -10 0 -8 -3 5 -9z"/>
<path d="M2085 9490 c3 -5 10 -10 16 -10 5 0 9 5 9 10 0 6 -7 10 -16 10 -8 0
-12 -4 -9 -10z"/>
<path d="M2090 9445 c0 -8 2 -15 4 -15 2 0 6 7 10 15 3 8 1 15 -4 15 -6 0 -10
-7 -10 -15z"/>
<path d="M6634 9435 c3 -22 13 -27 19 -11 3 8 0 17 -8 19 -7 3 -12 0 -11 -8z"/>
<path d="M2440 9405 c0 -8 5 -15 10 -15 6 0 10 7 10 15 0 8 -4 15 -10 15 -5 0
-10 -7 -10 -15z"/>
<path d="M6660 9403 c0 -5 7 -18 15 -29 12 -16 14 -16 15 -3 0 9 -7 22 -15 29
-8 7 -15 8 -15 3z"/>
<path d="M1270 9354 c0 -8 5 -12 10 -9 6 4 8 11 5 16 -9 14 -15 11 -15 -7z"/>
<path d="M1300 9360 c0 -13 11 -13 30 0 12 8 11 10 -7 10 -13 0 -23 -4 -23
-10z"/>
<path d="M2411 9346 c-8 -10 -9 -16 -1 -21 13 -8 30 3 30 21 0 18 -14 18 -29
0z"/>
<path d="M1255 9320 c-3 -5 -1 -10 4 -10 6 0 11 5 11 10 0 6 -2 10 -4 10 -3 0
-8 -4 -11 -10z"/>
<path d="M5970 9310 c0 -5 -6 -7 -13 -4 -10 4 -47 -42 -47 -60 0 -5 163 -59
215 -70 l30 -6 -26 16 c-14 9 -31 30 -39 47 -13 29 -14 30 -21 9 -5 -12 -14
-22 -20 -22 -7 0 -9 3 -6 7 8 7 -11 33 -25 33 -5 0 -7 -4 -3 -9 3 -5 1 -12 -5
-16 -5 -3 -11 3 -11 14 -1 12 -3 26 -4 31 -1 6 -3 17 -4 25 -1 16 -21 21 -21
5z"/>
<path d="M6070 9290 c-20 -16 -21 -20 -8 -20 10 0 22 9 28 20 13 25 11 25 -20
0z"/>
<path d="M1245 9290 c-3 -5 -1 -10 4 -10 6 0 11 5 11 10 0 6 -2 10 -4 10 -3 0
-8 -4 -11 -10z"/>
<path d="M5570 9296 c0 -2 7 -7 16 -10 8 -3 12 -2 9 4 -6 10 -25 14 -25 6z"/>
<path d="M5680 9263 c0 -17 37 -35 72 -35 59 1 56 7 -12 24 -33 8 -60 13 -60
11z"/>
<path d="M6490 9230 c0 -6 7 -10 15 -10 8 0 15 2 15 4 0 2 -7 6 -15 10 -8 3
-15 1 -15 -4z"/>
<path d="M5896 9195 c4 -8 13 -15 21 -15 13 0 13 3 3 15 -7 8 -16 15 -21 15
-5 0 -6 -7 -3 -15z"/>
<path d="M5750 9190 c0 -5 7 -10 16 -10 8 0 12 5 9 10 -3 6 -10 10 -16 10 -5
0 -9 -4 -9 -10z"/>
<path d="M5574 9181 c4 -5 1 -12 -4 -14 -6 -3 -5 -4 2 -3 15 3 23 26 8 26 -6
0 -9 -4 -6 -9z"/>
<path d="M5945 9180 c3 -5 11 -10 16 -10 6 0 7 5 4 10 -3 6 -11 10 -16 10 -6
0 -7 -4 -4 -10z"/>
<path d="M5608 9153 c7 -3 16 -2 19 1 4 3 -2 6 -13 5 -11 0 -14 -3 -6 -6z"/>
<path d="M5720 9130 c-12 -8 -10 -10 8 -10 13 0 20 4 17 10 -7 12 -6 12 -25 0z"/>
<path d="M5920 9125 c0 -9 6 -12 15 -9 8 4 15 10 15 15 0 5 -7 9 -15 9 -8 0
-15 -7 -15 -15z"/>
<path d="M6186 9079 c-13 -16 -15 -24 -6 -33 13 -13 30 7 30 37 0 22 -2 21
-24 -4z"/>
<path d="M6280 9030 c0 -5 5 -10 10 -10 6 0 10 5 10 10 0 6 -4 10 -10 10 -5 0
-10 -4 -10 -10z"/>
<path d="M2254 8749 c-3 -6 -1 -16 5 -22 8 -8 11 -5 11 11 0 24 -5 28 -16 11z"/>
<path d="M1720 8700 c0 -5 5 -10 10 -10 6 0 10 5 10 10 0 6 -4 10 -10 10 -5 0
-10 -4 -10 -10z"/>
<path d="M1857 8630 c-6 -23 8 -26 29 -6 19 19 18 26 -5 26 -10 0 -21 -9 -24
-20z"/>
<path d="M2100 8590 c-24 -8 -23 -8 8 -9 20 -1 31 3 27 9 -3 6 -7 10 -8 9 -1
-1 -13 -5 -27 -9z"/>
<path d="M2249 8129 c-1 -8 -1 -21 0 -29 1 -11 -1 -12 -6 -3 -5 7 -17 11 -28
9 -16 -2 -20 -10 -19 -44 0 -38 -1 -41 -23 -36 -17 5 -23 2 -23 -10 0 -9 -4
-16 -10 -16 -5 0 -10 8 -10 17 0 15 -2 14 -19 -3 -10 -10 -14 -21 -9 -22 5 -2
4 -10 -2 -17 -8 -10 -6 -15 9 -20 12 -4 21 -15 21 -27 0 -14 -5 -18 -15 -14
-17 6 -21 -9 -5 -19 7 -4 7 -13 0 -26 -9 -15 -7 -19 5 -19 8 0 15 -7 15 -15 0
-8 -7 -15 -15 -15 -8 0 -15 -8 -15 -19 0 -14 6 -17 25 -13 14 2 25 0 25 -7 0
-5 6 -8 14 -5 7 3 16 -2 20 -11 9 -24 26 -8 26 25 0 41 18 83 31 74 8 -5 10 1
7 20 -4 19 -1 26 10 26 12 0 14 17 9 111 -3 61 -8 113 -11 116 -3 4 -7 0 -7
-8z m-89 -159 c0 -5 -2 -10 -4 -10 -3 0 -8 5 -11 10 -3 6 -1 10 4 10 6 0 11
-4 11 -10z"/>
<path d="M2567 8090 c-3 -12 0 -20 8 -20 7 0 15 -7 19 -15 3 -8 12 -15 20 -15
10 0 13 6 10 15 -4 8 -12 15 -20 15 -8 0 -14 9 -14 20 0 11 -4 20 -9 20 -5 0
-11 -9 -14 -20z"/>
<path d="M2156 8082 c-3 -6 -1 -14 5 -17 15 -10 25 3 12 16 -7 7 -13 7 -17 1z"/>
<path d="M2265 7890 c3 -5 8 -10 11 -10 2 0 4 5 4 10 0 6 -5 10 -11 10 -5 0
-7 -4 -4 -10z"/>
<path d="M2240 7790 c0 -5 7 -10 15 -10 8 0 15 5 15 10 0 6 -7 10 -15 10 -8 0
-15 -4 -15 -10z"/>
<path d="M5475 7780 c27 -12 43 -12 25 0 -8 5 -22 9 -30 9 -10 0 -8 -3 5 -9z"/>
<path d="M5750 7680 c-9 -5 -9 -9 -1 -14 6 -4 15 -4 21 -1 5 3 7 0 4 -8 -4
-11 4 -14 38 -14 24 1 51 -3 62 -7 14 -7 18 -6 14 5 -2 7 -20 17 -39 22 -19 4
-46 12 -60 16 -15 5 -32 5 -39 1z"/>
<path d="M5815 7630 c3 -5 8 -10 11 -10 2 0 4 5 4 10 0 6 -5 10 -11 10 -5 0
-7 -4 -4 -10z"/>
<path d="M5846 7625 c4 -8 12 -15 20 -15 20 0 17 7 -6 20 -16 9 -18 8 -14 -5z"/>
<path d="M2550 7621 c0 -6 5 -13 10 -16 6 -3 10 1 10 9 0 9 -4 16 -10 16 -5 0
-10 -4 -10 -9z"/>
<path d="M5176 7603 c-6 -14 -5 -15 5 -6 7 7 10 15 7 18 -3 3 -9 -2 -12 -12z"/>
<path d="M5865 7590 c3 -5 8 -10 11 -10 2 0 4 5 4 10 0 6 -5 10 -11 10 -5 0
-7 -4 -4 -10z"/>
<path d="M5102 7555 c0 -16 2 -22 5 -12 2 9 2 23 0 30 -3 6 -5 -1 -5 -18z"/>
<path d="M5820 7560 c0 -5 5 -10 10 -10 6 0 10 5 10 10 0 6 -4 10 -10 10 -5 0
-10 -4 -10 -10z"/>
<path d="M2576 7477 c-11 -8 -15 -17 -9 -20 14 -9 54 4 50 16 -5 17 -21 18
-41 4z"/>
<path d="M2480 7220 c0 -5 5 -10 11 -10 5 0 7 5 4 10 -3 6 -8 10 -11 10 -2 0
-4 -4 -4 -10z"/>
<path d="M2498 7108 c-22 -27 -24 -45 -2 -24 8 9 20 16 25 16 5 0 9 7 9 15 0
21 -12 18 -32 -7z"/>
<path d="M2960 6897 c0 -8 -8 -18 -17 -20 -17 -4 -17 -5 0 -6 18 -1 35 25 23
36 -3 4 -6 -1 -6 -10z"/>
<path d="M2940 6016 c0 -2 7 -6 15 -10 8 -3 15 -1 15 4 0 6 -7 10 -15 10 -8 0
-15 -2 -15 -4z"/>
<path d="M2294 5246 c-10 -8 -16 -17 -13 -20 10 -10 39 5 39 20 0 17 -2 17
-26 0z"/>
<path d="M1795 5080 c3 -5 11 -10 16 -10 6 0 7 5 4 10 -3 6 -11 10 -16 10 -6
0 -7 -4 -4 -10z"/>
<path d="M1468 5043 c7 -3 16 -2 19 1 4 3 -2 6 -13 5 -11 0 -14 -3 -6 -6z"/>
<path d="M1940 5030 c0 -5 4 -10 9 -10 6 0 13 5 16 10 3 6 -1 10 -9 10 -9 0
-16 -4 -16 -10z"/>
<path d="M1983 5024 c0 -7 9 -14 19 -14 10 0 18 2 18 5 0 2 -8 9 -18 14 -14 8
-19 6 -19 -5z"/>
<path d="M2166 5025 c-3 -8 -1 -15 4 -15 6 0 10 7 10 15 0 8 -2 15 -4 15 -2 0
-6 -7 -10 -15z"/>
<path d="M1440 5015 c0 -9 6 -12 15 -9 8 4 12 10 9 15 -8 14 -24 10 -24 -6z"/>
<path d="M2155 4920 c-3 -6 1 -7 9 -4 18 7 21 14 7 14 -6 0 -13 -4 -16 -10z"/>
<path d="M1120 4320 c0 -6 7 -10 15 -10 8 0 15 2 15 4 0 2 -7 6 -15 10 -8 3
-15 1 -15 -4z"/>
<path d="M1168 4313 c7 -3 16 -2 19 1 4 3 -2 6 -13 5 -11 0 -14 -3 -6 -6z"/>
<path d="M991 4133 c-18 -19 -9 -26 14 -9 10 7 14 15 9 18 -5 3 -15 -1 -23 -9z"/>
<path d="M693 4078 c2 -7 8 -13 13 -14 5 0 22 -6 38 -13 20 -8 33 -8 39 -2 15
15 3 23 -32 25 -16 1 -33 5 -37 9 -12 11 -26 8 -21 -5z"/>
<path d="M800 4060 c0 -5 5 -10 10 -10 6 0 10 5 10 10 0 6 -4 10 -10 10 -5 0
-10 -4 -10 -10z"/>
<path d="M2106 3878 c3 -12 12 -27 18 -33 13 -13 61 -14 73 -1 5 5 -5 6 -22 2
-16 -4 -27 -5 -24 -1 7 6 -36 55 -47 55 -3 0 -2 -10 2 -22z"/>
<path d="M6262 3432 c-1 -7 -6 -10 -12 -7 -5 3 -10 0 -11 -7 0 -7 -2 -24 -3
-38 -10 -99 -15 -262 -7 -245 15 36 42 221 38 266 -2 24 -4 38 -5 31z"/>
<path d="M6180 2894 c0 -8 5 -12 10 -9 6 3 10 10 10 16 0 5 -4 9 -10 9 -5 0
-10 -7 -10 -16z"/>
<path d="M6165 2783 c-4 -37 -9 -79 -10 -93 -2 -14 -8 -54 -15 -89 -7 -42 -8
-67 -1 -74 5 -5 7 -16 4 -25 -4 -9 -2 -13 5 -9 6 4 13 21 17 38 4 17 21 67 39
112 30 77 31 84 17 112 -8 17 -17 43 -21 59 -11 54 -27 39 -35 -31z m-5 -222
c0 -6 -4 -13 -10 -16 -5 -3 -10 1 -10 9 0 9 5 16 10 16 6 0 10 -4 10 -9z"/>
<path d="M6117 2496 c-10 -24 -9 -28 4 -20 8 4 9 -4 5 -27 -5 -31 -5 -32 4 -8
6 15 7 35 2 49 -8 20 -9 21 -15 6z"/>
<path d="M6111 2398 c0 -10 -6 -18 -12 -18 -5 0 -7 -5 -3 -11 10 -16 27 5 21
27 -4 17 -5 17 -6 2z"/>
<path d="M6081 2348 c-1 -23 15 -32 23 -12 3 8 2 13 -3 9 -5 -3 -12 1 -14 7
-4 8 -6 7 -6 -4z"/>
<path d="M6078 2268 c5 -46 7 -45 16 3 4 26 3 36 -6 36 -9 0 -12 -12 -10 -39z"/>
<path d="M6057 2149 c2 -16 -1 -36 -7 -44 -7 -9 -8 -15 -1 -19 6 -4 8 -12 6
-19 -2 -7 -6 -25 -10 -41 -5 -23 -8 -27 -16 -15 -7 11 -9 9 -9 -7 0 -12 7 -27
15 -34 19 -16 9 -33 -16 -27 -16 4 -18 0 -15 -34 2 -21 0 -39 -5 -39 -5 0 -9
-7 -9 -15 0 -9 -6 -18 -14 -21 -23 -9 -17 -52 8 -56 29 -4 35 -39 5 -36 -12 2
-24 -3 -26 -9 -3 -8 3 -13 14 -13 12 0 18 -8 19 -26 2 -20 -2 -25 -20 -24 -27
2 -66 -10 -66 -20 0 -10 20 -8 38 4 7 4 14 6 15 5 1 -2 8 -14 14 -26 11 -19
10 -24 -5 -32 -14 -9 -12 -11 13 -12 19 -1 23 -3 12 -6 -11 -3 -16 -11 -13
-19 3 -7 1 -16 -4 -19 -6 -4 -10 -1 -10 4 0 16 -26 13 -39 -3 -10 -11 -8 -16
7 -20 11 -4 28 -16 38 -27 17 -19 17 -20 -4 -26 -26 -6 -29 -21 -6 -30 13 -5
13 -8 2 -15 -10 -7 -10 -11 0 -15 18 -7 15 -23 -5 -23 -13 0 -14 -3 -5 -12 7
-7 12 -21 12 -33 0 -12 5 -26 12 -33 6 -6 8 -15 4 -19 -4 -4 -11 -1 -17 7 -8
13 -11 13 -20 -2 -5 -10 -16 -18 -24 -18 -8 0 -19 8 -24 18 -9 15 -10 15 -11
0 0 -9 7 -23 15 -32 20 -19 19 -46 -1 -46 -8 0 -12 -5 -8 -11 4 -7 10 -7 16
-1 6 6 17 8 26 5 12 -5 14 -1 9 16 -4 17 -2 21 11 19 10 -2 16 -11 14 -21 -2
-11 4 -17 15 -17 11 0 14 -3 7 -8 -7 -4 -13 -16 -15 -27 -5 -26 -22 -22 -31 7
-5 18 -6 15 -7 -15 -1 -29 -6 -40 -23 -47 -17 -6 -19 -9 -6 -9 11 -1 15 -6 12
-16 -4 -9 0 -15 9 -15 9 0 19 -5 23 -12 5 -8 0 -9 -14 -6 -13 4 -22 1 -22 -5
0 -7 -5 -5 -10 3 -8 12 -10 11 -10 -5 0 -18 5 -20 35 -17 28 3 35 1 35 -13 0
-14 -7 -16 -35 -13 -19 2 -35 0 -35 -4 0 -4 6 -8 13 -8 6 0 26 -12 42 -26 l30
-27 -27 7 c-21 5 -28 3 -28 -9 0 -9 9 -15 23 -15 20 -1 21 -1 4 -11 -10 -6
-29 -8 -43 -5 -22 6 -24 3 -24 -29 0 -25 -4 -35 -16 -35 -19 0 -14 -20 8 -34
12 -7 21 -6 33 4 15 13 16 15 1 26 -23 16 -16 37 13 46 31 9 36 5 16 -15 -17
-18 -20 -37 -5 -37 6 0 10 -4 10 -10 0 -5 -5 -10 -10 -10 -6 0 -20 -9 -31 -19
-12 -11 -37 -22 -57 -26 -21 -4 -31 -10 -24 -12 6 -3 12 -9 12 -14 0 -6 -4 -7
-10 -4 -5 3 -10 2 -10 -3 0 -5 9 -12 21 -15 17 -5 19 -9 9 -26 -6 -12 -15 -21
-20 -21 -15 0 -12 11 8 27 16 14 16 14 -1 9 -10 -3 -23 -6 -28 -6 -6 0 -7 -5
-4 -10 4 -6 -8 -15 -25 -21 -20 -7 -29 -16 -26 -25 3 -9 -1 -14 -13 -14 -10 0
-23 -11 -29 -25 -6 -14 -16 -25 -22 -25 -5 0 -10 -4 -10 -9 0 -18 42 2 52 25
6 13 15 24 20 24 13 0 9 -16 -7 -30 -9 -7 -13 -20 -10 -28 3 -9 0 -12 -8 -9
-16 6 -40 -29 -31 -45 5 -8 2 -9 -9 -5 -39 15 -64 -22 -29 -42 16 -10 16 -10
-1 -11 -10 0 -22 -11 -27 -25 -9 -24 -19 -29 -49 -26 -8 2 -10 -2 -5 -10 5 -9
2 -10 -9 -6 -24 9 -21 -6 3 -21 16 -10 18 -16 10 -31 -7 -14 -6 -21 3 -24 6
-3 -1 -10 -17 -16 -23 -9 -26 -14 -16 -26 14 -17 4 -38 -16 -31 -7 3 -16 1
-19 -4 -4 -6 1 -10 9 -10 9 0 16 -5 16 -10 0 -7 6 -7 20 0 16 9 20 8 20 -5 0
-8 -3 -15 -7 -15 -5 0 -8 -24 -8 -52 1 -42 4 -54 18 -56 18 -4 22 -22 8 -38
-5 -5 -5 -19 0 -31 l8 -23 340 0 339 0 7 28 c3 15 18 40 33 55 l27 28 3 197
c2 108 2 261 2 339 -3 228 24 337 87 366 35 15 39 21 47 70 5 31 3 45 -12 61
-28 31 -102 147 -102 159 0 6 -3 7 -7 3 -5 -4 -8 -22 -9 -39 -1 -82 -41 -297
-55 -297 -4 0 -6 -6 -3 -14 3 -7 -1 -20 -9 -27 -7 -8 -12 -19 -10 -25 2 -6 -3
-17 -12 -24 -8 -7 -15 -18 -15 -24 0 -22 -61 -126 -71 -121 -5 4 -9 8 -9 11 0
3 4 3 9 0 9 -6 24 35 16 43 -3 2 -5 -1 -5 -7 0 -7 -6 -12 -12 -12 -9 0 -13
-16 -13 -46 0 -44 -18 -70 -39 -57 -5 4 -7 -1 -3 -9 8 -22 -33 -11 -55 15 -14
16 -18 17 -18 5 0 -9 6 -21 14 -27 13 -11 12 -15 -2 -32 -9 -10 -22 -19 -29
-19 -7 0 -14 -10 -14 -22 -1 -21 -2 -21 -6 -3 -7 27 -20 34 -60 30 -24 -1 -33
2 -33 12 0 11 7 13 25 9 18 -5 27 -1 35 13 15 29 12 39 -5 17 -8 -11 -18 -17
-21 -13 -4 4 -1 13 5 21 7 8 10 19 7 25 -3 5 1 12 10 15 8 3 12 10 9 16 -3 5
-1 10 4 10 6 0 11 9 11 21 0 16 4 19 23 14 16 -5 18 -4 8 4 -13 8 -11 13 10
30 13 11 20 20 16 21 -4 0 3 12 17 27 16 17 21 30 15 34 -7 4 -4 9 6 13 9 3
14 10 10 15 -3 6 3 15 14 20 11 6 22 24 26 40 3 17 14 31 26 34 10 3 19 13 19
22 0 9 10 25 23 36 19 16 19 18 5 19 -10 0 -18 4 -18 9 0 6 -8 10 -17 10 -10
-1 -29 3 -42 7 -18 5 -23 4 -19 -7 3 -8 18 -16 34 -19 17 -3 24 -8 17 -13 -6
-4 -18 -4 -26 -1 -9 3 -26 -2 -39 -10 -14 -9 -28 -13 -32 -9 -5 5 -7 -9 -4
-29 2 -23 0 -38 -7 -38 -6 0 -11 8 -12 18 0 9 -3 27 -6 39 -5 19 -2 23 18 23
13 0 27 5 31 12 4 6 3 8 -2 5 -6 -3 -16 -2 -23 2 -20 13 8 51 38 51 18 0 22 4
18 20 -6 23 3 26 21 8 7 -7 12 -8 12 -2 0 5 -9 15 -20 22 -12 7 -18 18 -14 24
5 7 0 9 -14 6 -15 -4 -22 -2 -22 9 0 8 4 12 9 9 5 -3 11 10 13 29 2 20 -1 36
-8 39 -7 3 -10 19 -7 43 2 21 4 59 4 85 0 26 4 61 9 79 8 25 4 42 -19 90 -15
32 -30 57 -32 54 -3 -2 -5 6 -5 18 -1 77 -5 107 -15 105 -6 -2 -14 3 -16 10
-3 7 1 10 10 6 8 -3 18 0 23 7 4 8 3 10 -4 5 -7 -4 -12 -1 -12 8 0 8 4 16 9
18 5 2 11 59 15 128 4 69 9 149 13 178 5 43 3 52 -10 52 -11 0 -14 -8 -10 -31z
m-42 -869 c-3 -5 -11 -10 -16 -10 -6 0 -7 5 -4 10 3 6 11 10 16 10 6 0 7 -4 4
-10z m45 -100 c0 -11 -4 -20 -10 -20 -5 0 -10 9 -10 20 0 11 5 20 10 20 6 0
10 -9 10 -20z m-60 -281 c0 -17 -4 -28 -10 -24 -5 3 -10 17 -10 31 0 13 5 24
10 24 6 0 10 -14 10 -31z m-77 -136 c-7 -2 -13 -13 -13 -22 0 -23 -9 -31 -27
-24 -11 4 -10 10 8 29 12 13 27 24 33 23 6 0 5 -3 -1 -6z m-65 -111 c-5 -28
-33 -53 -51 -46 -19 7 -22 20 -7 29 6 3 10 1 10 -5 0 -6 5 -8 11 -5 6 4 8 13
5 20 -5 15 13 37 26 29 5 -3 7 -13 6 -22z m247 -42 c-3 -5 -13 -10 -21 -10 -8
0 -14 -5 -14 -12 0 -6 -3 -8 -7 -4 -5 4 1 14 11 22 23 16 40 19 31 4z m-302
-65 c-8 -25 -16 -45 -17 -45 -2 0 -17 5 -35 11 -33 12 -44 35 -12 26 10 -2 25
-1 32 4 10 6 11 9 2 9 -7 0 -13 5 -13 11 0 6 7 9 15 5 9 -3 15 0 15 9 0 8 6
15 14 15 13 0 13 -6 -1 -45z m197 16 c0 -6 -4 -13 -10 -16 -5 -3 -10 1 -10 9
0 9 5 16 10 16 6 0 10 -4 10 -9z m-233 -77 c-3 -3 -12 -4 -19 -1 -8 3 -5 6 6
6 11 1 17 -2 13 -5z m-92 -74 c8 -13 -5 -13 -25 0 -13 8 -13 10 2 10 9 0 20
-4 23 -10z m-35 -30 c0 -5 -4 -10 -9 -10 -6 0 -13 5 -16 10 -3 6 1 10 9 10 9
0 16 -4 16 -10z m44 -75 c-4 -8 -8 -15 -10 -15 -2 0 -4 7 -4 15 0 8 4 15 10
15 5 0 7 -7 4 -15z m-84 -43 c0 -8 -1 -13 -3 -11 -1 2 -9 12 -16 22 -12 15
-12 17 3 11 9 -3 16 -13 16 -22z"/>
<path d="M2780 2092 c0 -5 7 -13 16 -16 10 -4 14 -1 12 6 -5 15 -28 23 -28 10z"/>
<path d="M6026 2071 c-4 -7 -5 -15 -2 -18 9 -9 19 4 14 18 -4 11 -6 11 -12 0z"/>
<path d="M2775 2050 c-12 -14 -10 -17 16 -29 30 -13 55 -7 30 8 -10 7 -9 10 3
14 9 4 16 11 16 16 0 14 -50 8 -65 -9z"/>
<path d="M5995 2030 c3 -5 8 -10 11 -10 2 0 4 5 4 10 0 6 -5 10 -11 10 -5 0
-7 -4 -4 -10z"/>
<path d="M121 1646 c0 -12 -6 -16 -16 -12 -9 3 -23 -3 -33 -16 -9 -11 -30 -36
-45 -54 l-28 -32 3 -143 c3 -152 1 -148 46 -94 11 13 10 16 -2 21 -21 8 -10
24 16 24 15 0 18 -4 13 -17 -5 -14 -4 -15 6 -6 10 10 9 15 -1 28 -10 12 -10
15 0 15 8 0 11 9 7 26 -4 21 -1 25 14 21 21 -6 25 13 7 31 -9 9 -9 15 -1 23 6
6 9 17 7 24 -3 7 -1 16 5 20 6 3 11 0 12 -7 0 -7 5 -2 10 11 7 17 5 30 -6 47
-8 13 -15 29 -15 36 0 10 2 10 9 -1 10 -16 31 -6 31 14 0 8 -6 12 -14 9 -10
-4 -16 3 -19 23 -2 15 -5 20 -6 9z"/>
<path d="M10 1220 c0 -5 5 -10 10 -10 6 0 10 5 10 10 0 6 -4 10 -10 10 -5 0
-10 -4 -10 -10z"/>
<path d="M5880 1192 c0 -6 -7 -9 -16 -5 -11 4 -15 2 -12 -7 6 -18 20 -22 38
-10 12 7 12 12 2 22 -9 9 -12 9 -12 0z"/>
<path d="M5830 1120 c0 -6 12 -10 27 -10 29 0 24 12 -7 17 -11 2 -20 -2 -20
-7z"/>
<path d="M6090 1110 c-8 -5 -12 -12 -9 -15 4 -3 12 1 19 10 14 17 11 19 -10 5z"/>
<path d="M5785 1099 c-9 -14 -2 -20 14 -10 8 6 9 11 3 15 -6 3 -14 1 -17 -5z"/>
<path d="M5740 1016 c0 -2 7 -6 15 -10 8 -3 15 -1 15 4 0 6 -7 10 -15 10 -8 0
-15 -2 -15 -4z"/>
<path d="M5872 960 c0 -14 2 -19 5 -12 2 6 2 18 0 25 -3 6 -5 1 -5 -13z"/>
<path d="M5695 960 c-3 -5 1 -10 10 -10 9 0 13 5 10 10 -3 6 -8 10 -10 10 -2
0 -7 -4 -10 -10z"/>
<path d="M5900 946 c0 -9 5 -16 10 -16 6 0 10 4 10 9 0 6 -4 13 -10 16 -5 3
-10 -1 -10 -9z"/>
<path d="M5789 927 c9 -11 12 -31 8 -55 -6 -35 -5 -36 7 -12 8 14 17 36 21 49
6 19 4 23 -8 18 -8 -3 -21 0 -28 6 -11 10 -11 9 0 -6z"/>
<path d="M5630 809 c0 -5 5 -7 10 -4 6 3 10 8 10 11 0 2 -4 4 -10 4 -5 0 -10
-5 -10 -11z"/>
<path d="M5774 804 c3 -9 6 -18 6 -20 0 -3 4 -3 10 1 11 7 2 35 -12 35 -6 0
-7 -7 -4 -16z"/>
<path d="M5715 790 c-8 -13 15 -13 35 0 12 8 11 10 -7 10 -12 0 -25 -4 -28
-10z"/>
<path d="M5728 753 c7 -3 16 -2 19 1 4 3 -2 6 -13 5 -11 0 -14 -3 -6 -6z"/>
<path d="M6130 704 c0 -8 5 -12 10 -9 6 4 8 11 5 16 -9 14 -15 11 -15 -7z"/>
<path d="M5995 690 c-3 -5 3 -10 15 -10 12 0 18 5 15 10 -3 6 -10 10 -15 10
-5 0 -12 -4 -15 -10z"/>
<path d="M6087 694 c7 -3 9 -12 6 -21 -4 -11 -2 -14 5 -9 18 11 14 36 -5 35
-10 0 -13 -3 -6 -5z"/>
<path d="M5990 634 c0 -2 9 -8 19 -13 13 -8 22 -7 29 2 8 9 3 12 -19 13 -16 1
-29 0 -29 -2z"/>
<path d="M0 426 c0 -36 4 -66 9 -66 12 0 21 39 11 45 -5 3 -6 20 -3 39 3 19 1
36 -6 40 -8 5 -11 -13 -11 -58z"/>
<path d="M5576 469 c6 -10 44 -7 44 3 0 4 -11 7 -24 6 -14 -1 -23 -6 -20 -9z"/>
<path d="M5540 460 c0 -5 5 -10 10 -10 6 0 10 5 10 10 0 6 -4 10 -10 10 -5 0
-10 -4 -10 -10z"/>
<path d="M0 325 c0 -28 12 -32 29 -11 10 12 8 17 -8 26 -19 9 -21 8 -21 -15z"/>
<path d="M0 264 c0 -8 5 -12 10 -9 6 3 10 1 10 -6 0 -10 3 -10 12 -1 10 10 10
15 -2 22 -22 14 -30 12 -30 -6z"/>
<path d="M0 200 c0 -5 7 -10 15 -10 8 0 15 5 15 10 0 6 -7 10 -15 10 -8 0 -15
-4 -15 -10z"/>
<path d="M5515 139 c-10 -15 3 -25 16 -12 7 7 7 13 1 17 -6 3 -14 1 -17 -5z"/>
<path d="M2045 100 c-3 -5 -1 -10 4 -10 6 0 11 5 11 10 0 6 -2 10 -4 10 -3 0
-8 -4 -11 -10z"/>
</g>
</svg>
